Bodoni-16-Bold-Italic.ufo
<glyph name="numbersign" format="2">
  <advance width="2580"/>
  <unicode hex="0023"/>
  <outline>
    <contour>
      <point x="270" y="1065" type="line"/>
      <point x="2482" y="1065" type="line"/>
      <point x="2482" y="1008" type="line"/>
      <point x="270" y="1008" type="line"/>
    </contour>
    <contour>
      <point x="475" y="2126" type="line"/>
      <point x="2687" y="2126" type="line"/>
      <point x="2687" y="2068" type="line"/>
      <point x="475" y="2068" type="line"/>
    </contour>
    <contour>
      <point x="2228" y="3088" type="line"/>
      <point x="2286" y="3092" type="line"/>
      <point x="1569" y="-20" type="line"/>
      <point x="1511" y="-25" type="line"/>
    </contour>
    <contour>
      <point x="1409" y="3092" type="line"/>
      <point x="1466" y="3092" type="line"/>
      <point x="750" y="-20" type="line"/>
      <point x="692" y="-20" type="line"/>
    </contour>
  </outline>
</glyph>
<glyph name="dollar" format="2">
  <advance width="4800"/>
  <unicode hex="0024"/>
  <outline>
    <contour>
      <point x="2992" y="6640" type="line"/>
      <point x="3120" y="6640" type="line"/>
      <point x="1440" y="-640" type="line"/>
      <point x="1312" y="-640" type="line"/>
    </contour>
    <contour>
      <point x="3632" y="6640" type="line"/>
      <point x="3768" y="6640" type="line"/>
      <point x="2088" y="-640" type="line"/>
      <point x="1952" y="-640" type="line"/>
    </contour>
    <contour>
      <point x="2000" y="4976" type="curve" smooth="yes"/>
      <point x="2000" y="3600"/>
      <point x="4520" y="4080"/>
      <point x="4520" y="1960" type="curve" smooth="yes"/>
      <point x="4520" y="640"/>
      <point x="3248" y="-120"/>
      <point x="2120" y="-120" type="curve" smooth="yes"/>
      <point x="1032" y="-120"/>
      <point x="240" y="576"/>
      <point x="240" y="1296" type="curve" smooth="yes"/>
      <point x="240" y="1704"/>
      <point x="488" y="2056"/>
      <point x="920" y="2056" type="curve" smooth="yes"/>
      <point x="1240" y="2056"/>
      <point x="1552" y="1816"/>
      <point x="1552" y="1424" type="curve" smooth="yes"/>
      <point x="1552" y="984"/>
      <point x="1232" y="768"/>
      <point x="880" y="768" type="curve" smooth="yes"/>
      <point x="680" y="768"/>
      <point x="512" y="864"/>
      <point x="448" y="944" type="curve"/>
      <point x="624" y="512"/>
      <point x="1208" y="-8"/>
      <point x="2120" y="-8" type="curve" smooth="yes"/>
      <point x="2968" y="-8"/>
      <point x="3480" y="568"/>
      <point x="3480" y="1200" type="curve" smooth="yes"/>
      <point x="3480" y="2760"/>
      <point x="1000" y="2080"/>
      <point x="1000" y="4120" type="curve" smooth="yes"/>
      <point x="1000" y="5280"/>
      <point x="2208" y="6080"/>
      <point x="3216" y="6080" type="curve" smooth="yes"/>
      <point x="4080" y="6080"/>
      <point x="4880" y="5504"/>
      <point x="4880" y="4816" type="curve" smooth="yes"/>
      <point x="4880" y="4448"/>
      <point x="4640" y="4096"/>
      <point x="4208" y="4096" type="curve" smooth="yes"/>
      <point x="3888" y="4096"/>
      <point x="3568" y="4320"/>
      <point x="3568" y="4736" type="curve" smooth="yes"/>
      <point x="3568" y="5136"/>
      <point x="3920" y="5352"/>
      <point x="4232" y="5352" type="curve" smooth="yes"/>
      <point x="4432" y="5352"/>
      <point x="4592" y="5240"/>
      <point x="4640" y="5168" type="curve"/>
      <point x="4528" y="5544"/>
      <point x="3976" y="5952"/>
      <point x="3256" y="5952" type="curve" smooth="yes"/>
      <point x="2408" y="5952"/>
      <point x="2000" y="5488"/>
    </contour>
  </outline>
</glyph>
<glyph name="percent" format="2">
  <advance width="4096"/>
  <unicode hex="0025"/>
  <outline>
    <contour>
      <point x="2990" y="-41" type="curve" smooth="yes"/>
      <point x="2568" y="-41"/>
      <point x="2274" y="151"/>
      <point x="2274" y="573" type="curve" smooth="yes"/>
      <point x="2274" y="1241"/>
      <point x="2773" y="1761"/>
      <point x="3359" y="1761" type="curve" smooth="yes"/>
      <point x="3781" y="1761"/>
      <point x="4076" y="1569"/>
      <point x="4076" y="1147" type="curve" smooth="yes"/>
      <point x="4076" y="479"/>
      <point x="3576" y="-41"/>
    </contour>
    <contour>
      <point x="3380" y="1706" type="curve" smooth="yes"/>
      <point x="3138" y="1706"/>
      <point x="2826" y="782"/>
      <point x="2826" y="344" type="curve" smooth="yes"/>
      <point x="2826" y="164"/>
      <point x="2872" y="16"/>
      <point x="2970" y="16" type="curve" smooth="yes"/>
      <point x="3212" y="16"/>
      <point x="3512" y="936"/>
      <point x="3512" y="1374" type="curve" smooth="yes"/>
      <point x="3512" y="1554"/>
      <point x="3478" y="1706"/>
    </contour>
    <contour>
      <point x="3592" y="3072" type="line"/>
      <point x="3666" y="3072" type="line"/>
      <point x="864" y="0" type="line"/>
      <point x="791" y="0" type="line"/>
    </contour>
    <contour>
      <point x="1126" y="1311" type="curve" smooth="yes"/>
      <point x="704" y="1311"/>
      <point x="410" y="1503"/>
      <point x="410" y="1925" type="curve" smooth="yes"/>
      <point x="410" y="2593"/>
      <point x="909" y="3113"/>
      <point x="1495" y="3113" type="curve" smooth="yes"/>
      <point x="1917" y="3113"/>
      <point x="2212" y="2921"/>
      <point x="2212" y="2499" type="curve" smooth="yes"/>
      <point x="2212" y="1831"/>
      <point x="1712" y="1311"/>
    </contour>
    <contour>
      <point x="1516" y="3056" type="curve" smooth="yes"/>
      <point x="1274" y="3056"/>
      <point x="963" y="2134"/>
      <point x="963" y="1696" type="curve" smooth="yes"/>
      <point x="963" y="1516"/>
      <point x="1008" y="1368"/>
      <point x="1106" y="1368" type="curve" smooth="yes"/>
      <point x="1348" y="1368"/>
      <point x="1648" y="2300"/>
      <point x="1648" y="2738" type="curve" smooth="yes"/>
      <point x="1648" y="2918"/>
      <point x="1614" y="3056"/>
    </contour>
  </outline>
</glyph>
<glyph name="ampersand" format="2">
  <advance width="839"/>
  <unicode hex="0026"/>
  <outline>
    <contour>
      <point x="343" y="18" type="curve" smooth="yes"/>
      <point x="557" y="18"/>
      <point x="789" y="206"/>
      <point x="798" y="346" type="curve" smooth="yes"/>
      <point x="800" y="362" type="line"/>
      <point x="792" y="318"/>
      <point x="756" y="285"/>
      <point x="712" y="285" type="curve" smooth="yes"/>
      <point x="662" y="285"/>
      <point x="633" y="327"/>
      <point x="633" y="367" type="curve" smooth="yes"/>
      <point x="633" y="412"/>
      <point x="673" y="449"/>
      <point x="720" y="449" type="curve" smooth="yes"/>
      <point x="773" y="449"/>
      <point x="814" y="407"/>
      <point x="814" y="351" type="curve" smooth="yes"/>
      <point x="814" y="211"/>
      <point x="574" y="-10"/>
      <point x="274" y="-10" type="curve" smooth="yes"/>
      <point x="136" y="-10"/>
      <point x="20" y="35"/>
      <point x="20" y="155" type="curve" smooth="yes"/>
      <point x="20" y="405"/>
      <point x="516" y="355"/>
      <point x="516" y="648" type="curve" smooth="yes"/>
      <point x="516" y="690"/>
      <point x="500" y="748"/>
      <point x="458" y="748" type="curve" smooth="yes"/>
      <point x="400" y="748"/>
      <point x="378" y="683"/>
      <point x="378" y="620" type="curve" smooth="yes"/>
      <point x="378" y="585"/>
      <point x="390" y="534"/>
      <point x="422" y="470" type="curve" smooth="yes"/>
      <point x="611" y="95" type="line" smooth="yes"/>
      <point x="631" y="53"/>
      <point x="649" y="16"/>
      <point x="689" y="16" type="curve" smooth="yes"/>
      <point x="725" y="16"/>
      <point x="754" y="36"/>
      <point x="774" y="74" type="curve"/>
      <point x="784" y="70" type="line"/>
      <point x="765" y="26"/>
      <point x="719" y="-10"/>
      <point x="630" y="-10" type="curve" smooth="yes"/>
      <point x="557" y="-10"/>
      <point x="494" y="13"/>
      <point x="441" y="106" type="curve" smooth="yes"/>
      <point x="254" y="470" type="line" smooth="yes"/>
      <point x="232" y="512"/>
      <point x="223" y="548"/>
      <point x="223" y="583" type="curve" smooth="yes"/>
      <point x="223" y="683"/>
      <point x="333" y="760"/>
      <point x="469" y="760" type="curve" smooth="yes"/>
      <point x="556" y="760"/>
      <point x="660" y="726"/>
      <point x="660" y="638" type="curve" smooth="yes"/>
      <point x="660" y="434"/>
      <point x="180" y="497"/>
      <point x="180" y="165" type="curve" smooth="yes"/>
      <point x="180" y="83"/>
      <point x="249" y="18"/>
    </contour>
  </outline>
</glyph>
<glyph name="quotesingle" format="2">
  <advance width="257"/>
  <unicode hex="0027"/>
  <outline>
    <contour>
      <point x="298" y="664" type="curve" smooth="yes"/>
      <point x="279" y="589"/>
      <point x="208" y="553"/>
      <point x="178" y="453" type="curve"/>
      <point x="164" y="453" type="line"/>
      <point x="190" y="548"/>
      <point x="149" y="583"/>
      <point x="138" y="658" type="curve" smooth="yes"/>
      <point x="137" y="665"/>
      <point x="138" y="673"/>
      <point x="138" y="679" type="curve" smooth="yes"/>
      <point x="138" y="728"/>
      <point x="176" y="760"/>
      <point x="225" y="760" type="curve" smooth="yes"/>
      <point x="269" y="760"/>
      <point x="302" y="728"/>
      <point x="302" y="689" type="curve" smooth="yes"/>
      <point x="302" y="681"/>
      <point x="300" y="671"/>
    </contour>
  </outline>
</glyph>
<glyph name="parenleft" format="2">
  <advance width="1529"/>
  <unicode hex="0028"/>
  <outline>
    <contour>
      <point x="1170" y="-649" type="curve"/>
      <point x="1144" y="-696" type="line"/>
      <point x="681" y="-491"/>
      <point x="342" y="49"/>
      <point x="342" y="758" type="curve" smooth="yes"/>
      <point x="342" y="1958"/>
      <point x="1235" y="2949"/>
      <point x="2026" y="3277" type="curve"/>
      <point x="2050" y="3230" type="line"/>
      <point x="1419" y="2820"/>
      <point x="897" y="1290"/>
      <point x="897" y="340" type="curve" smooth="yes"/>
      <point x="897" y="-180"/>
      <point x="986" y="-444"/>
    </contour>
  </outline>
</glyph>
<glyph name="comma" format="2">
  <advance width="1126"/>
  <unicode hex="002C"/>
  <outline>
    <contour>
      <point x="102" y="317" type="curve" smooth="yes"/>
      <point x="102" y="513"/>
      <point x="282" y="688"/>
      <point x="500" y="688" type="curve" smooth="yes"/>
      <point x="722" y="688"/>
      <point x="904" y="535"/>
      <point x="904" y="236" type="curve" smooth="yes"/>
      <point x="904" y="-272"/>
      <point x="350" y="-639"/>
      <point x="-142" y="-639" type="curve"/>
      <point x="-142" y="-582" type="line"/>
      <point x="264" y="-582"/>
      <point x="816" y="-289"/>
      <point x="834" y="213" type="curve"/>
      <point x="782" y="69"/>
      <point x="635" y="-41"/>
      <point x="465" y="-41" type="curve" smooth="yes"/>
      <point x="240" y="-41"/>
      <point x="102" y="127"/>
    </contour>
  </outline>
</glyph>
<glyph name="zero" format="2">
  <advance width="2703"/>
  <unicode hex="0030"/>
  <outline>
    <contour>
      <point x="1892" y="3113" type="curve" smooth="yes"/>
      <point x="2457" y="3113"/>
      <point x="2798" y="2662"/>
      <point x="2798" y="2154" type="curve" smooth="yes"/>
      <point x="2798" y="970"/>
      <point x="2019" y="-41"/>
      <point x="1196" y="-41" type="curve" smooth="yes"/>
      <point x="631" y="-41"/>
      <point x="291" y="410"/>
      <point x="291" y="918" type="curve" smooth="yes"/>
      <point x="291" y="2102"/>
      <point x="1069" y="3113"/>
    </contour>
    <contour>
      <point x="1892" y="3064" type="curve" smooth="yes"/>
      <point x="1335" y="3064"/>
      <point x="897" y="1290"/>
      <point x="897" y="570" type="curve" smooth="yes"/>
      <point x="897" y="271"/>
      <point x="942" y="8"/>
      <point x="1196" y="8" type="curve" smooth="yes"/>
      <point x="1753" y="8"/>
      <point x="2191" y="1822"/>
      <point x="2191" y="2502" type="curve" smooth="yes"/>
      <point x="2191" y="2801"/>
      <point x="2146" y="3064"/>
    </contour>
  </outline>
</glyph>
<glyph name="two" format="2">
  <advance width="4840"/>
  <unicode hex="0032"/>
  <outline>
    <contour>
      <point x="904" y="4408" type="curve"/>
      <point x="984" y="4632"/>
      <point x="1216" y="4856"/>
      <point x="1536" y="4856" type="curve" smooth="yes"/>
      <point x="1904" y="4856"/>
      <point x="2200" y="4592"/>
      <point x="2200" y="4224" type="curve" smooth="yes"/>
      <point x="2200" y="3784"/>
      <point x="1832" y="3496"/>
      <point x="1472" y="3496" type="curve" smooth="yes"/>
      <point x="1112" y="3496"/>
      <point x="744" y="3736"/>
      <point x="744" y="4232" type="curve" smooth="yes"/>
      <point x="744" y="5168"/>
      <point x="1744" y="6080"/>
      <point x="3000" y="6080" type="curve" smooth="yes"/>
      <point x="3888" y="6080"/>
      <point x="4736" y="5720"/>
      <point x="4736" y="4816" type="curve" smooth="yes"/>
      <point x="4736" y="3880"/>
      <point x="3328" y="3136"/>
      <point x="2688" y="2704" type="curve" smooth="yes"/>
      <point x="688" y="1200" type="line"/>
      <point x="3952" y="1200" type="line"/>
      <point x="4088" y="1800" type="line"/>
      <point x="4200" y="1800" type="line"/>
      <point x="3792" y="0" type="line"/>
      <point x="-328" y="0" type="line"/>
      <point x="-136" y="800" type="line"/>
      <point x="1944" y="2328" type="line" smooth="yes"/>
      <point x="2784" y="2920"/>
      <point x="3448" y="3928"/>
      <point x="3448" y="4696" type="curve" smooth="yes"/>
      <point x="3448" y="5424"/>
      <point x="3144" y="5808"/>
      <point x="2480" y="5808" type="curve" smooth="yes"/>
      <point x="1744" y="5808"/>
      <point x="952" y="5104"/>
    </contour>
  </outline>
</glyph>
<glyph name="three" format="2">
  <advance width="4608"/>
  <unicode hex="0033"/>
  <outline>
    <contour>
      <point x="1136" y="4840" type="curve" smooth="yes"/>
      <point x="1136" y="5496"/>
      <point x="1912" y="6072"/>
      <point x="2888" y="6072" type="curve" smooth="yes"/>
      <point x="3776" y="6072"/>
      <point x="4688" y="5816"/>
      <point x="4688" y="4896" type="curve" smooth="yes"/>
      <point x="4688" y="3976"/>
      <point x="3712" y="3216"/>
      <point x="1864" y="3216" type="curve"/>
      <point x="1864" y="3296" type="line"/>
      <point x="3136" y="3296"/>
      <point x="3440" y="4544"/>
      <point x="3440" y="5088" type="curve" smooth="yes"/>
      <point x="3440" y="5696"/>
      <point x="3216" y="5936"/>
      <point x="2664" y="5936" type="curve" smooth="yes"/>
      <point x="2160" y="5936"/>
      <point x="1632" y="5648"/>
      <point x="1456" y="5312" type="curve"/>
      <point x="1504" y="5360"/>
      <point x="1664" y="5432"/>
      <point x="1840" y="5432" type="curve" smooth="yes"/>
      <point x="2200" y="5432"/>
      <point x="2448" y="5152"/>
      <point x="2448" y="4792" type="curve" smooth="yes"/>
      <point x="2448" y="4392"/>
      <point x="2112" y="4144"/>
      <point x="1792" y="4144" type="curve" smooth="yes"/>
      <point x="1432" y="4144"/>
      <point x="1136" y="4432"/>
    </contour>
    <contour>
      <point x="40" y="1264" type="curve" smooth="yes"/>
      <point x="40" y="1712"/>
      <point x="320" y="2008"/>
      <point x="720" y="2008" type="curve" smooth="yes"/>
      <point x="1080" y="2008"/>
      <point x="1352" y="1728"/>
      <point x="1352" y="1360" type="curve" smooth="yes"/>
      <point x="1352" y="984"/>
      <point x="1048" y="720"/>
      <point x="696" y="720" type="curve" smooth="yes"/>
      <point x="496" y="720"/>
      <point x="320" y="816"/>
      <point x="256" y="896" type="curve"/>
      <point x="352" y="528"/>
      <point x="832" y="56"/>
      <point x="1664" y="56" type="curve" smooth="yes"/>
      <point x="2616" y="56"/>
      <point x="3000" y="1256"/>
      <point x="3000" y="2040" type="curve" smooth="yes"/>
      <point x="3000" y="2648"/>
      <point x="2776" y="3200"/>
      <point x="1864" y="3200" type="curve"/>
      <point x="1864" y="3272" type="line"/>
      <point x="3552" y="3272"/>
      <point x="4248" y="2784"/>
      <point x="4248" y="1864" type="curve" smooth="yes"/>
      <point x="4248" y="680"/>
      <point x="2976" y="-80"/>
      <point x="1768" y="-80" type="curve" smooth="yes"/>
      <point x="592" y="-80"/>
      <point x="40" y="648"/>
    </contour>
  </outline>
</glyph>
<glyph name="four" format="2">
  <advance width="5280"/>
  <unicode hex="0034"/>
  <outline>
    <contour>
      <point x="4440" y="112" type="line"/>
      <point x="4440" y="0" type="line"/>
      <point x="1840" y="0" type="line"/>
      <point x="1840" y="112" type="line"/>
    </contour>
    <contour>
      <point x="5200" y="6000" type="line"/>
      <point x="3760" y="0" type="line"/>
      <point x="2520" y="0" type="line"/>
      <point x="3776" y="5504" type="line"/>
      <point x="544" y="1776" type="line"/>
      <point x="5040" y="1776" type="line"/>
      <point x="5040" y="1664" type="line"/>
      <point x="304" y="1664" type="line"/>
      <point x="4088" y="6000" type="line"/>
    </contour>
  </outline>
</glyph>
<glyph name="five" format="2">
  <advance width="4504"/>
  <unicode hex="0035"/>
  <outline>
    <contour>
      <point x="4224" y="2200" type="curve" smooth="yes"/>
      <point x="4224" y="840"/>
      <point x="2776" y="-80"/>
      <point x="1568" y="-80" type="curve" smooth="yes"/>
      <point x="592" y="-80"/>
      <point x="0" y="496"/>
      <point x="0" y="1152" type="curve" smooth="yes"/>
      <point x="0" y="1560"/>
      <point x="296" y="1848"/>
      <point x="656" y="1848" type="curve" smooth="yes"/>
      <point x="976" y="1848"/>
      <point x="1312" y="1600"/>
      <point x="1312" y="1200" type="curve" smooth="yes"/>
      <point x="1312" y="800"/>
      <point x="1008" y="560"/>
      <point x="656" y="560" type="curve" smooth="yes"/>
      <point x="432" y="560"/>
      <point x="272" y="680"/>
      <point x="224" y="752" type="curve"/>
      <point x="360" y="400"/>
      <point x="768" y="32"/>
      <point x="1488" y="32" type="curve" smooth="yes"/>
      <point x="2520" y="32"/>
      <point x="2944" y="1488"/>
      <point x="2944" y="2400" type="curve" smooth="yes"/>
      <point x="2944" y="3072"/>
      <point x="2672" y="3488"/>
      <point x="2160" y="3488" type="curve" smooth="yes"/>
      <point x="1664" y="3488"/>
      <point x="1104" y="3264"/>
      <point x="832" y="2896" type="curve"/>
      <point x="728" y="2896" type="line"/>
      <point x="1016" y="3352"/>
      <point x="1672" y="3640"/>
      <point x="2400" y="3640" type="curve" smooth="yes"/>
      <point x="3448" y="3640"/>
      <point x="4224" y="3240"/>
    </contour>
    <contour>
      <point x="4584" y="4800" type="line"/>
      <point x="1448" y="4800" type="line"/>
      <point x="784" y="2896" type="line"/>
      <point x="680" y="2896" type="line"/>
      <point x="1736" y="6000" type="line"/>
      <point x="4736" y="6000" type="line"/>
      <point x="4832" y="6440" type="line"/>
      <point x="4944" y="6440" type="line"/>
    </contour>
  </outline>
</glyph>
<glyph name="six" format="2">
  <advance width="2498"/>
  <unicode hex="0036"/>
  <outline>
    <contour>
      <point x="1761" y="1413" type="curve" smooth="yes"/>
      <point x="1761" y="1737"/>
      <point x="1702" y="1904"/>
      <point x="1532" y="1904" type="curve" smooth="yes"/>
      <point x="1082" y="1904"/>
      <point x="825" y="954"/>
      <point x="825" y="512" type="curve"/>
      <point x="774" y="512" type="line"/>
      <point x="774" y="968"/>
      <point x="983" y="2018"/>
      <point x="1651" y="2018" type="curve" smooth="yes"/>
      <point x="2024" y="2018"/>
      <point x="2416" y="1802"/>
      <point x="2416" y="1229" type="curve" smooth="yes"/>
      <point x="2416" y="533"/>
      <point x="1740" y="-41"/>
      <point x="1081" y="-41" type="curve" smooth="yes"/>
      <point x="585" y="-41"/>
      <point x="205" y="246"/>
      <point x="205" y="901" type="curve" smooth="yes"/>
      <point x="205" y="1855"/>
      <point x="1237" y="3113"/>
      <point x="2519" y="3113" type="curve"/>
      <point x="2519" y="3064" type="line"/>
      <point x="1509" y="3064"/>
      <point x="836" y="1660"/>
      <point x="836" y="872" type="curve"/>
      <point x="825" y="512" type="line"/>
      <point x="825" y="230"/>
      <point x="908" y="16"/>
      <point x="1102" y="16" type="curve" smooth="yes"/>
      <point x="1468" y="16"/>
      <point x="1761" y="946"/>
    </contour>
  </outline>
</glyph>
<glyph name="seven" format="2">
  <advance width="4448"/>
  <unicode hex="0037"/>
  <outline>
    <contour>
      <point x="1136" y="688" type="curve" smooth="yes"/>
      <point x="1136" y="1376"/>
      <point x="2064" y="2216"/>
      <point x="2752" y="3048" type="curve" smooth="yes"/>
      <point x="3200" y="3576"/>
      <point x="3632" y="4136"/>
      <point x="4128" y="4760" type="curve"/>
      <point x="1160" y="4760" type="line"/>
      <point x="1024" y="4160" type="line"/>
      <point x="912" y="4160" type="line"/>
      <point x="1328" y="6000" type="line"/>
      <point x="5248" y="6000" type="line"/>
      <point x="5248" y="6000"/>
      <point x="3872" y="4200"/>
      <point x="3056" y="3200" type="curve" smooth="yes"/>
      <point x="2480" y="2496"/>
      <point x="2088" y="2032"/>
      <point x="2088" y="1672" type="curve" smooth="yes"/>
      <point x="2088" y="1312"/>
      <point x="2616" y="1200"/>
      <point x="2616" y="664" type="curve" smooth="yes"/>
      <point x="2616" y="248"/>
      <point x="2328" y="-80"/>
      <point x="1856" y="-80" type="curve" smooth="yes"/>
      <point x="1464" y="-80"/>
      <point x="1136" y="176"/>
    </contour>
  </outline>
</glyph>
<glyph name="eight" format="2">
  <advance width="4880"/>
  <unicode hex="0038"/>
  <outline>
    <contour>
      <point x="2200" y="3920" type="curve" smooth="yes"/>
      <point x="2200" y="3584"/>
      <point x="2264" y="3128"/>
      <point x="2624" y="3128" type="curve" smooth="yes"/>
      <point x="3216" y="3128"/>
      <point x="3640" y="4336"/>
      <point x="3640" y="5120" type="curve" smooth="yes"/>
      <point x="3640" y="5424"/>
      <point x="3576" y="5968"/>
      <point x="3192" y="5968" type="curve" smooth="yes"/>
      <point x="2680" y="5968"/>
      <point x="2200" y="4704"/>
    </contour>
    <contour>
      <point x="960" y="4200" type="curve" smooth="yes"/>
      <point x="960" y="5160"/>
      <point x="1952" y="6080"/>
      <point x="3200" y="6080" type="curve" smooth="yes"/>
      <point x="4288" y="6080"/>
      <point x="4880" y="5400"/>
      <point x="4880" y="4760" type="curve" smooth="yes"/>
      <point x="4880" y="3760"/>
      <point x="3768" y="3040"/>
      <point x="2640" y="3040" type="curve" smooth="yes"/>
      <point x="1672" y="3040"/>
      <point x="960" y="3560"/>
    </contour>
    <contour>
      <point x="1440" y="960" type="curve" smooth="yes"/>
      <point x="1440" y="464"/>
      <point x="1608" y="32"/>
      <point x="2040" y="32" type="curve" smooth="yes"/>
      <point x="2712" y="32"/>
      <point x="3160" y="1296"/>
      <point x="3160" y="2080" type="curve" smooth="yes"/>
      <point x="3160" y="2576"/>
      <point x="2992" y="3016"/>
      <point x="2560" y="3016" type="curve" smooth="yes"/>
      <point x="1888" y="3016"/>
      <point x="1440" y="1744"/>
    </contour>
    <contour>
      <point x="240" y="1200" type="curve" smooth="yes"/>
      <point x="240" y="2160"/>
      <point x="992" y="3104"/>
      <point x="2480" y="3104" type="curve" smooth="yes"/>
      <point x="3728" y="3104"/>
      <point x="4400" y="2640"/>
      <point x="4400" y="1840" type="curve" smooth="yes"/>
      <point x="4400" y="880"/>
      <point x="3648" y="-80"/>
      <point x="2160" y="-80" type="curve" smooth="yes"/>
      <point x="912" y="-80"/>
      <point x="240" y="400"/>
    </contour>
  </outline>
</glyph>
<glyph name="less" format="1">
  <advance width="560"/>
  <unicode hex="003C"/>
  <outline>
    <contour>
      <point x="110" y="382" type="line"/>
      <point x="110" y="396" type="line"/>
      <point x="590" y="600" type="line"/>
      <point x="590" y="586" type="line"/>
    </contour>
    <contour>
      <point x="110" y="379" type="line"/>
      <point x="110" y="393" type="line"/>
      <point x="500" y="189" type="line"/>
      <point x="500" y="175" type="line"/>
    </contour>
  </outline>
</glyph>
<glyph name="question" format="2">
  <advance width="4680"/>
  <unicode hex="003F"/>
  <outline>
    <contour>
      <point x="2392" y="2784" type="curve"/>
      <point x="2208" y="1952" type="line"/>
      <point x="2096" y="1952" type="line"/>
      <point x="2304" y="2856" type="line"/>
      <point x="3240" y="3104"/>
      <point x="3792" y="4136"/>
      <point x="3792" y="5040" type="curve" smooth="yes"/>
      <point x="3792" y="5552"/>
      <point x="3640" y="5960"/>
      <point x="3088" y="5960" type="curve" smooth="yes"/>
      <point x="2224" y="5960"/>
      <point x="1616" y="5392"/>
      <point x="1504" y="5008" type="curve"/>
      <point x="1576" y="5104"/>
      <point x="1744" y="5200"/>
      <point x="1936" y="5200" type="curve" smooth="yes"/>
      <point x="2248" y="5200"/>
      <point x="2552" y="4960"/>
      <point x="2552" y="4600" type="curve" smooth="yes"/>
      <point x="2552" y="4200"/>
      <point x="2216" y="3952"/>
      <point x="1896" y="3952" type="curve" smooth="yes"/>
      <point x="1496" y="3952"/>
      <point x="1280" y="4240"/>
      <point x="1280" y="4648" type="curve" smooth="yes"/>
      <point x="1280" y="5304"/>
      <point x="2112" y="6080"/>
      <point x="3168" y="6080" type="curve" smooth="yes"/>
      <point x="4056" y="6080"/>
      <point x="5040" y="5720"/>
      <point x="5040" y="4760" type="curve" smooth="yes"/>
      <point x="5040" y="3504"/>
      <point x="3632" y="2848"/>
    </contour>
    <component base="period" xOffset="1192"/>
  </outline>
</glyph>
<glyph name="at" format="2">
  <advance width="1010"/>
  <unicode hex="0040"/>
  <outline>
    <contour>
      <point x="588" y="356" type="curve" smooth="yes"/>
      <point x="588" y="198"/>
      <point x="512" y="70"/>
      <point x="397" y="70" type="curve" smooth="yes"/>
      <point x="310" y="70"/>
      <point x="244" y="126"/>
      <point x="244" y="230" type="curve" smooth="yes"/>
      <point x="244" y="380"/>
      <point x="354" y="529"/>
      <point x="482" y="529" type="curve" smooth="yes"/>
      <point x="570" y="529"/>
      <point x="588" y="438"/>
    </contour>
    <contour>
      <point x="576" y="346" type="curve" smooth="yes"/>
      <point x="576" y="388"/>
      <point x="572" y="486"/>
      <point x="524" y="486" type="curve" smooth="yes"/>
      <point x="470" y="486"/>
      <point x="405" y="360"/>
      <point x="405" y="236" type="curve" smooth="yes"/>
      <point x="405" y="169"/>
      <point x="420" y="113"/>
      <point x="460" y="113" type="curve" smooth="yes"/>
      <point x="511" y="113"/>
      <point x="576" y="220"/>
    </contour>
    <contour>
      <point x="555" y="210" type="curve" smooth="yes"/>
      <point x="627" y="520" type="line"/>
      <point x="777" y="520" type="line"/>
      <point x="704" y="208" type="line" smooth="yes"/>
      <point x="697" y="177"/>
      <point x="667" y="94"/>
      <point x="726" y="94" type="curve" smooth="yes"/>
      <point x="838" y="94"/>
      <point x="941" y="240"/>
      <point x="941" y="401" type="curve" smooth="yes"/>
      <point x="941" y="579"/>
      <point x="831" y="776"/>
      <point x="584" y="776" type="curve" smooth="yes"/>
      <point x="301" y="776"/>
      <point x="69" y="517"/>
      <point x="69" y="211" type="curve" smooth="yes"/>
      <point x="69" y="-92"/>
      <point x="243" y="-200"/>
      <point x="419" y="-200" type="curve" smooth="yes"/>
      <point x="582" y="-200"/>
      <point x="687" y="-152"/>
      <point x="775" y="-54" type="curve"/>
      <point x="785" y="-64" type="line"/>
      <point x="701" y="-162"/>
      <point x="582" y="-214"/>
      <point x="419" y="-214" type="curve" smooth="yes"/>
      <point x="236" y="-214"/>
      <point x="55" y="-103"/>
      <point x="55" y="211" type="curve" smooth="yes"/>
      <point x="55" y="524"/>
      <point x="292" y="790"/>
      <point x="585" y="790" type="curve" smooth="yes"/>
      <point x="838" y="790"/>
      <point x="955" y="584"/>
      <point x="955" y="401" type="curve" smooth="yes"/>
      <point x="955" y="236"/>
      <point x="862" y="68"/>
      <point x="676" y="68" type="curve" smooth="yes"/>
      <point x="557" y="68"/>
      <point x="541" y="148"/>
    </contour>
  </outline>
</glyph>
<glyph name="A" format="2">
  <advance width="6176"/>
  <unicode hex="0041"/>
  <outline>
    <contour>
      <point x="-384" y="112" type="line"/>
      <point x="1376" y="112" type="line"/>
      <point x="1376" y="0" type="line"/>
      <point x="-384" y="0" type="line"/>
    </contour>
    <contour>
      <point x="2816" y="112" type="line"/>
      <point x="5616" y="112" type="line"/>
      <point x="5616" y="0" type="line"/>
      <point x="2816" y="0" type="line"/>
    </contour>
    <contour>
      <point x="1472" y="2016" type="line"/>
      <point x="4096" y="2016" type="line"/>
      <point x="4096" y="1904" type="line"/>
      <point x="1472" y="1904" type="line"/>
    </contour>
    <contour>
      <point x="3240" y="4936" type="line"/>
      <point x="400" y="0" type="line"/>
      <point x="264" y="0" type="line"/>
      <point x="3792" y="6120" type="line"/>
      <point x="4304" y="6120" type="line"/>
      <point x="5056" y="0" type="line"/>
      <point x="3744" y="0" type="line"/>
    </contour>
  </outline>
</glyph>
<glyph name="B" format="2">
  <advance width="682"/>
  <unicode hex="0042"/>
  <outline>
    <contour>
      <point x="292" y="0" type="curve" smooth="yes"/>
      <point x="-48" y="0" type="line"/>
      <point x="-48" y="14" type="line"/>
      <point x="292" y="14" type="line" smooth="yes"/>
      <point x="388" y="14"/>
      <point x="462" y="121"/>
      <point x="462" y="260" type="curve" smooth="yes"/>
      <point x="462" y="349"/>
      <point x="424" y="378"/>
      <point x="358" y="378" type="curve" smooth="yes"/>
      <point x="242" y="378" type="line"/>
      <point x="242" y="389" type="line"/>
      <point x="378" y="389" type="line" smooth="yes"/>
      <point x="519" y="389"/>
      <point x="632" y="345"/>
      <point x="632" y="230" type="curve" smooth="yes"/>
      <point x="632" y="80"/>
      <point x="468" y="0"/>
    </contour>
    <contour>
      <point x="218" y="750" type="line"/>
      <point x="372" y="750" type="line"/>
      <point x="198" y="0" type="line"/>
      <point x="42" y="0" type="line"/>
    </contour>
    <contour>
      <point x="362" y="381" type="curve" smooth="yes"/>
      <point x="242" y="381" type="line"/>
      <point x="242" y="392" type="line"/>
      <point x="362" y="392" type="line" smooth="yes"/>
      <point x="438" y="392"/>
      <point x="528" y="486"/>
      <point x="528" y="625" type="curve" smooth="yes"/>
      <point x="528" y="689"/>
      <point x="501" y="736"/>
      <point x="435" y="736" type="curve" smooth="yes"/>
      <point x="128" y="736" type="line"/>
      <point x="128" y="750" type="line"/>
      <point x="438" y="750" type="line" smooth="yes"/>
      <point x="609" y="750"/>
      <point x="688" y="705"/>
      <point x="688" y="595" type="curve" smooth="yes"/>
      <point x="688" y="465"/>
      <point x="523" y="381"/>
    </contour>
  </outline>
</glyph>
<glyph name="C" format="2">
  <advance width="2848"/>
  <unicode hex="0043"/>
  <outline>
    <contour>
      <point x="1362" y="-41" type="curve" smooth="yes"/>
      <point x="674" y="-41"/>
      <point x="215" y="376"/>
      <point x="215" y="1044" type="curve" smooth="yes"/>
      <point x="215" y="2162"/>
      <point x="1043" y="3113"/>
      <point x="2038" y="3113" type="curve" smooth="yes"/>
      <point x="2562" y="3113"/>
      <point x="2888" y="2756"/>
      <point x="2908" y="2170" type="curve"/>
      <point x="2851" y="2170" type="line"/>
      <point x="2810" y="2772"/>
      <point x="2464" y="3031"/>
      <point x="2140" y="3031" type="curve" smooth="yes"/>
      <point x="1324" y="3031"/>
      <point x="891" y="1606"/>
      <point x="891" y="758" type="curve" smooth="yes"/>
      <point x="891" y="360"/>
      <point x="1014" y="37"/>
      <point x="1440" y="37" type="curve" smooth="yes"/>
      <point x="1928" y="37"/>
      <point x="2316" y="448"/>
      <point x="2594" y="902" type="curve"/>
      <point x="2652" y="902" type="line"/>
      <point x="2406" y="398"/>
      <point x="1948" y="-41"/>
    </contour>
    <contour>
      <point x="2851" y="2170" type="line"/>
      <point x="2847" y="2416" type="line"/>
      <point x="2837" y="2490"/>
      <point x="2722" y="2726"/>
      <point x="2687" y="2773" type="curve"/>
      <point x="3074" y="3072" type="line"/>
      <point x="3115" y="3072" type="line"/>
      <point x="2908" y="2170" type="line"/>
    </contour>
    <contour>
      <point x="2594" y="902" type="line"/>
      <point x="2652" y="902" type="line"/>
      <point x="2426" y="0" type="line"/>
      <point x="2386" y="0" type="line"/>
      <point x="2148" y="283" type="line"/>
      <point x="2195" y="326"/>
      <point x="2429" y="568"/>
      <point x="2478" y="648" type="curve"/>
    </contour>
  </outline>
</glyph>
<glyph name="D" format="2">
  <advance width="6056"/>
  <unicode hex="0044"/>
  <outline>
    <contour>
      <point x="1776" y="6000" type="line"/>
      <point x="3024" y="6000" type="line"/>
      <point x="1664" y="0" type="line"/>
      <point x="416" y="0" type="line"/>
    </contour>
    <contour>
      <point x="2464" y="0" type="curve" smooth="yes"/>
      <point x="-304" y="0" type="line"/>
      <point x="-304" y="112" type="line"/>
      <point x="2304" y="112" type="line" smooth="yes"/>
      <point x="3896" y="112"/>
      <point x="4704" y="2904"/>
      <point x="4704" y="4400" type="curve" smooth="yes"/>
      <point x="4704" y="5136"/>
      <point x="4488" y="5888"/>
      <point x="3616" y="5888" type="curve" smooth="yes"/>
      <point x="976" y="5888" type="line"/>
      <point x="976" y="6000" type="line"/>
      <point x="3744" y="6000" type="line" smooth="yes"/>
      <point x="5048" y="6000"/>
      <point x="6064" y="5304"/>
      <point x="6064" y="3880" type="curve" smooth="yes"/>
      <point x="6064" y="1816"/>
      <point x="4528" y="0"/>
    </contour>
  </outline>
</glyph>
<glyph name="E" format="2">
  <advance width="616"/>
  <unicode hex="0045"/>
  <outline>
    <contour>
      <point x="122" y="750" type="line"/>
      <point x="692" y="750" type="line"/>
      <point x="644" y="545" type="line"/>
      <point x="630" y="545" type="line"/>
      <point x="640" y="652"/>
      <point x="599" y="736"/>
      <point x="482" y="736" type="curve" smooth="yes"/>
      <point x="122" y="736" type="line"/>
    </contour>
    <contour>
      <point x="212" y="750" type="line"/>
      <point x="366" y="750" type="line"/>
      <point x="192" y="0" type="line"/>
      <point x="38" y="0" type="line"/>
    </contour>
    <contour>
      <point x="320" y="381" type="curve" smooth="yes"/>
      <point x="254" y="381" type="line"/>
      <point x="254" y="395" type="line"/>
      <point x="320" y="395" type="line" smooth="yes"/>
      <point x="377" y="395"/>
      <point x="436" y="441"/>
      <point x="466" y="508" type="curve"/>
      <point x="480" y="508" type="line"/>
      <point x="424" y="263" type="line"/>
      <point x="410" y="263" type="line"/>
      <point x="410" y="330"/>
      <point x="377" y="381"/>
    </contour>
    <contour>
      <point x="528" y="0" type="line"/>
      <point x="-48" y="0" type="line"/>
      <point x="-48" y="14" type="line"/>
      <point x="308" y="14" type="line" smooth="yes"/>
      <point x="445" y="14"/>
      <point x="522" y="98"/>
      <point x="566" y="225" type="curve"/>
      <point x="580" y="225" type="line"/>
    </contour>
  </outline>
</glyph>
<glyph name="F" format="2">
  <advance width="4728"/>
  <unicode hex="0046"/>
  <outline>
    <contour>
      <point x="2416" y="2928" type="curve" smooth="yes"/>
      <point x="2048" y="2928" type="line"/>
      <point x="2048" y="3040" type="line"/>
      <point x="2416" y="3040" type="line" smooth="yes"/>
      <point x="3024" y="3040"/>
      <point x="3472" y="3408"/>
      <point x="3696" y="3944" type="curve"/>
      <point x="3808" y="3944" type="line"/>
      <point x="3360" y="1984" type="line"/>
      <point x="3248" y="1984" type="line"/>
      <point x="3248" y="2520"/>
      <point x="3032" y="2928"/>
    </contour>
    <contour>
      <point x="-384" y="112" type="line"/>
      <point x="2336" y="112" type="line"/>
      <point x="2336" y="0" type="line"/>
      <point x="-384" y="0" type="line"/>
    </contour>
    <contour>
      <point x="1696" y="6000" type="line"/>
      <point x="2928" y="6000" type="line"/>
      <point x="1536" y="0" type="line"/>
      <point x="304" y="0" type="line"/>
    </contour>
    <contour>
      <point x="976" y="6000" type="line"/>
      <point x="5408" y="6000" type="line"/>
      <point x="5024" y="4360" type="line"/>
      <point x="4912" y="4360" type="line"/>
      <point x="4992" y="5216"/>
      <point x="4712" y="5888"/>
      <point x="3776" y="5888" type="curve" smooth="yes"/>
      <point x="976" y="5888" type="line"/>
    </contour>
  </outline>
</glyph>
<glyph name="G" format="2">
  <advance width="3196"/>
  <unicode hex="0047"/>
  <outline>
    <contour>
      <point x="2194" y="1153" type="line"/>
      <point x="2865" y="1153" type="line"/>
      <point x="2742" y="676" type="line"/>
      <point x="2558" y="418"/>
      <point x="2030" y="-41"/>
      <point x="1362" y="-41" type="curve" smooth="yes"/>
      <point x="694" y="-41"/>
      <point x="215" y="335"/>
      <point x="215" y="1044" type="curve" smooth="yes"/>
      <point x="215" y="2203"/>
      <point x="1125" y="3113"/>
      <point x="2099" y="3113" type="curve" smooth="yes"/>
      <point x="2623" y="3113"/>
      <point x="2980" y="2756"/>
      <point x="2988" y="2170" type="curve"/>
      <point x="2930" y="2170" type="line"/>
      <point x="2916" y="2727"/>
      <point x="2570" y="3025"/>
      <point x="2202" y="3025" type="curve" smooth="yes"/>
      <point x="1366" y="3025"/>
      <point x="891" y="1687"/>
      <point x="891" y="799" type="curve" smooth="yes"/>
      <point x="891" y="381"/>
      <point x="994" y="28"/>
      <point x="1358" y="28" type="curve" smooth="yes"/>
      <point x="1722" y="28"/>
      <point x="1924" y="340"/>
      <point x="2026" y="512" type="curve"/>
    </contour>
    <contour>
      <point x="1792" y="1196" type="line"/>
      <point x="3103" y="1196" type="line"/>
      <point x="3103" y="1139" type="line"/>
      <point x="1792" y="1139" type="line"/>
    </contour>
    <contour>
      <point x="3156" y="3072" type="line"/>
      <point x="3197" y="3072" type="line"/>
      <point x="2988" y="2170" type="line"/>
      <point x="2933" y="2170" type="line"/>
      <point x="2933" y="2386" type="line"/>
      <point x="2929" y="2443"/>
      <point x="2795" y="2751"/>
      <point x="2752" y="2802" type="curve"/>
    </contour>
  </outline>
</glyph>
<glyph name="G" format="1">
  <advance width="780"/>
  <unicode hex="0047"/>
  <outline>
    <contour>
      <point x="536" y="282" type="line"/>
      <point x="700" y="282" type="line"/>
      <point x="670" y="165" type="line"/>
      <point x="625" y="102"/>
      <point x="495" y="-10"/>
      <point x="332" y="-10" type="curve" smooth="yes"/>
      <point x="169" y="-10"/>
      <point x="52" y="82"/>
      <point x="52" y="255" type="curve" smooth="yes"/>
      <point x="52" y="538"/>
      <point x="274" y="760"/>
      <point x="512" y="760" type="curve" smooth="yes"/>
      <point x="640" y="760"/>
      <point x="728" y="673"/>
      <point x="730" y="530" type="curve"/>
      <point x="716" y="530" type="line"/>
      <point x="712" y="666"/>
      <point x="628" y="738"/>
      <point x="538" y="738" type="curve" smooth="yes"/>
      <point x="334" y="738"/>
      <point x="218" y="412"/>
      <point x="218" y="195" type="curve" smooth="yes"/>
      <point x="218" y="93"/>
      <point x="243" y="7"/>
      <point x="332" y="7" type="curve" smooth="yes"/>
      <point x="421" y="7"/>
      <point x="469" y="83"/>
      <point x="494" y="125" type="curve"/>
    </contour>
    <contour>
      <point x="438" y="292" type="line"/>
      <point x="758" y="292" type="line"/>
      <point x="758" y="278" type="line"/>
      <point x="438" y="278" type="line"/>
    </contour>
    <contour>
      <point x="770" y="750" type="line"/>
      <point x="780" y="750" type="line"/>
      <point x="730" y="530" type="line"/>
      <point x="716" y="530" type="line"/>
      <point x="716" y="582" type="line"/>
      <point x="715" y="596"/>
      <point x="682" y="672"/>
      <point x="672" y="684" type="curve"/>
    </contour>
  </outline>
</glyph>
<glyph name="H" format="2">
  <advance width="777"/>
  <unicode hex="0048"/>
  <outline>
    <contour>
      <point x="382" y="14" type="line"/>
      <point x="708" y="14" type="line"/>
      <point x="708" y="0" type="line"/>
      <point x="382" y="0" type="line"/>
    </contour>
    <contour>
      <point x="548" y="750" type="line"/>
      <point x="872" y="750" type="line"/>
      <point x="872" y="736" type="line"/>
      <point x="548" y="736" type="line"/>
    </contour>
    <contour>
      <point x="632" y="750" type="line"/>
      <point x="788" y="750" type="line"/>
      <point x="618" y="0" type="line"/>
      <point x="462" y="0" type="line"/>
    </contour>
    <contour>
      <point x="-42" y="14" type="line"/>
      <point x="282" y="14" type="line"/>
      <point x="282" y="0" type="line"/>
      <point x="-42" y="0" type="line"/>
    </contour>
    <contour>
      <point x="122" y="750" type="line"/>
      <point x="448" y="750" type="line"/>
      <point x="448" y="736" type="line"/>
      <point x="122" y="736" type="line"/>
    </contour>
    <contour>
      <point x="212" y="750" type="line"/>
      <point x="368" y="750" type="line"/>
      <point x="198" y="0" type="line"/>
      <point x="42" y="0" type="line"/>
    </contour>
    <contour>
      <point x="210" y="377" type="line"/>
      <point x="570" y="377" type="line"/>
      <point x="570" y="363" type="line"/>
      <point x="210" y="363" type="line"/>
    </contour>
  </outline>
</glyph>
<glyph name="J" format="2">
  <advance width="523"/>
  <unicode hex="004A"/>
  <outline>
    <contour>
      <point x="228" y="750" type="line"/>
      <point x="618" y="750" type="line"/>
      <point x="618" y="736" type="line"/>
      <point x="228" y="736" type="line"/>
    </contour>
    <contour>
      <point x="6" y="49" type="curve"/>
      <point x="16" y="21"/>
      <point x="52" y="-15"/>
      <point x="108" y="-15" type="curve" smooth="yes"/>
      <point x="169" y="-15"/>
      <point x="204" y="50"/>
      <point x="236" y="190" type="curve" smooth="yes"/>
      <point x="364" y="750" type="line"/>
      <point x="518" y="750" type="line"/>
      <point x="388" y="169" type="line"/>
      <point x="323" y="74"/>
      <point x="245" y="-30"/>
      <point x="124" y="-30" type="curve" smooth="yes"/>
      <point x="27" y="-30"/>
      <point x="-32" y="35"/>
      <point x="-32" y="105" type="curve" smooth="yes"/>
      <point x="-32" y="157"/>
      <point x="5" y="200"/>
      <point x="60" y="200" type="curve" smooth="yes"/>
      <point x="105" y="200"/>
      <point x="146" y="167"/>
      <point x="146" y="111" type="curve" smooth="yes"/>
      <point x="146" y="57"/>
      <point x="102" y="23"/>
      <point x="54" y="23" type="curve" smooth="yes"/>
      <point x="35" y="23"/>
      <point x="14" y="34"/>
    </contour>
  </outline>
</glyph>
<glyph name="K" format="2">
  <advance width="6072"/>
  <unicode hex="004B"/>
  <outline>
    <contour>
      <point x="-336" y="112" type="line"/>
      <point x="2256" y="112" type="line"/>
      <point x="2256" y="0" type="line"/>
      <point x="-336" y="0" type="line"/>
    </contour>
    <contour>
      <point x="976" y="6000" type="line"/>
      <point x="3664" y="6000" type="line"/>
      <point x="3664" y="5888" type="line"/>
      <point x="976" y="5888" type="line"/>
    </contour>
    <contour>
      <point x="1696" y="6000" type="line"/>
      <point x="2944" y="6000" type="line"/>
      <point x="1584" y="0" type="line"/>
      <point x="336" y="0" type="line"/>
    </contour>
    <contour>
      <point x="1296" y="1736" type="line"/>
      <point x="1096" y="1736" type="line"/>
      <point x="5648" y="5984" type="line"/>
      <point x="5840" y="5984" type="line"/>
    </contour>
    <contour>
      <point x="2720" y="112" type="line"/>
      <point x="5584" y="112" type="line"/>
      <point x="5584" y="0" type="line"/>
      <point x="2720" y="0" type="line"/>
    </contour>
    <contour>
      <point x="6560" y="5888" type="line"/>
      <point x="4640" y="5888" type="line"/>
      <point x="4640" y="6000" type="line"/>
      <point x="6560" y="6000" type="line"/>
    </contour>
    <contour>
      <point x="4944" y="0" type="line"/>
      <point x="3552" y="0" type="line"/>
      <point x="2528" y="3024" type="line"/>
      <point x="3544" y="3912" type="line"/>
    </contour>
  </outline>
</glyph>
<glyph name="L" format="2">
  <advance width="2485"/>
  <unicode hex="004C"/>
  <outline>
    <contour>
      <point x="866" y="3072" type="line"/>
      <point x="1502" y="3072" type="line"/>
      <point x="788" y="0" type="line"/>
      <point x="154" y="0" type="line"/>
    </contour>
    <contour>
      <point x="498" y="3072" type="line"/>
      <point x="1870" y="3072" type="line"/>
      <point x="1870" y="3015" type="line"/>
      <point x="498" y="3015" type="line"/>
    </contour>
    <contour>
      <point x="2150" y="0" type="line"/>
      <point x="-194" y="0" type="line"/>
      <point x="-194" y="57" type="line"/>
      <point x="1208" y="57" type="line" smooth="yes"/>
      <point x="1851" y="57"/>
      <point x="2126" y="402"/>
      <point x="2306" y="922" type="curve"/>
      <point x="2364" y="922" type="line"/>
    </contour>
  </outline>
</glyph>
<glyph name="M" format="2">
  <advance width="892"/>
  <unicode hex="004D"/>
  <outline>
    <contour>
      <point x="518" y="14" type="line"/>
      <point x="822" y="14" type="line"/>
      <point x="822" y="0" type="line"/>
      <point x="518" y="0" type="line"/>
    </contour>
    <contour>
      <point x="899" y="736" type="line"/>
      <point x="742" y="0" type="line"/>
      <point x="588" y="0" type="line"/>
      <point x="748" y="750" type="line"/>
      <point x="962" y="750" type="line"/>
      <point x="962" y="736" type="line"/>
    </contour>
    <contour>
      <point x="444" y="214" type="line"/>
      <point x="740" y="750" type="line"/>
      <point x="756" y="750" type="line"/>
      <point x="336" y="-10" type="line"/>
      <point x="318" y="-10" type="line"/>
      <point x="200" y="750" type="line"/>
      <point x="356" y="750" type="line"/>
    </contour>
    <contour>
      <point x="196" y="736" type="line"/>
      <point x="122" y="736" type="line"/>
      <point x="122" y="750" type="line"/>
      <point x="214" y="750" type="line"/>
      <point x="54" y="0" type="line"/>
      <point x="38" y="0" type="line"/>
    </contour>
    <contour>
      <point x="-28" y="14" type="line"/>
      <point x="132" y="14" type="line"/>
      <point x="132" y="0" type="line"/>
      <point x="-28" y="0" type="line"/>
    </contour>
  </outline>
</glyph>
<glyph name="N" format="2">
  <advance width="5936"/>
  <unicode hex="004E"/>
  <outline>
    <contour>
      <point x="5792" y="6000" type="line"/>
      <point x="5912" y="6000" type="line"/>
      <point x="4528" y="-80" type="line"/>
      <point x="4320" y="-80" type="line"/>
      <point x="1776" y="6000" type="line"/>
      <point x="3264" y="6000" type="line"/>
      <point x="4896" y="2064" type="line"/>
    </contour>
    <contour>
      <point x="4832" y="6000" type="line"/>
      <point x="6704" y="6000" type="line"/>
      <point x="6704" y="5888" type="line"/>
      <point x="4832" y="5888" type="line"/>
    </contour>
    <contour>
      <point x="-304" y="112" type="line"/>
      <point x="1568" y="112" type="line"/>
      <point x="1568" y="0" type="line"/>
      <point x="-304" y="0" type="line"/>
    </contour>
    <contour>
      <point x="1792" y="5888" type="line"/>
      <point x="976" y="5888" type="line"/>
      <point x="976" y="6000" type="line"/>
      <point x="1928" y="6000" type="line"/>
      <point x="576" y="0" type="line"/>
      <point x="464" y="0" type="line"/>
    </contour>
  </outline>
</glyph>
<glyph name="N" format="1">
  <advance width="742"/>
  <unicode hex="004E"/>
  <outline>
    <contour>
      <point x="724" y="750" type="line"/>
      <point x="739" y="750" type="line"/>
      <point x="566" y="-10" type="line"/>
      <point x="540" y="-10" type="line"/>
      <point x="222" y="750" type="line"/>
      <point x="408" y="750" type="line"/>
      <point x="612" y="258" type="line"/>
    </contour>
    <contour>
      <point x="604" y="750" type="line"/>
      <point x="838" y="750" type="line"/>
      <point x="838" y="736" type="line"/>
      <point x="604" y="736" type="line"/>
    </contour>
    <contour>
      <point x="-38" y="14" type="line"/>
      <point x="196" y="14" type="line"/>
      <point x="196" y="0" type="line"/>
      <point x="-38" y="0" type="line"/>
    </contour>
    <contour>
      <point x="224" y="736" type="line"/>
      <point x="122" y="736" type="line"/>
      <point x="122" y="750" type="line"/>
      <point x="241" y="750" type="line"/>
      <point x="72" y="0" type="line"/>
      <point x="58" y="0" type="line"/>
    </contour>
  </outline>
</glyph>
<glyph name="R" format="2">
  <advance width="6136"/>
  <unicode hex="0052"/>
  <outline>
    <contour>
      <point x="5536" y="96" type="line"/>
      <point x="5248" y="-16"/>
      <point x="4992" y="-64"/>
      <point x="4624" y="-64" type="curve" smooth="yes"/>
      <point x="2400" y="-64"/>
      <point x="4784" y="3024"/>
      <point x="2816" y="3024" type="curve" smooth="yes"/>
      <point x="2176" y="3024" type="line"/>
      <point x="2176" y="3080" type="line"/>
      <point x="3184" y="3080" type="line" smooth="yes"/>
      <point x="6128" y="3080"/>
      <point x="4216" y="104"/>
      <point x="5120" y="104" type="curve" smooth="yes"/>
      <point x="5272" y="104"/>
      <point x="5384" y="152"/>
      <point x="5504" y="200" type="curve"/>
    </contour>
    <contour>
      <point x="1856" y="6000" type="line"/>
      <point x="3104" y="6000" type="line"/>
      <point x="1696" y="0" type="line"/>
      <point x="464" y="0" type="line"/>
    </contour>
    <contour>
      <point x="-304" y="112" type="line"/>
      <point x="2576" y="112" type="line"/>
      <point x="2576" y="0" type="line"/>
      <point x="-304" y="0" type="line"/>
    </contour>
    <contour>
      <point x="3184" y="3064" type="curve" smooth="yes"/>
      <point x="2176" y="3064" type="line"/>
      <point x="2176" y="3136" type="line"/>
      <point x="2976" y="3136" type="line" smooth="yes"/>
      <point x="4104" y="3136"/>
      <point x="4520" y="4288"/>
      <point x="4520" y="5000" type="curve" smooth="yes"/>
      <point x="4520" y="5392"/>
      <point x="4400" y="5888"/>
      <point x="3696" y="5888" type="curve" smooth="yes"/>
      <point x="1024" y="5888" type="line"/>
      <point x="1024" y="6000" type="line"/>
      <point x="3984" y="6000" type="line" smooth="yes"/>
      <point x="5032" y="6000"/>
      <point x="5824" y="5680"/>
      <point x="5824" y="4800" type="curve" smooth="yes"/>
      <point x="5824" y="3680"/>
      <point x="4792" y="3064"/>
    </contour>
  </outline>
</glyph>
<glyph name="S" format="2">
  <advance width="4744"/>
  <unicode hex="0053"/>
  <outline>
    <contour>
      <point x="4480" y="4752" type="line"/>
      <point x="4448" y="4888"/>
      <point x="4208" y="5440"/>
      <point x="4112" y="5568" type="curve"/>
      <point x="4944" y="6080" type="line"/>
      <point x="5024" y="6080" type="line"/>
      <point x="4624" y="4280" type="line"/>
      <point x="4512" y="4280" type="line"/>
    </contour>
    <contour>
      <point x="4624" y="4280" type="curve"/>
      <point x="4512" y="4280" type="line"/>
      <point x="4392" y="5208"/>
      <point x="3920" y="5952"/>
      <point x="3040" y="5952" type="curve" smooth="yes"/>
      <point x="2472" y="5952"/>
      <point x="1888" y="5568"/>
      <point x="1888" y="4992" type="curve" smooth="yes"/>
      <point x="1888" y="3680"/>
      <point x="4384" y="4040"/>
      <point x="4384" y="2000" type="curve" smooth="yes"/>
      <point x="4384" y="880"/>
      <point x="3336" y="-120"/>
      <point x="2048" y="-120" type="curve" smooth="yes"/>
      <point x="800" y="-120"/>
      <point x="376" y="840"/>
      <point x="240" y="1800" type="curve"/>
      <point x="352" y="1800" type="line"/>
      <point x="472" y="968"/>
      <point x="888" y="8"/>
      <point x="1984" y="8" type="curve" smooth="yes"/>
      <point x="2792" y="8"/>
      <point x="3360" y="480"/>
      <point x="3360" y="1168" type="curve" smooth="yes"/>
      <point x="3360" y="2720"/>
      <point x="880" y="2240"/>
      <point x="880" y="4120" type="curve" smooth="yes"/>
      <point x="880" y="5400"/>
      <point x="2088" y="6080"/>
      <point x="2976" y="6080" type="curve" smooth="yes"/>
      <point x="4000" y="6080"/>
      <point x="4504" y="5328"/>
    </contour>
    <contour>
      <point x="-96" y="-80" type="line"/>
      <point x="-176" y="-80" type="line"/>
      <point x="240" y="1800" type="line"/>
      <point x="352" y="1800" type="line"/>
      <point x="432" y="1216" type="line"/>
      <point x="464" y="1072"/>
      <point x="688" y="576"/>
      <point x="768" y="480" type="curve"/>
    </contour>
  </outline>
</glyph>
<glyph name="T" format="2">
  <advance width="672"/>
  <unicode hex="0054"/>
  <outline>
    <contour>
      <point x="96" y="14" type="line"/>
      <point x="471" y="14" type="line"/>
      <point x="471" y="0" type="line"/>
      <point x="96" y="0" type="line"/>
    </contour>
    <contour>
      <point x="372" y="750" type="line"/>
      <point x="527" y="750" type="line"/>
      <point x="353" y="0" type="line"/>
      <point x="198" y="0" type="line"/>
    </contour>
    <contour>
      <point x="587" y="736" type="curve" smooth="yes"/>
      <point x="302" y="736" type="line" smooth="yes"/>
      <point x="195" y="736"/>
      <point x="130" y="636"/>
      <point x="86" y="510" type="curve"/>
      <point x="72" y="510" type="line"/>
      <point x="127" y="750" type="line"/>
      <point x="772" y="750" type="line"/>
      <point x="718" y="510" type="line"/>
      <point x="704" y="510" type="line"/>
      <point x="718" y="637"/>
      <point x="694" y="736"/>
    </contour>
  </outline>
</glyph>
<glyph name="U" format="2">
  <advance width="5680"/>
  <unicode hex="0055"/>
  <outline>
    <contour>
      <point x="4880" y="6000" type="line"/>
      <point x="6448" y="6000" type="line"/>
      <point x="6448" y="5888" type="line"/>
      <point x="4880" y="5888" type="line"/>
    </contour>
    <contour>
      <point x="960" y="6000" type="line"/>
      <point x="3728" y="6000" type="line"/>
      <point x="3728" y="5888" type="line"/>
      <point x="960" y="5888" type="line"/>
    </contour>
    <contour>
      <point x="5664" y="6000" type="line"/>
      <point x="5776" y="6000" type="line"/>
      <point x="4816" y="1840" type="line" smooth="yes"/>
      <point x="4528" y="584"/>
      <point x="3824" y="-120"/>
      <point x="2560" y="-120" type="curve" smooth="yes"/>
      <point x="1256" y="-120"/>
      <point x="464" y="528"/>
      <point x="768" y="1840" type="curve" smooth="yes"/>
      <point x="1728" y="6000" type="line"/>
      <point x="2960" y="6000" type="line"/>
      <point x="2000" y="1920" type="line" smooth="yes"/>
      <point x="1768" y="920"/>
      <point x="1872" y="64"/>
      <point x="2864" y="64" type="curve" smooth="yes"/>
      <point x="3744" y="64"/>
      <point x="4432" y="664"/>
      <point x="4704" y="1840" type="curve" smooth="yes"/>
    </contour>
  </outline>
</glyph>
<glyph name="U" format="1">
  <advance width="710"/>
  <unicode hex="0055"/>
  <outline>
    <contour>
      <point x="610" y="750" type="line"/>
      <point x="806" y="750" type="line"/>
      <point x="806" y="736" type="line"/>
      <point x="610" y="736" type="line"/>
    </contour>
    <contour>
      <point x="120" y="750" type="line"/>
      <point x="466" y="750" type="line"/>
      <point x="466" y="736" type="line"/>
      <point x="120" y="736" type="line"/>
    </contour>
    <contour>
      <point x="708" y="750" type="line"/>
      <point x="722" y="750" type="line"/>
      <point x="602" y="230" type="line" smooth="yes"/>
      <point x="566" y="73"/>
      <point x="478" y="-15"/>
      <point x="320" y="-15" type="curve" smooth="yes"/>
      <point x="157" y="-15"/>
      <point x="58" y="66"/>
      <point x="96" y="230" type="curve" smooth="yes"/>
      <point x="216" y="750" type="line"/>
      <point x="370" y="750" type="line"/>
      <point x="250" y="240" type="line" smooth="yes"/>
      <point x="221" y="115"/>
      <point x="234" y="8"/>
      <point x="358" y="8" type="curve" smooth="yes"/>
      <point x="468" y="8"/>
      <point x="554" y="83"/>
      <point x="588" y="230" type="curve" smooth="yes"/>
    </contour>
  </outline>
</glyph>
<glyph name="V" format="1">
  <advance width="767"/>
  <unicode hex="0056"/>
  <outline>
    <contour>
      <point x="868" y="736" type="line"/>
      <point x="648" y="736" type="line"/>
      <point x="648" y="750" type="line"/>
      <point x="868" y="750" type="line"/>
    </contour>
    <contour>
      <point x="468" y="736" type="line"/>
      <point x="118" y="736" type="line"/>
      <point x="118" y="750" type="line"/>
      <point x="468" y="750" type="line"/>
    </contour>
    <contour>
      <point x="415" y="136" type="line"/>
      <point x="769" y="750" type="line"/>
      <point x="786" y="750" type="line"/>
      <point x="346" y="-12" type="line"/>
      <point x="282" y="-12" type="line"/>
      <point x="188" y="750" type="line"/>
      <point x="352" y="750" type="line"/>
    </contour>
  </outline>
</glyph>
<glyph name="W" format="2">
  <advance width="4486"/>
  <unicode hex="0057"/>
  <outline>
    <contour>
      <point x="1818" y="694" type="line"/>
      <point x="2488" y="1831" type="line"/>
      <point x="2554" y="1831" type="line"/>
      <point x="1456" y="-41" type="line"/>
      <point x="1220" y="-41" type="line"/>
      <point x="817" y="3072" type="line"/>
      <point x="1528" y="3072" type="line"/>
    </contour>
    <contour>
      <point x="2778" y="1708" type="line"/>
      <point x="2712" y="1708" type="line"/>
      <point x="3520" y="3072" type="line"/>
      <point x="3586" y="3072" type="line"/>
    </contour>
    <contour>
      <point x="4896" y="3015" type="line"/>
      <point x="4098" y="3015" type="line"/>
      <point x="4098" y="3072" type="line"/>
      <point x="4896" y="3072" type="line"/>
    </contour>
    <contour>
      <point x="3922" y="3015" type="line"/>
      <point x="482" y="3015" type="line"/>
      <point x="482" y="3072" type="line"/>
      <point x="3922" y="3072" type="line"/>
    </contour>
    <contour>
      <point x="3076" y="692" type="line"/>
      <point x="4489" y="3072" type="line"/>
      <point x="4555" y="3072" type="line"/>
      <point x="2710" y="-41" type="line"/>
      <point x="2536" y="-41" type="line"/>
      <point x="2132" y="3072" type="line"/>
      <point x="2778" y="3072" type="line"/>
    </contour>
  </outline>
</glyph>
<glyph name="X" format="2">
  <advance width="777"/>
  <unicode hex="0058"/>
  <outline>
    <contour>
      <point x="428" y="377" type="line"/>
      <point x="406" y="377" type="line"/>
      <point x="726" y="748" type="line"/>
      <point x="746" y="748" type="line"/>
    </contour>
    <contour>
      <point x="60" y="0" type="line"/>
      <point x="39" y="0" type="line"/>
      <point x="410" y="417" type="line"/>
      <point x="430" y="417" type="line"/>
    </contour>
    <contour>
      <point x="378" y="14" type="line"/>
      <point x="718" y="14" type="line"/>
      <point x="718" y="0" type="line"/>
      <point x="378" y="0" type="line"/>
    </contour>
    <contour>
      <point x="-52" y="14" type="line"/>
      <point x="188" y="14" type="line"/>
      <point x="188" y="0" type="line"/>
      <point x="-52" y="0" type="line"/>
    </contour>
    <contour>
      <point x="492" y="736" type="line"/>
      <point x="152" y="736" type="line"/>
      <point x="152" y="750" type="line"/>
      <point x="492" y="750" type="line"/>
    </contour>
    <contour>
      <point x="838" y="736" type="line"/>
      <point x="618" y="736" type="line"/>
      <point x="618" y="750" type="line"/>
      <point x="838" y="750" type="line"/>
    </contour>
    <contour>
      <point x="648" y="0" type="line"/>
      <point x="474" y="0" type="line"/>
      <point x="222" y="750" type="line"/>
      <point x="394" y="750" type="line"/>
    </contour>
  </outline>
</glyph>
<glyph name="Y" format="2">
  <advance width="6016"/>
  <unicode hex="0059"/>
  <outline>
    <contour>
      <point x="6816" y="5888" type="line"/>
      <point x="5136" y="5888" type="line"/>
      <point x="5136" y="6000" type="line"/>
      <point x="6816" y="6000" type="line"/>
    </contour>
    <contour>
      <point x="3752" y="5888" type="line"/>
      <point x="944" y="5888" type="line"/>
      <point x="944" y="6000" type="line"/>
      <point x="3752" y="6000" type="line"/>
    </contour>
    <contour>
      <point x="1216" y="112" type="line"/>
      <point x="3984" y="112" type="line"/>
      <point x="3984" y="0" type="line"/>
      <point x="1216" y="0" type="line"/>
    </contour>
    <contour>
      <point x="3856" y="3216" type="line"/>
      <point x="6040" y="5984" type="line"/>
      <point x="6200" y="5984" type="line"/>
      <point x="3856" y="3008" type="line"/>
      <point x="3184" y="0" type="line"/>
      <point x="1936" y="0" type="line"/>
      <point x="2624" y="3016" type="line"/>
      <point x="1504" y="6000" type="line"/>
      <point x="2912" y="6000" type="line"/>
    </contour>
  </outline>
</glyph>
<glyph name="Z" format="2">
  <advance width="4848"/>
  <unicode hex="005A"/>
  <outline>
    <contour>
      <point x="3832" y="5888" type="line"/>
      <point x="2736" y="5888" type="line" smooth="yes"/>
      <point x="1640" y="5888"/>
      <point x="1216" y="5376"/>
      <point x="856" y="4520" type="curve"/>
      <point x="744" y="4520" type="line"/>
      <point x="1088" y="6000" type="line"/>
      <point x="5376" y="6000" type="line"/>
      <point x="5376" y="5888" type="line"/>
      <point x="1120" y="112" type="line"/>
      <point x="2464" y="112" type="line" smooth="yes"/>
      <point x="3560" y="112"/>
      <point x="3936" y="632"/>
      <point x="4368" y="1640" type="curve"/>
      <point x="4480" y="1640" type="line"/>
      <point x="4096" y="0" type="line"/>
      <point x="-416" y="0" type="line"/>
      <point x="-416" y="112" type="line"/>
    </contour>
  </outline>
</glyph>
<glyph name="Z" format="1">
  <advance width="606"/>
  <unicode hex="005A"/>
  <outline>
    <contour>
      <point x="479" y="736" type="line"/>
      <point x="342" y="736" type="line" smooth="yes"/>
      <point x="205" y="736"/>
      <point x="152" y="672"/>
      <point x="107" y="565" type="curve"/>
      <point x="93" y="565" type="line"/>
      <point x="136" y="750" type="line"/>
      <point x="672" y="750" type="line"/>
      <point x="672" y="736" type="line"/>
      <point x="140" y="14" type="line"/>
      <point x="308" y="14" type="line" smooth="yes"/>
      <point x="445" y="14"/>
      <point x="492" y="79"/>
      <point x="546" y="205" type="curve"/>
      <point x="560" y="205" type="line"/>
      <point x="512" y="0" type="line"/>
      <point x="-52" y="0" type="line"/>
      <point x="-52" y="14" type="line"/>
    </contour>
  </outline>
</glyph>
<glyph name="grave" format="2">
  <advance width="1658"/>
  <unicode hex="0060"/>
  <outline>
    <contour>
      <point x="1040" y="2867" type="line" smooth="yes"/>
      <point x="900" y="2849"/>
      <point x="774" y="2952"/>
      <point x="774" y="3092" type="curve" smooth="yes"/>
      <point x="774" y="3232"/>
      <point x="921" y="3370"/>
      <point x="1081" y="3310" type="curve" smooth="yes"/>
      <point x="1996" y="2998" type="line"/>
      <point x="1982" y="2940" type="line"/>
    </contour>
  </outline>
</glyph>
<glyph name="a" format="2">
  <advance width="646"/>
  <unicode hex="0061"/>
  <outline>
    <contour>
      <point x="378" y="314" type="curve" smooth="yes"/>
      <point x="378" y="377"/>
      <point x="357" y="424"/>
      <point x="322" y="424" type="curve" smooth="yes"/>
      <point x="253" y="424"/>
      <point x="172" y="262"/>
      <point x="172" y="128" type="curve" smooth="yes"/>
      <point x="172" y="70"/>
      <point x="191" y="32"/>
      <point x="227" y="32" type="curve" smooth="yes"/>
      <point x="311" y="32"/>
      <point x="378" y="208"/>
    </contour>
    <contour>
      <point x="390" y="314" type="curve" smooth="yes"/>
      <point x="390" y="206"/>
      <point x="318" y="-10"/>
      <point x="177" y="-10" type="curve" smooth="yes"/>
      <point x="108" y="-10"/>
      <point x="18" y="30"/>
      <point x="18" y="160" type="curve" smooth="yes"/>
      <point x="18" y="360"/>
      <point x="175" y="470"/>
      <point x="279" y="470" type="curve" smooth="yes"/>
      <point x="355" y="470"/>
      <point x="390" y="406"/>
    </contour>
    <contour>
      <point x="623" y="163" type="line"/>
      <point x="585" y="63"/>
      <point x="516" y="-10"/>
      <point x="420" y="-10" type="curve" smooth="yes"/>
      <point x="358" y="-10"/>
      <point x="336" y="18"/>
      <point x="336" y="68" type="curve" smooth="yes"/>
      <point x="336" y="73"/>
      <point x="336" y="86"/>
      <point x="338" y="92" type="curve" smooth="yes"/>
      <point x="358" y="182" type="line"/>
      <point x="380" y="257" type="line"/>
      <point x="386" y="313" type="line"/>
      <point x="424" y="460" type="line"/>
      <point x="561" y="460" type="line"/>
      <point x="458" y="59" type="line" smooth="yes"/>
      <point x="457" y="53"/>
      <point x="456" y="46"/>
      <point x="456" y="41" type="curve" smooth="yes"/>
      <point x="456" y="30"/>
      <point x="461" y="22"/>
      <point x="474" y="22" type="curve" smooth="yes"/>
      <point x="526" y="22"/>
      <point x="584" y="95"/>
      <point x="610" y="167" type="curve"/>
    </contour>
  </outline>
</glyph>
<glyph name="b" format="2">
  <advance width="2514"/>
  <unicode hex="0062"/>
  <outline>
    <contour>
      <point x="856" y="3015" type="line"/>
      <point x="549" y="3015" type="line"/>
      <point x="549" y="3072" type="line"/>
      <point x="1442" y="3072" type="line"/>
      <point x="844" y="471" type="line"/>
      <point x="844" y="229"/>
      <point x="903" y="20"/>
      <point x="1071" y="20" type="curve" smooth="yes"/>
      <point x="1395" y="20"/>
      <point x="1749" y="819"/>
      <point x="1749" y="1368" type="curve" smooth="yes"/>
      <point x="1749" y="1589"/>
      <point x="1672" y="1749"/>
      <point x="1524" y="1749" type="curve" smooth="yes"/>
      <point x="1305" y="1749"/>
      <point x="1061" y="1417"/>
      <point x="950" y="942" type="curve"/>
      <point x="922" y="942" type="line"/>
      <point x="1076" y="1647"/>
      <point x="1405" y="1921"/>
      <point x="1737" y="1921" type="curve" smooth="yes"/>
      <point x="2011" y="1921"/>
      <point x="2380" y="1794"/>
      <point x="2380" y="1270" type="curve" smooth="yes"/>
      <point x="2380" y="410"/>
      <point x="1733" y="-41"/>
      <point x="1061" y="-41" type="curve" smooth="yes"/>
      <point x="729" y="-41"/>
      <point x="463" y="152"/>
      <point x="279" y="492" type="curve"/>
    </contour>
  </outline>
</glyph>
<glyph name="c" format="2">
  <advance width="4000"/>
  <unicode hex="0063"/>
  <outline>
    <contour>
      <point x="3592" y="3104" type="curve"/>
      <point x="3488" y="3376"/>
      <point x="3192" y="3632"/>
      <point x="2760" y="3632" type="curve" smooth="yes"/>
      <point x="1848" y="3632"/>
      <point x="1376" y="2072"/>
      <point x="1376" y="1080" type="curve" smooth="yes"/>
      <point x="1376" y="408"/>
      <point x="1536" y="136"/>
      <point x="1888" y="136" type="curve" smooth="yes"/>
      <point x="2320" y="136"/>
      <point x="2864" y="440"/>
      <point x="3312" y="1144" type="curve"/>
      <point x="3416" y="1144" type="line"/>
      <point x="2968" y="368"/>
      <point x="2304" y="-80"/>
      <point x="1496" y="-80" type="curve" smooth="yes"/>
      <point x="848" y="-80"/>
      <point x="144" y="240"/>
      <point x="144" y="1240" type="curve" smooth="yes"/>
      <point x="144" y="2760"/>
      <point x="1360" y="3760"/>
      <point x="2568" y="3760" type="curve" smooth="yes"/>
      <point x="3304" y="3760"/>
      <point x="3856" y="3368"/>
      <point x="3856" y="2752" type="curve" smooth="yes"/>
      <point x="3856" y="2304"/>
      <point x="3560" y="2032"/>
      <point x="3200" y="2032" type="curve" smooth="yes"/>
      <point x="2880" y="2032"/>
      <point x="2544" y="2240"/>
      <point x="2544" y="2640" type="curve" smooth="yes"/>
      <point x="2544" y="3040"/>
      <point x="2896" y="3264"/>
      <point x="3168" y="3264" type="curve" smooth="yes"/>
      <point x="3400" y="3264"/>
      <point x="3544" y="3176"/>
    </contour>
  </outline>
</glyph>
<glyph name="d" format="2">
  <advance width="656"/>
  <unicode hex="0064"/>
  <outline>
    <contour>
      <point x="634" y="163" type="line"/>
      <point x="596" y="63"/>
      <point x="528" y="-10"/>
      <point x="432" y="-10" type="curve" smooth="yes"/>
      <point x="370" y="-10"/>
      <point x="338" y="13"/>
      <point x="338" y="73" type="curve" smooth="yes"/>
      <point x="338" y="78"/>
      <point x="339" y="89"/>
      <point x="340" y="95" type="curve" smooth="yes"/>
      <point x="358" y="182" type="line"/>
      <point x="380" y="258" type="line"/>
      <point x="386" y="312" type="line"/>
      <point x="484" y="736" type="line"/>
      <point x="392" y="736" type="line"/>
      <point x="392" y="750" type="line"/>
      <point x="626" y="750" type="line"/>
      <point x="470" y="59" type="line" smooth="yes"/>
      <point x="469" y="53"/>
      <point x="468" y="46"/>
      <point x="468" y="41" type="curve" smooth="yes"/>
      <point x="468" y="30"/>
      <point x="472" y="21"/>
      <point x="486" y="21" type="curve" smooth="yes"/>
      <point x="537" y="21"/>
      <point x="596" y="94"/>
      <point x="622" y="167" type="curve"/>
    </contour>
    <contour>
      <point x="378" y="314" type="curve" smooth="yes"/>
      <point x="378" y="377"/>
      <point x="357" y="424"/>
      <point x="322" y="424" type="curve" smooth="yes"/>
      <point x="253" y="424"/>
      <point x="172" y="262"/>
      <point x="172" y="128" type="curve" smooth="yes"/>
      <point x="172" y="70"/>
      <point x="191" y="32"/>
      <point x="227" y="32" type="curve" smooth="yes"/>
      <point x="311" y="32"/>
      <point x="378" y="208"/>
    </contour>
    <contour>
      <point x="390" y="314" type="curve" smooth="yes"/>
      <point x="390" y="206"/>
      <point x="318" y="-10"/>
      <point x="177" y="-10" type="curve" smooth="yes"/>
      <point x="108" y="-10"/>
      <point x="18" y="30"/>
      <point x="18" y="160" type="curve" smooth="yes"/>
      <point x="18" y="360"/>
      <point x="175" y="470"/>
      <point x="276" y="470" type="curve" smooth="yes"/>
      <point x="352" y="470"/>
      <point x="390" y="406"/>
    </contour>
  </outline>
</glyph>
<glyph name="e" format="2">
  <advance width="4120"/>
  <unicode hex="0065"/>
  <outline>
    <contour>
      <point x="1376" y="928" type="curve" smooth="yes"/>
      <point x="1376" y="456"/>
      <point x="1528" y="112"/>
      <point x="1920" y="112" type="curve" smooth="yes"/>
      <point x="2496" y="112"/>
      <point x="3120" y="568"/>
      <point x="3472" y="1144" type="curve"/>
      <point x="3576" y="1144" type="line"/>
      <point x="3224" y="528"/>
      <point x="2504" y="-80"/>
      <point x="1616" y="-80" type="curve" smooth="yes"/>
      <point x="848" y="-80"/>
      <point x="144" y="280"/>
      <point x="144" y="1240" type="curve" smooth="yes"/>
      <point x="144" y="2744"/>
      <point x="1424" y="3760"/>
      <point x="2592" y="3760" type="curve" smooth="yes"/>
      <point x="3368" y="3760"/>
      <point x="3976" y="3512"/>
      <point x="3976" y="2936" type="curve" smooth="yes"/>
      <point x="3976" y="1784"/>
      <point x="2152" y="1656"/>
      <point x="1264" y="1656" type="curve"/>
      <point x="1264" y="1752" type="line"/>
      <point x="1856" y="1752"/>
      <point x="2928" y="1984"/>
      <point x="2928" y="3072" type="curve" smooth="yes"/>
      <point x="2928" y="3368"/>
      <point x="2872" y="3664"/>
      <point x="2648" y="3664" type="curve" smooth="yes"/>
      <point x="2096" y="3664"/>
      <point x="1376" y="2160"/>
    </contour>
  </outline>
</glyph>
<glyph name="f" format="2">
  <advance width="3368"/>
  <unicode hex="0066"/>
  <outline>
    <contour>
      <point x="576" y="3680" type="line"/>
      <point x="3496" y="3680" type="line"/>
      <point x="3496" y="3568" type="line"/>
      <point x="576" y="3568" type="line"/>
    </contour>
    <contour>
      <point x="4304" y="5584" type="curve"/>
      <point x="4216" y="5744"/>
      <point x="3952" y="5960"/>
      <point x="3552" y="5960" type="curve" smooth="yes"/>
      <point x="2992" y="5960"/>
      <point x="2632" y="5296"/>
      <point x="2456" y="4320" type="curve" smooth="yes"/>
      <point x="1664" y="-96" type="line" smooth="yes"/>
      <point x="1440" y="-1376"/>
      <point x="576" y="-2080"/>
      <point x="-464" y="-2080" type="curve" smooth="yes"/>
      <point x="-1232" y="-2080"/>
      <point x="-1624" y="-1584"/>
      <point x="-1624" y="-1168" type="curve" smooth="yes"/>
      <point x="-1624" y="-760"/>
      <point x="-1368" y="-512"/>
      <point x="-1008" y="-512" type="curve" smooth="yes"/>
      <point x="-688" y="-512"/>
      <point x="-360" y="-704"/>
      <point x="-360" y="-1104" type="curve" smooth="yes"/>
      <point x="-360" y="-1504"/>
      <point x="-664" y="-1728"/>
      <point x="-992" y="-1728" type="curve" smooth="yes"/>
      <point x="-1136" y="-1728"/>
      <point x="-1264" y="-1656"/>
      <point x="-1296" y="-1584" type="curve"/>
      <point x="-1216" y="-1744"/>
      <point x="-960" y="-1960"/>
      <point x="-560" y="-1960" type="curve" smooth="yes"/>
      <point x="0" y="-1960"/>
      <point x="376" y="-1296"/>
      <point x="544" y="-320" type="curve" smooth="yes"/>
      <point x="1320" y="4096" type="line" smooth="yes"/>
      <point x="1544" y="5376"/>
      <point x="2424" y="6080"/>
      <point x="3464" y="6080" type="curve" smooth="yes"/>
      <point x="4232" y="6080"/>
      <point x="4624" y="5584"/>
      <point x="4624" y="5168" type="curve" smooth="yes"/>
      <point x="4624" y="4760"/>
      <point x="4376" y="4512"/>
      <point x="4016" y="4512" type="curve" smooth="yes"/>
      <point x="3696" y="4512"/>
      <point x="3360" y="4704"/>
      <point x="3360" y="5104" type="curve" smooth="yes"/>
      <point x="3360" y="5504"/>
      <point x="3664" y="5728"/>
      <point x="3992" y="5728" type="curve" smooth="yes"/>
      <point x="4136" y="5728"/>
      <point x="4272" y="5648"/>
    </contour>
  </outline>
</glyph>
<glyph name="g" format="2">
  <advance width="5096"/>
  <unicode hex="0067"/>
  <outline>
    <contour>
      <point x="1176" y="-176" type="line"/>
      <point x="896" y="-280"/>
      <point x="640" y="-656"/>
      <point x="640" y="-1112" type="curve" smooth="yes"/>
      <point x="640" y="-1640"/>
      <point x="928" y="-1960"/>
      <point x="1616" y="-1960" type="curve" smooth="yes"/>
      <point x="2328" y="-1960"/>
      <point x="3256" y="-1640"/>
      <point x="3256" y="-856" type="curve" smooth="yes"/>
      <point x="3256" y="-424"/>
      <point x="3000" y="-272"/>
      <point x="2560" y="-272" type="curve" smooth="yes"/>
      <point x="2392" y="-272"/>
      <point x="1776" y="-272"/>
      <point x="1600" y="-272" type="curve" smooth="yes"/>
      <point x="880" y="-272"/>
      <point x="304" y="-64"/>
      <point x="304" y="432" type="curve" smooth="yes"/>
      <point x="304" y="1120"/>
      <point x="1280" y="1376"/>
      <point x="2048" y="1376" type="curve"/>
      <point x="2032" y="1320" type="line"/>
      <point x="1768" y="1320"/>
      <point x="1064" y="1216"/>
      <point x="1064" y="896" type="curve" smooth="yes"/>
      <point x="1064" y="720"/>
      <point x="1416" y="672"/>
      <point x="1856" y="672" type="curve" smooth="yes"/>
      <point x="2136" y="672"/>
      <point x="2480" y="680"/>
      <point x="2704" y="680" type="curve" smooth="yes"/>
      <point x="3424" y="680"/>
      <point x="3784" y="352"/>
      <point x="3784" y="-336" type="curve" smooth="yes"/>
      <point x="3784" y="-1464"/>
      <point x="2632" y="-2080"/>
      <point x="1552" y="-2080" type="curve" smooth="yes"/>
      <point x="608" y="-2080"/>
      <point x="-336" y="-1848"/>
      <point x="-336" y="-1184" type="curve" smooth="yes"/>
      <point x="-336" y="-416"/>
      <point x="744" y="-176"/>
      <point x="1104" y="-176" type="curve" smooth="yes"/>
    </contour>
    <contour>
      <point x="5232" y="3064" type="curve" smooth="yes"/>
      <point x="5232" y="2624"/>
      <point x="4960" y="2472"/>
      <point x="4720" y="2472" type="curve" smooth="yes"/>
      <point x="4480" y="2472"/>
      <point x="4224" y="2632"/>
      <point x="4224" y="2976" type="curve" smooth="yes"/>
      <point x="4224" y="3240"/>
      <point x="4424" y="3448"/>
      <point x="4712" y="3448" type="curve" smooth="yes"/>
      <point x="4872" y="3448"/>
      <point x="5024" y="3344"/>
      <point x="5056" y="3272" type="curve"/>
      <point x="4992" y="3504"/>
      <point x="4784" y="3608"/>
      <point x="4544" y="3608" type="curve" smooth="yes"/>
      <point x="4192" y="3608"/>
      <point x="3776" y="3368"/>
      <point x="3416" y="2712" type="curve"/>
      <point x="3320" y="2776" type="line"/>
      <point x="3680" y="3464"/>
      <point x="4184" y="3720"/>
      <point x="4544" y="3720" type="curve" smooth="yes"/>
      <point x="5016" y="3720"/>
      <point x="5232" y="3400"/>
    </contour>
    <contour>
      <point x="1968" y="1392" type="curve" smooth="yes"/>
      <point x="2440" y="1392"/>
      <point x="2800" y="2448"/>
      <point x="2800" y="3120" type="curve" smooth="yes"/>
      <point x="2800" y="3392"/>
      <point x="2720" y="3648"/>
      <point x="2488" y="3648" type="curve" smooth="yes"/>
      <point x="2016" y="3648"/>
      <point x="1656" y="2592"/>
      <point x="1656" y="1920" type="curve" smooth="yes"/>
      <point x="1656" y="1648"/>
      <point x="1736" y="1392"/>
    </contour>
    <contour>
      <point x="1952" y="1280" type="curve" smooth="yes"/>
      <point x="1184" y="1280"/>
      <point x="560" y="1560"/>
      <point x="560" y="2280" type="curve" smooth="yes"/>
      <point x="560" y="3160"/>
      <point x="1504" y="3760"/>
      <point x="2512" y="3760" type="curve" smooth="yes"/>
      <point x="3280" y="3760"/>
      <point x="3888" y="3480"/>
      <point x="3888" y="2760" type="curve" smooth="yes"/>
      <point x="3888" y="1880"/>
      <point x="2960" y="1280"/>
    </contour>
  </outline>
</glyph>
<glyph name="h" format="2">
  <advance width="2563"/>
  <unicode hex="0068"/>
  <outline>
    <contour>
      <point x="1556" y="1256" type="line" smooth="yes"/>
      <point x="1662" y="1569"/>
      <point x="1677" y="1816"/>
      <point x="1530" y="1816" type="curve" smooth="yes"/>
      <point x="1300" y="1816"/>
      <point x="972" y="1336"/>
      <point x="822" y="709" type="curve"/>
      <point x="780" y="709" type="line"/>
      <point x="948" y="1336"/>
      <point x="1200" y="1925"/>
      <point x="1684" y="1925" type="curve" smooth="yes"/>
      <point x="2102" y="1925"/>
      <point x="2272" y="1645"/>
      <point x="2146" y="1262" type="curve" smooth="yes"/>
      <point x="1798" y="213" type="line" smooth="yes"/>
      <point x="1790" y="188"/>
      <point x="1786" y="160"/>
      <point x="1786" y="140" type="curve" smooth="yes"/>
      <point x="1786" y="95"/>
      <point x="1811" y="64"/>
      <point x="1864" y="64" type="curve" smooth="yes"/>
      <point x="2083" y="64"/>
      <point x="2303" y="371"/>
      <point x="2416" y="684" type="curve"/>
      <point x="2470" y="668" type="line"/>
      <point x="2314" y="258"/>
      <point x="2074" y="-41"/>
      <point x="1680" y="-41" type="curve" smooth="yes"/>
      <point x="1406" y="-41"/>
      <point x="1258" y="74"/>
      <point x="1258" y="291" type="curve" smooth="yes"/>
      <point x="1258" y="352"/>
      <point x="1268" y="401"/>
      <point x="1278" y="438" type="curve" smooth="yes"/>
    </contour>
    <contour>
      <point x="788" y="3015" type="line"/>
      <point x="514" y="3015" type="line"/>
      <point x="514" y="3072" type="line"/>
      <point x="1374" y="3072" type="line"/>
      <point x="658" y="0" type="line"/>
      <point x="84" y="0" type="line"/>
    </contour>
  </outline>
</glyph>
<glyph name="i" format="2">
  <advance width="382"/>
  <unicode hex="0069"/>
  <outline>
    <contour>
      <point x="152" y="675" type="curve" smooth="yes"/>
      <point x="152" y="723"/>
      <point x="188" y="760"/>
      <point x="236" y="760" type="curve" smooth="yes"/>
      <point x="284" y="760"/>
      <point x="322" y="723"/>
      <point x="322" y="675" type="curve" smooth="yes"/>
      <point x="322" y="627"/>
      <point x="284" y="590"/>
      <point x="236" y="590" type="curve" smooth="yes"/>
      <point x="188" y="590"/>
      <point x="152" y="627"/>
    </contour>
    <contour>
      <point x="350" y="163" type="line"/>
      <point x="312" y="63"/>
      <point x="242" y="-10"/>
      <point x="146" y="-10" type="curve" smooth="yes"/>
      <point x="84" y="-10"/>
      <point x="53" y="13"/>
      <point x="53" y="73" type="curve" smooth="yes"/>
      <point x="53" y="78"/>
      <point x="53" y="89"/>
      <point x="55" y="95" type="curve" smooth="yes"/>
      <point x="140" y="446" type="line"/>
      <point x="66" y="446" type="line"/>
      <point x="66" y="460" type="line"/>
      <point x="282" y="460" type="line"/>
      <point x="185" y="59" type="line" smooth="yes"/>
      <point x="184" y="53"/>
      <point x="183" y="46"/>
      <point x="183" y="41" type="curve" smooth="yes"/>
      <point x="183" y="30"/>
      <point x="188" y="21"/>
      <point x="201" y="21" type="curve" smooth="yes"/>
      <point x="251" y="21"/>
      <point x="308" y="91"/>
      <point x="336" y="167" type="curve"/>
    </contour>
  </outline>
</glyph>
<glyph name="j" format="2">
  <advance width="1250"/>
  <unicode hex="006A"/>
  <outline>
    <contour>
      <point x="645" y="2764" type="curve" smooth="yes"/>
      <point x="645" y="2960"/>
      <point x="797" y="3113"/>
      <point x="993" y="3113" type="curve" smooth="yes"/>
      <point x="1189" y="3113"/>
      <point x="1342" y="2960"/>
      <point x="1342" y="2764" type="curve" smooth="yes"/>
      <point x="1342" y="2568"/>
      <point x="1189" y="2416"/>
      <point x="993" y="2416" type="curve" smooth="yes"/>
      <point x="797" y="2416"/>
      <point x="645" y="2568"/>
    </contour>
    <contour>
      <point x="-652" y="-793" type="curve"/>
      <point x="-603" y="-899"/>
      <point x="-456" y="-1002"/>
      <point x="-282" y="-1002" type="curve" smooth="yes"/>
      <point x="108" y="-1002"/>
      <point x="82" y="-410"/>
      <point x="197" y="82" type="curve" smooth="yes"/>
      <point x="606" y="1827" type="line"/>
      <point x="229" y="1827" type="line"/>
      <point x="229" y="1884" type="line"/>
      <point x="1182" y="1884" type="line"/>
      <point x="780" y="-49" type="line" smooth="yes"/>
      <point x="674" y="-561"/>
      <point x="270" y="-1065"/>
      <point x="-262" y="-1065" type="curve" smooth="yes"/>
      <point x="-594" y="-1065"/>
      <point x="-828" y="-811"/>
      <point x="-828" y="-598" type="curve" smooth="yes"/>
      <point x="-828" y="-389"/>
      <point x="-656" y="-242"/>
      <point x="-472" y="-242" type="curve" smooth="yes"/>
      <point x="-308" y="-242"/>
      <point x="-160" y="-360"/>
      <point x="-160" y="-532" type="curve" smooth="yes"/>
      <point x="-160" y="-724"/>
      <point x="-320" y="-858"/>
      <point x="-504" y="-858" type="curve" smooth="yes"/>
      <point x="-564" y="-858"/>
      <point x="-619" y="-830"/>
    </contour>
  </outline>
</glyph>
<glyph name="j" format="1">
  <advance width="305"/>
  <unicode hex="006A"/>
  <outline>
    <contour>
      <point x="158" y="675" type="curve" smooth="yes"/>
      <point x="158" y="723"/>
      <point x="194" y="760"/>
      <point x="242" y="760" type="curve" smooth="yes"/>
      <point x="290" y="760"/>
      <point x="328" y="723"/>
      <point x="328" y="675" type="curve" smooth="yes"/>
      <point x="328" y="627"/>
      <point x="290" y="590"/>
      <point x="242" y="590" type="curve" smooth="yes"/>
      <point x="194" y="590"/>
      <point x="158" y="627"/>
    </contour>
    <contour>
      <point x="-159" y="-194" type="curve"/>
      <point x="-147" y="-220"/>
      <point x="-111" y="-244"/>
      <point x="-69" y="-244" type="curve" smooth="yes"/>
      <point x="26" y="-244"/>
      <point x="20" y="-100"/>
      <point x="48" y="20" type="curve" smooth="yes"/>
      <point x="148" y="446" type="line"/>
      <point x="56" y="446" type="line"/>
      <point x="56" y="460" type="line"/>
      <point x="288" y="460" type="line"/>
      <point x="190" y="-12" type="line" smooth="yes"/>
      <point x="164" y="-137"/>
      <point x="66" y="-260"/>
      <point x="-64" y="-260" type="curve" smooth="yes"/>
      <point x="-145" y="-260"/>
      <point x="-202" y="-198"/>
      <point x="-202" y="-146" type="curve" smooth="yes"/>
      <point x="-202" y="-95"/>
      <point x="-160" y="-59"/>
      <point x="-115" y="-59" type="curve" smooth="yes"/>
      <point x="-75" y="-59"/>
      <point x="-39" y="-88"/>
      <point x="-39" y="-130" type="curve" smooth="yes"/>
      <point x="-39" y="-177"/>
      <point x="-78" y="-210"/>
      <point x="-123" y="-210" type="curve" smooth="yes"/>
      <point x="-137" y="-210"/>
      <point x="-151" y="-203"/>
    </contour>
  </outline>
</glyph>
<glyph name="k" format="2">
  <advance width="4960"/>
  <unicode hex="006B"/>
  <outline>
    <contour>
      <point x="4760" y="1304" type="line"/>
      <point x="4456" y="504"/>
      <point x="3944" y="-80"/>
      <point x="3216" y="-80" type="curve" smooth="yes"/>
      <point x="2720" y="-80"/>
      <point x="2416" y="104"/>
      <point x="2416" y="584" type="curve" smooth="yes"/>
      <point x="2416" y="624"/>
      <point x="2424" y="712"/>
      <point x="2432" y="760" type="curve" smooth="yes"/>
      <point x="2504" y="1120" type="line" smooth="yes"/>
      <point x="2600" y="1584"/>
      <point x="2864" y="2168"/>
      <point x="2456" y="2168" type="curve" smooth="yes"/>
      <point x="2072" y="2168"/>
      <point x="1928" y="1808"/>
      <point x="1856" y="1520" type="curve"/>
      <point x="1776" y="1520" type="line"/>
      <point x="1952" y="2208"/>
      <point x="2264" y="2336"/>
      <point x="2712" y="2336" type="curve" smooth="yes"/>
      <point x="3264" y="2336"/>
      <point x="3800" y="2008"/>
      <point x="3560" y="968" type="curve" smooth="yes"/>
      <point x="3424" y="344" type="line" smooth="yes"/>
      <point x="3424" y="328"/>
      <point x="3424" y="288"/>
      <point x="3424" y="272" type="curve" smooth="yes"/>
      <point x="3424" y="184"/>
      <point x="3480" y="144"/>
      <point x="3584" y="144" type="curve" smooth="yes"/>
      <point x="3992" y="144"/>
      <point x="4448" y="744"/>
      <point x="4656" y="1336" type="curve"/>
    </contour>
    <contour>
      <point x="1784" y="2576" type="curve"/>
      <point x="1912" y="2512" type="line"/>
      <point x="1928" y="2208"/>
      <point x="2008" y="2040"/>
      <point x="2256" y="2040" type="curve" smooth="yes"/>
      <point x="2576" y="2040"/>
      <point x="2688" y="2384"/>
      <point x="2896" y="2896" type="curve" smooth="yes"/>
      <point x="3120" y="3440"/>
      <point x="3456" y="3760"/>
      <point x="3896" y="3760" type="curve" smooth="yes"/>
      <point x="4336" y="3760"/>
      <point x="4736" y="3448"/>
      <point x="4736" y="2952" type="curve" smooth="yes"/>
      <point x="4736" y="2552"/>
      <point x="4472" y="2312"/>
      <point x="4152" y="2312" type="curve" smooth="yes"/>
      <point x="3832" y="2312"/>
      <point x="3592" y="2568"/>
      <point x="3592" y="2872" type="curve" smooth="yes"/>
      <point x="3592" y="3176"/>
      <point x="3840" y="3408"/>
      <point x="4144" y="3408" type="curve" smooth="yes"/>
      <point x="4328" y="3408"/>
      <point x="4472" y="3312"/>
      <point x="4520" y="3232" type="curve"/>
      <point x="4456" y="3488"/>
      <point x="4200" y="3648"/>
      <point x="3904" y="3648" type="curve" smooth="yes"/>
      <point x="3536" y="3648"/>
      <point x="3232" y="3392"/>
      <point x="3016" y="2856" type="curve" smooth="yes"/>
      <point x="2800" y="2312"/>
      <point x="2656" y="1936"/>
      <point x="2256" y="1936" type="curve" smooth="yes"/>
      <point x="1952" y="1936"/>
      <point x="1784" y="2160"/>
    </contour>
    <contour>
      <point x="1752" y="5888" type="line"/>
      <point x="1056" y="5888" type="line"/>
      <point x="1056" y="6000" type="line"/>
      <point x="2896" y="6000" type="line"/>
      <point x="1504" y="0" type="line"/>
      <point x="384" y="0" type="line"/>
    </contour>
  </outline>
</glyph>
<glyph name="l" format="2">
  <advance width="1484"/>
  <unicode hex="006C"/>
  <outline>
    <contour>
      <point x="1390" y="668" type="line"/>
      <point x="1234" y="258"/>
      <point x="953" y="-41"/>
      <point x="559" y="-41" type="curve" smooth="yes"/>
      <point x="305" y="-41"/>
      <point x="176" y="53"/>
      <point x="176" y="299" type="curve" smooth="yes"/>
      <point x="176" y="319"/>
      <point x="180" y="364"/>
      <point x="184" y="389" type="curve" smooth="yes"/>
      <point x="788" y="3015" type="line"/>
      <point x="416" y="3015" type="line"/>
      <point x="416" y="3072" type="line"/>
      <point x="1370" y="3072" type="line"/>
      <point x="717" y="242" type="line" smooth="yes"/>
      <point x="713" y="217"/>
      <point x="709" y="188"/>
      <point x="709" y="168" type="curve" smooth="yes"/>
      <point x="709" y="123"/>
      <point x="729" y="86"/>
      <point x="782" y="86" type="curve" smooth="yes"/>
      <point x="986" y="86"/>
      <point x="1227" y="377"/>
      <point x="1338" y="684" type="curve"/>
    </contour>
  </outline>
</glyph>
<glyph name="m" format="2">
  <advance width="7248"/>
  <unicode hex="006D"/>
  <outline>
    <contour>
      <point x="5280" y="2448" type="line" smooth="yes"/>
      <point x="5488" y="3056"/>
      <point x="5520" y="3536"/>
      <point x="5232" y="3536" type="curve" smooth="yes"/>
      <point x="4808" y="3536"/>
      <point x="4184" y="2648"/>
      <point x="3880" y="1384" type="curve"/>
      <point x="3800" y="1384" type="line"/>
      <point x="4104" y="2576"/>
      <point x="4624" y="3760"/>
      <point x="5552" y="3760" type="curve" smooth="yes"/>
      <point x="6368" y="3760"/>
      <point x="6680" y="3216"/>
      <point x="6432" y="2464" type="curve" smooth="yes"/>
      <point x="5752" y="416" type="line" smooth="yes"/>
      <point x="5736" y="368"/>
      <point x="5728" y="312"/>
      <point x="5728" y="272" type="curve" smooth="yes"/>
      <point x="5728" y="184"/>
      <point x="5776" y="120"/>
      <point x="5880" y="120" type="curve" smooth="yes"/>
      <point x="6312" y="120"/>
      <point x="6736" y="728"/>
      <point x="6960" y="1336" type="curve"/>
      <point x="7064" y="1304" type="line"/>
      <point x="6760" y="504"/>
      <point x="6288" y="-80"/>
      <point x="5520" y="-80" type="curve" smooth="yes"/>
      <point x="4984" y="-80"/>
      <point x="4696" y="144"/>
      <point x="4696" y="568" type="curve" smooth="yes"/>
      <point x="4696" y="688"/>
      <point x="4720" y="784"/>
      <point x="4736" y="856" type="curve" smooth="yes"/>
    </contour>
    <contour>
      <point x="3544" y="0" type="line"/>
      <point x="2424" y="0" type="line"/>
      <point x="3024" y="2464" type="line" smooth="yes"/>
      <point x="3176" y="3096"/>
      <point x="3280" y="3536"/>
      <point x="2992" y="3536" type="curve" smooth="yes"/>
      <point x="2560" y="3536"/>
      <point x="1928" y="2616"/>
      <point x="1632" y="1384" type="curve"/>
      <point x="1552" y="1384" type="line"/>
      <point x="1872" y="2600"/>
      <point x="2368" y="3760"/>
      <point x="3312" y="3760" type="curve" smooth="yes"/>
      <point x="4128" y="3760"/>
      <point x="4344" y="3272"/>
      <point x="4168" y="2552" type="curve" smooth="yes"/>
    </contour>
    <contour>
      <point x="1040" y="3568" type="line"/>
      <point x="504" y="3568" type="line"/>
      <point x="504" y="3680" type="line"/>
      <point x="2184" y="3680" type="line"/>
      <point x="1304" y="0" type="line"/>
      <point x="184" y="0" type="line"/>
    </contour>
  </outline>
</glyph>
<glyph name="m" format="1">
  <advance width="906"/>
  <unicode hex="006D"/>
  <outline>
    <contour>
      <point x="660" y="306" type="line" smooth="yes"/>
      <point x="686" y="382"/>
      <point x="690" y="442"/>
      <point x="654" y="442" type="curve" smooth="yes"/>
      <point x="601" y="442"/>
      <point x="523" y="331"/>
      <point x="485" y="173" type="curve"/>
      <point x="475" y="173" type="line"/>
      <point x="513" y="322"/>
      <point x="578" y="470"/>
      <point x="694" y="470" type="curve" smooth="yes"/>
      <point x="796" y="470"/>
      <point x="835" y="402"/>
      <point x="804" y="308" type="curve" smooth="yes"/>
      <point x="719" y="52" type="line" smooth="yes"/>
      <point x="717" y="46"/>
      <point x="716" y="39"/>
      <point x="716" y="34" type="curve" smooth="yes"/>
      <point x="716" y="23"/>
      <point x="722" y="15"/>
      <point x="735" y="15" type="curve" smooth="yes"/>
      <point x="789" y="15"/>
      <point x="842" y="91"/>
      <point x="870" y="167" type="curve"/>
      <point x="883" y="163" type="line"/>
      <point x="845" y="63"/>
      <point x="786" y="-10"/>
      <point x="690" y="-10" type="curve" smooth="yes"/>
      <point x="623" y="-10"/>
      <point x="587" y="18"/>
      <point x="587" y="71" type="curve" smooth="yes"/>
      <point x="587" y="86"/>
      <point x="590" y="98"/>
      <point x="592" y="107" type="curve" smooth="yes"/>
    </contour>
    <contour>
      <point x="443" y="0" type="line"/>
      <point x="303" y="0" type="line"/>
      <point x="378" y="308" type="line" smooth="yes"/>
      <point x="397" y="387"/>
      <point x="410" y="442"/>
      <point x="374" y="442" type="curve" smooth="yes"/>
      <point x="320" y="442"/>
      <point x="241" y="327"/>
      <point x="204" y="173" type="curve"/>
      <point x="194" y="173" type="line"/>
      <point x="234" y="325"/>
      <point x="296" y="470"/>
      <point x="414" y="470" type="curve" smooth="yes"/>
      <point x="516" y="470"/>
      <point x="543" y="409"/>
      <point x="521" y="319" type="curve" smooth="yes"/>
    </contour>
    <contour>
      <point x="130" y="446" type="line"/>
      <point x="63" y="446" type="line"/>
      <point x="63" y="460" type="line"/>
      <point x="273" y="460" type="line"/>
      <point x="163" y="0" type="line"/>
      <point x="23" y="0" type="line"/>
    </contour>
  </outline>
</glyph>
<glyph name="n" format="2">
  <advance width="5048"/>
  <unicode hex="006E"/>
  <outline>
    <contour>
      <point x="1032" y="3568" type="line"/>
      <point x="496" y="3568" type="line"/>
      <point x="496" y="3680" type="line"/>
      <point x="2176" y="3680" type="line"/>
      <point x="1296" y="0" type="line"/>
      <point x="176" y="0" type="line"/>
    </contour>
    <contour>
      <point x="3064" y="2448" type="line" smooth="yes"/>
      <point x="3272" y="3056"/>
      <point x="3296" y="3552"/>
      <point x="3008" y="3552" type="curve" smooth="yes"/>
      <point x="2560" y="3552"/>
      <point x="1928" y="2608"/>
      <point x="1624" y="1384" type="curve"/>
      <point x="1544" y="1384" type="line"/>
      <point x="1880" y="2608"/>
      <point x="2368" y="3760"/>
      <point x="3312" y="3760" type="curve" smooth="yes"/>
      <point x="4128" y="3760"/>
      <point x="4464" y="3216"/>
      <point x="4216" y="2464" type="curve" smooth="yes"/>
      <point x="3536" y="416" type="line" smooth="yes"/>
      <point x="3520" y="368"/>
      <point x="3512" y="312"/>
      <point x="3512" y="272" type="curve" smooth="yes"/>
      <point x="3512" y="184"/>
      <point x="3560" y="128"/>
      <point x="3664" y="128" type="curve" smooth="yes"/>
      <point x="4096" y="128"/>
      <point x="4528" y="728"/>
      <point x="4752" y="1336" type="curve"/>
      <point x="4856" y="1304" type="line"/>
      <point x="4552" y="504"/>
      <point x="4072" y="-80"/>
      <point x="3304" y="-80" type="curve" smooth="yes"/>
      <point x="2768" y="-80"/>
      <point x="2480" y="144"/>
      <point x="2480" y="568" type="curve" smooth="yes"/>
      <point x="2480" y="688"/>
      <point x="2496" y="776"/>
      <point x="2520" y="856" type="curve" smooth="yes"/>
    </contour>
  </outline>
</glyph>
<glyph name="o" format="2">
  <advance width="4464"/>
  <unicode hex="006F"/>
  <outline>
    <contour>
      <point x="1736" y="-80" type="curve" smooth="yes"/>
      <point x="968" y="-80"/>
      <point x="144" y="320"/>
      <point x="144" y="1320" type="curve" smooth="yes"/>
      <point x="144" y="2840"/>
      <point x="1360" y="3760"/>
      <point x="2608" y="3760" type="curve" smooth="yes"/>
      <point x="3376" y="3760"/>
      <point x="4200" y="3360"/>
      <point x="4200" y="2360" type="curve" smooth="yes"/>
      <point x="4200" y="840"/>
      <point x="2984" y="-80"/>
    </contour>
    <contour>
      <point x="1736" y="32" type="curve" smooth="yes"/>
      <point x="2528" y="32"/>
      <point x="3048" y="1848"/>
      <point x="3048" y="2840" type="curve" smooth="yes"/>
      <point x="3048" y="3368"/>
      <point x="2920" y="3648"/>
      <point x="2608" y="3648" type="curve" smooth="yes"/>
      <point x="1816" y="3648"/>
      <point x="1296" y="1832"/>
      <point x="1296" y="840" type="curve" smooth="yes"/>
      <point x="1296" y="312"/>
      <point x="1424" y="32"/>
    </contour>
  </outline>
</glyph>
<glyph name="p" format="2">
  <advance width="4848"/>
  <unicode hex="0070"/>
  <outline>
    <contour>
      <point x="1736" y="1160" type="curve" smooth="yes"/>
      <point x="1736" y="656"/>
      <point x="1912" y="288"/>
      <point x="2192" y="288" type="curve" smooth="yes"/>
      <point x="2744" y="288"/>
      <point x="3392" y="1576"/>
      <point x="3392" y="2648" type="curve" smooth="yes"/>
      <point x="3392" y="3112"/>
      <point x="3232" y="3416"/>
      <point x="2944" y="3416" type="curve" smooth="yes"/>
      <point x="2272" y="3416"/>
      <point x="1736" y="2008"/>
    </contour>
    <contour>
      <point x="1648" y="1160" type="curve" smooth="yes"/>
      <point x="1648" y="2024"/>
      <point x="2216" y="3760"/>
      <point x="3344" y="3760" type="curve" smooth="yes"/>
      <point x="3896" y="3760"/>
      <point x="4624" y="3432"/>
      <point x="4624" y="2392" type="curve" smooth="yes"/>
      <point x="4624" y="792"/>
      <point x="3368" y="-80"/>
      <point x="2560" y="-80" type="curve" smooth="yes"/>
      <point x="1952" y="-80"/>
      <point x="1648" y="424"/>
    </contour>
    <contour>
      <point x="-736" y="-1888" type="line"/>
      <point x="1464" y="-1888" type="line"/>
      <point x="1464" y="-2000" type="line"/>
      <point x="-736" y="-2000" type="line"/>
    </contour>
    <contour>
      <point x="1072" y="3568" type="line"/>
      <point x="520" y="3568" type="line"/>
      <point x="520" y="3680" type="line"/>
      <point x="2216" y="3680" type="line"/>
      <point x="1896" y="2304" type="line"/>
      <point x="1728" y="1752" type="line"/>
      <point x="1680" y="1328" type="line"/>
      <point x="904" y="-2000" type="line"/>
      <point x="-216" y="-2000" type="line"/>
    </contour>
  </outline>
</glyph>
<glyph name="q" format="2">
  <advance width="4728"/>
  <unicode hex="0071"/>
  <outline>
    <contour>
      <point x="3656" y="-1888" type="line"/>
      <point x="3656" y="-2000" type="line"/>
      <point x="1536" y="-2000" type="line"/>
      <point x="1536" y="-1888" type="line"/>
    </contour>
    <contour>
      <point x="3096" y="-2000" type="line"/>
      <point x="2056" y="-2000" type="line"/>
      <point x="2856" y="1408" type="line"/>
      <point x="2872" y="1440"/>
      <point x="3024" y="2024"/>
      <point x="3040" y="2072" type="curve"/>
      <point x="3088" y="2496" type="line"/>
      <point x="3352" y="3600" type="line"/>
      <point x="4424" y="3760" type="line"/>
    </contour>
    <contour>
      <point x="3024" y="2512" type="curve" smooth="yes"/>
      <point x="3024" y="3016"/>
      <point x="2856" y="3392"/>
      <point x="2576" y="3392" type="curve" smooth="yes"/>
      <point x="2024" y="3392"/>
      <point x="1376" y="2096"/>
      <point x="1376" y="1024" type="curve" smooth="yes"/>
      <point x="1376" y="560"/>
      <point x="1528" y="256"/>
      <point x="1816" y="256" type="curve" smooth="yes"/>
      <point x="2488" y="256"/>
      <point x="3024" y="1664"/>
    </contour>
    <contour>
      <point x="3120" y="2512" type="curve" smooth="yes"/>
      <point x="3120" y="1648"/>
      <point x="2544" y="-80"/>
      <point x="1416" y="-80" type="curve" smooth="yes"/>
      <point x="864" y="-80"/>
      <point x="144" y="240"/>
      <point x="144" y="1280" type="curve" smooth="yes"/>
      <point x="144" y="2880"/>
      <point x="1400" y="3760"/>
      <point x="2208" y="3760" type="curve" smooth="yes"/>
      <point x="2816" y="3760"/>
      <point x="3120" y="3248"/>
    </contour>
  </outline>
</glyph>
<glyph name="q" format="1">
  <advance width="591"/>
  <unicode hex="0071"/>
  <outline>
    <contour>
      <point x="457" y="-236" type="line"/>
      <point x="457" y="-250" type="line"/>
      <point x="192" y="-250" type="line"/>
      <point x="192" y="-236" type="line"/>
    </contour>
    <contour>
      <point x="387" y="-250" type="line"/>
      <point x="257" y="-250" type="line"/>
      <point x="357" y="176" type="line"/>
      <point x="359" y="180"/>
      <point x="378" y="253"/>
      <point x="380" y="259" type="curve"/>
      <point x="386" y="312" type="line"/>
      <point x="419" y="450" type="line"/>
      <point x="553" y="470" type="line"/>
    </contour>
    <contour>
      <point x="378" y="314" type="curve" smooth="yes"/>
      <point x="378" y="377"/>
      <point x="357" y="424"/>
      <point x="322" y="424" type="curve" smooth="yes"/>
      <point x="253" y="424"/>
      <point x="172" y="262"/>
      <point x="172" y="128" type="curve" smooth="yes"/>
      <point x="172" y="70"/>
      <point x="191" y="32"/>
      <point x="227" y="32" type="curve" smooth="yes"/>
      <point x="311" y="32"/>
      <point x="378" y="208"/>
    </contour>
    <contour>
      <point x="390" y="314" type="curve" smooth="yes"/>
      <point x="390" y="206"/>
      <point x="318" y="-10"/>
      <point x="177" y="-10" type="curve" smooth="yes"/>
      <point x="108" y="-10"/>
      <point x="18" y="30"/>
      <point x="18" y="160" type="curve" smooth="yes"/>
      <point x="18" y="360"/>
      <point x="175" y="470"/>
      <point x="276" y="470" type="curve" smooth="yes"/>
      <point x="352" y="470"/>
      <point x="390" y="406"/>
    </contour>
  </outline>
</glyph>
<glyph name="r" format="2">
  <advance width="3856"/>
  <unicode hex="0072"/>
  <outline>
    <contour>
      <point x="4032" y="2912" type="curve" smooth="yes"/>
      <point x="4032" y="2544"/>
      <point x="3792" y="2224"/>
      <point x="3368" y="2224" type="curve" smooth="yes"/>
      <point x="2984" y="2224"/>
      <point x="2696" y="2464"/>
      <point x="2696" y="2864" type="curve" smooth="yes"/>
      <point x="2696" y="3224"/>
      <point x="2984" y="3520"/>
      <point x="3376" y="3520" type="curve" smooth="yes"/>
      <point x="3504" y="3520"/>
      <point x="3600" y="3456"/>
      <point x="3648" y="3376" type="curve"/>
      <point x="3560" y="3552"/>
      <point x="3320" y="3648"/>
      <point x="3112" y="3648" type="curve" smooth="yes"/>
      <point x="2296" y="3648"/>
      <point x="1848" y="2168"/>
      <point x="1656" y="1384" type="curve"/>
      <point x="1576" y="1384" type="line"/>
      <point x="1768" y="2312"/>
      <point x="2200" y="3760"/>
      <point x="3136" y="3760" type="curve" smooth="yes"/>
      <point x="3584" y="3760"/>
      <point x="4032" y="3424"/>
    </contour>
    <contour>
      <point x="1080" y="3568" type="line"/>
      <point x="504" y="3568" type="line"/>
      <point x="504" y="3680" type="line"/>
      <point x="2184" y="3680" type="line"/>
      <point x="1344" y="0" type="line"/>
      <point x="224" y="0" type="line"/>
    </contour>
  </outline>
</glyph>
<glyph name="s" format="2">
  <advance width="458"/>
  <unicode hex="0073"/>
  <outline>
    <contour>
      <point x="374" y="406" type="curve"/>
      <point x="362" y="430"/>
      <point x="320" y="455"/>
      <point x="252" y="455" type="curve" smooth="yes"/>
      <point x="191" y="455"/>
      <point x="160" y="427"/>
      <point x="160" y="391" type="curve" smooth="yes"/>
      <point x="160" y="297"/>
      <point x="385" y="285"/>
      <point x="385" y="152" type="curve" smooth="yes"/>
      <point x="385" y="58"/>
      <point x="290" y="-12"/>
      <point x="178" y="-12" type="curve" smooth="yes"/>
      <point x="49" y="-12"/>
      <point x="-2" y="55"/>
      <point x="-2" y="110" type="curve" smooth="yes"/>
      <point x="-2" y="156"/>
      <point x="34" y="182"/>
      <point x="69" y="182" type="curve" smooth="yes"/>
      <point x="99" y="182"/>
      <point x="137" y="161"/>
      <point x="137" y="116" type="curve" smooth="yes"/>
      <point x="137" y="76"/>
      <point x="104" y="51"/>
      <point x="70" y="51" type="curve" smooth="yes"/>
      <point x="44" y="51"/>
      <point x="31" y="64"/>
      <point x="27" y="72" type="curve"/>
      <point x="41" y="40"/>
      <point x="78" y="2"/>
      <point x="178" y="2" type="curve" smooth="yes"/>
      <point x="248" y="2"/>
      <point x="292" y="39"/>
      <point x="292" y="79" type="curve" smooth="yes"/>
      <point x="292" y="165"/>
      <point x="64" y="171"/>
      <point x="64" y="317" type="curve" smooth="yes"/>
      <point x="64" y="416"/>
      <point x="164" y="469"/>
      <point x="249" y="469" type="curve" smooth="yes"/>
      <point x="353" y="469"/>
      <point x="410" y="420"/>
      <point x="410" y="368" type="curve" smooth="yes"/>
      <point x="410" y="327"/>
      <point x="383" y="303"/>
      <point x="348" y="303" type="curve" smooth="yes"/>
      <point x="318" y="303"/>
      <point x="283" y="324"/>
      <point x="283" y="364" type="curve" smooth="yes"/>
      <point x="283" y="399"/>
      <point x="309" y="424"/>
      <point x="339" y="424" type="curve" smooth="yes"/>
      <point x="360" y="424"/>
      <point x="368" y="416"/>
    </contour>
  </outline>
</glyph>
<glyph name="t" format="2">
  <advance width="2968"/>
  <unicode hex="0074"/>
  <outline>
    <contour>
      <point x="384" y="3680" type="line"/>
      <point x="2944" y="3680" type="line"/>
      <point x="2944" y="3568" type="line"/>
      <point x="384" y="3568" type="line"/>
    </contour>
    <contour>
      <point x="2768" y="1304" type="line"/>
      <point x="2464" y="504"/>
      <point x="1920" y="-80"/>
      <point x="1152" y="-80" type="curve" smooth="yes"/>
      <point x="656" y="-80"/>
      <point x="384" y="104"/>
      <point x="384" y="584" type="curve" smooth="yes"/>
      <point x="384" y="624"/>
      <point x="392" y="712"/>
      <point x="408" y="760" type="curve" smooth="yes"/>
      <point x="1264" y="4480" type="line"/>
      <point x="2368" y="4480" type="line"/>
      <point x="1448" y="472" type="line" smooth="yes"/>
      <point x="1440" y="424"/>
      <point x="1432" y="368"/>
      <point x="1432" y="328" type="curve" smooth="yes"/>
      <point x="1432" y="240"/>
      <point x="1472" y="176"/>
      <point x="1576" y="176" type="curve" smooth="yes"/>
      <point x="2008" y="176"/>
      <point x="2456" y="760"/>
      <point x="2664" y="1336" type="curve"/>
    </contour>
  </outline>
</glyph>
<glyph name="u" format="2">
  <advance width="5288"/>
  <unicode hex="0075"/>
  <outline>
    <contour>
      <point x="2208" y="3680" type="line"/>
      <point x="1632" y="1184" type="line" smooth="yes"/>
      <point x="1488" y="552"/>
      <point x="1440" y="160"/>
      <point x="1736" y="160" type="curve" smooth="yes"/>
      <point x="2144" y="160"/>
      <point x="2800" y="1056"/>
      <point x="3104" y="2296" type="curve"/>
      <point x="3184" y="2296" type="line"/>
      <point x="2840" y="1056"/>
      <point x="2328" y="-80"/>
      <point x="1392" y="-80" type="curve" smooth="yes"/>
      <point x="616" y="-80"/>
      <point x="368" y="472"/>
      <point x="512" y="1128" type="curve" smooth="yes"/>
      <point x="1056" y="3568" type="line"/>
      <point x="512" y="3568" type="line"/>
      <point x="512" y="3680" type="line"/>
    </contour>
    <contour>
      <point x="5104" y="1304" type="line"/>
      <point x="4800" y="504"/>
      <point x="4256" y="-80"/>
      <point x="3488" y="-80" type="curve" smooth="yes"/>
      <point x="2992" y="-80"/>
      <point x="2728" y="104"/>
      <point x="2728" y="584" type="curve" smooth="yes"/>
      <point x="2728" y="624"/>
      <point x="2736" y="712"/>
      <point x="2744" y="760" type="curve" smooth="yes"/>
      <point x="3408" y="3680" type="line"/>
      <point x="4528" y="3680" type="line"/>
      <point x="3784" y="472" type="line" smooth="yes"/>
      <point x="3776" y="424"/>
      <point x="3768" y="368"/>
      <point x="3768" y="328" type="curve" smooth="yes"/>
      <point x="3768" y="240"/>
      <point x="3808" y="176"/>
      <point x="3912" y="176" type="curve" smooth="yes"/>
      <point x="4344" y="176"/>
      <point x="4800" y="760"/>
      <point x="5008" y="1336" type="curve"/>
    </contour>
  </outline>
</glyph>
<glyph name="v" format="2">
  <advance width="2486"/>
  <unicode hex="0076"/>
  <outline>
    <contour>
      <point x="1116" y="568" type="line" smooth="yes"/>
      <point x="1063" y="244"/>
      <point x="1014" y="56"/>
      <point x="1243" y="56" type="curve" smooth="yes"/>
      <point x="1632" y="56"/>
      <point x="2359" y="737"/>
      <point x="2359" y="1409" type="curve" smooth="yes"/>
      <point x="2359" y="1483"/>
      <point x="2346" y="1528"/>
      <point x="2334" y="1558" type="curve"/>
      <point x="2324" y="1431"/>
      <point x="2172" y="1249"/>
      <point x="1978" y="1249" type="curve" smooth="yes"/>
      <point x="1761" y="1249"/>
      <point x="1638" y="1422"/>
      <point x="1638" y="1586" type="curve" smooth="yes"/>
      <point x="1638" y="1770"/>
      <point x="1788" y="1921"/>
      <point x="2001" y="1921" type="curve" smooth="yes"/>
      <point x="2279" y="1921"/>
      <point x="2412" y="1679"/>
      <point x="2412" y="1409" type="curve" smooth="yes"/>
      <point x="2412" y="725"/>
      <point x="1692" y="-41"/>
      <point x="1106" y="-41" type="curve" smooth="yes"/>
      <point x="648" y="-41"/>
      <point x="472" y="223"/>
      <point x="542" y="598" type="curve" smooth="yes"/>
      <point x="735" y="1642" type="line" smooth="yes"/>
      <point x="739" y="1667"/>
      <point x="744" y="1696"/>
      <point x="744" y="1716" type="curve" smooth="yes"/>
      <point x="744" y="1761"/>
      <point x="717" y="1794"/>
      <point x="662" y="1794" type="curve" smooth="yes"/>
      <point x="424" y="1794"/>
      <point x="223" y="1484"/>
      <point x="111" y="1200" type="curve"/>
      <point x="53" y="1217" type="line"/>
      <point x="229" y="1627"/>
      <point x="450" y="1925"/>
      <point x="884" y="1925" type="curve" smooth="yes"/>
      <point x="1158" y="1925"/>
      <point x="1272" y="1812"/>
      <point x="1272" y="1616" type="curve" smooth="yes"/>
      <point x="1272" y="1555"/>
      <point x="1266" y="1516"/>
      <point x="1258" y="1466" type="curve" smooth="yes"/>
    </contour>
  </outline>
</glyph>
<glyph name="w" format="2">
  <advance width="7240"/>
  <unicode hex="0077"/>
  <outline>
    <contour>
      <point x="1880" y="1224" type="line" smooth="yes"/>
      <point x="1672" y="608"/>
      <point x="1712" y="144"/>
      <point x="2080" y="144" type="curve" smooth="yes"/>
      <point x="2624" y="144"/>
      <point x="3240" y="1080"/>
      <point x="3536" y="2296" type="curve"/>
      <point x="3624" y="2296" type="line"/>
      <point x="3320" y="1112"/>
      <point x="2824" y="-80"/>
      <point x="1720" y="-80" type="curve" smooth="yes"/>
      <point x="864" y="-80"/>
      <point x="504" y="416"/>
      <point x="744" y="1128" type="curve" smooth="yes"/>
      <point x="1440" y="3208" type="line" smooth="yes"/>
      <point x="1456" y="3256"/>
      <point x="1464" y="3312"/>
      <point x="1464" y="3352" type="curve" smooth="yes"/>
      <point x="1464" y="3440"/>
      <point x="1416" y="3504"/>
      <point x="1304" y="3504" type="curve" smooth="yes"/>
      <point x="840" y="3504"/>
      <point x="456" y="2936"/>
      <point x="216" y="2344" type="curve"/>
      <point x="104" y="2376" type="line"/>
      <point x="448" y="3176"/>
      <point x="880" y="3760"/>
      <point x="1728" y="3760" type="curve" smooth="yes"/>
      <point x="2224" y="3760"/>
      <point x="2496" y="3560"/>
      <point x="2496" y="3136" type="curve" smooth="yes"/>
      <point x="2496" y="3016"/>
      <point x="2464" y="2920"/>
      <point x="2448" y="2864" type="curve" smooth="yes"/>
    </contour>
    <contour>
      <point x="3864" y="3680" type="line"/>
      <point x="4984" y="3680" type="line"/>
      <point x="4464" y="1488" type="line" smooth="yes"/>
      <point x="4304" y="816"/>
      <point x="4336" y="104"/>
      <point x="4968" y="104" type="curve" smooth="yes"/>
      <point x="6128" y="104"/>
      <point x="6984" y="1856"/>
      <point x="6984" y="2752" type="curve" smooth="yes"/>
      <point x="6984" y="2880"/>
      <point x="6960" y="2976"/>
      <point x="6944" y="3024" type="curve"/>
      <point x="6912" y="2720"/>
      <point x="6648" y="2440"/>
      <point x="6240" y="2440" type="curve" smooth="yes"/>
      <point x="5800" y="2440"/>
      <point x="5576" y="2776"/>
      <point x="5576" y="3096" type="curve" smooth="yes"/>
      <point x="5576" y="3456"/>
      <point x="5888" y="3752"/>
      <point x="6288" y="3752" type="curve" smooth="yes"/>
      <point x="6752" y="3752"/>
      <point x="7096" y="3360"/>
      <point x="7096" y="2752" type="curve" smooth="yes"/>
      <point x="7096" y="1872"/>
      <point x="6296" y="-80"/>
      <point x="4736" y="-80" type="curve" smooth="yes"/>
      <point x="3984" y="-80"/>
      <point x="3216" y="256"/>
      <point x="3344" y="1520" type="curve"/>
    </contour>
  </outline>
</glyph>
<glyph name="w" format="1">
  <advance width="905"/>
  <unicode hex="0077"/>
  <outline>
    <contour>
      <point x="235" y="153" type="line" smooth="yes"/>
      <point x="209" y="76"/>
      <point x="214" y="18"/>
      <point x="260" y="18" type="curve" smooth="yes"/>
      <point x="328" y="18"/>
      <point x="405" y="135"/>
      <point x="442" y="287" type="curve"/>
      <point x="453" y="287" type="line"/>
      <point x="415" y="139"/>
      <point x="353" y="-10"/>
      <point x="215" y="-10" type="curve" smooth="yes"/>
      <point x="108" y="-10"/>
      <point x="63" y="52"/>
      <point x="93" y="141" type="curve" smooth="yes"/>
      <point x="180" y="401" type="line" smooth="yes"/>
      <point x="182" y="407"/>
      <point x="183" y="414"/>
      <point x="183" y="419" type="curve" smooth="yes"/>
      <point x="183" y="430"/>
      <point x="177" y="438"/>
      <point x="163" y="438" type="curve" smooth="yes"/>
      <point x="105" y="438"/>
      <point x="57" y="367"/>
      <point x="27" y="293" type="curve"/>
      <point x="13" y="297" type="line"/>
      <point x="56" y="397"/>
      <point x="110" y="470"/>
      <point x="216" y="470" type="curve" smooth="yes"/>
      <point x="278" y="470"/>
      <point x="312" y="445"/>
      <point x="312" y="392" type="curve" smooth="yes"/>
      <point x="312" y="377"/>
      <point x="308" y="365"/>
      <point x="306" y="358" type="curve" smooth="yes"/>
    </contour>
    <contour>
      <point x="483" y="460" type="line"/>
      <point x="623" y="460" type="line"/>
      <point x="558" y="186" type="line" smooth="yes"/>
      <point x="538" y="102"/>
      <point x="542" y="13"/>
      <point x="621" y="13" type="curve" smooth="yes"/>
      <point x="766" y="13"/>
      <point x="873" y="232"/>
      <point x="873" y="344" type="curve" smooth="yes"/>
      <point x="873" y="360"/>
      <point x="870" y="372"/>
      <point x="868" y="378" type="curve"/>
      <point x="864" y="340"/>
      <point x="831" y="305"/>
      <point x="780" y="305" type="curve" smooth="yes"/>
      <point x="725" y="305"/>
      <point x="697" y="347"/>
      <point x="697" y="387" type="curve" smooth="yes"/>
      <point x="697" y="432"/>
      <point x="736" y="469"/>
      <point x="786" y="469" type="curve" smooth="yes"/>
      <point x="844" y="469"/>
      <point x="887" y="420"/>
      <point x="887" y="344" type="curve" smooth="yes"/>
      <point x="887" y="234"/>
      <point x="787" y="-10"/>
      <point x="592" y="-10" type="curve" smooth="yes"/>
      <point x="498" y="-10"/>
      <point x="402" y="32"/>
      <point x="418" y="190" type="curve"/>
    </contour>
  </outline>
</glyph>
<glyph name="x" format="2">
  <advance width="4936"/>
  <unicode hex="0078"/>
  <outline>
    <contour>
      <point x="2560" y="1952" type="line"/>
      <point x="3040" y="2736"/>
      <point x="3472" y="3760"/>
      <point x="4224" y="3760" type="curve" smooth="yes"/>
      <point x="4792" y="3760"/>
      <point x="5040" y="3328"/>
      <point x="5040" y="2992" type="curve" smooth="yes"/>
      <point x="5040" y="2624"/>
      <point x="4800" y="2352"/>
      <point x="4416" y="2352" type="curve" smooth="yes"/>
      <point x="4016" y="2352"/>
      <point x="3808" y="2688"/>
      <point x="3808" y="2968" type="curve" smooth="yes"/>
      <point x="3808" y="3264"/>
      <point x="4056" y="3568"/>
      <point x="4400" y="3568" type="curve" smooth="yes"/>
      <point x="4528" y="3568"/>
      <point x="4624" y="3496"/>
      <point x="4688" y="3408" type="curve"/>
      <point x="4592" y="3552"/>
      <point x="4448" y="3656"/>
      <point x="4240" y="3656" type="curve" smooth="yes"/>
      <point x="3568" y="3656"/>
      <point x="3152" y="2688"/>
      <point x="2672" y="1904" type="curve"/>
    </contour>
    <contour>
      <point x="2480" y="1968" type="line"/>
      <point x="1912" y="1024"/>
      <point x="1424" y="-80"/>
      <point x="672" y="-80" type="curve" smooth="yes"/>
      <point x="104" y="-80"/>
      <point x="-136" y="352"/>
      <point x="-136" y="688" type="curve" smooth="yes"/>
      <point x="-136" y="1056"/>
      <point x="104" y="1328"/>
      <point x="488" y="1328" type="curve" smooth="yes"/>
      <point x="888" y="1328"/>
      <point x="1088" y="992"/>
      <point x="1088" y="712" type="curve" smooth="yes"/>
      <point x="1088" y="416"/>
      <point x="848" y="112"/>
      <point x="496" y="112" type="curve" smooth="yes"/>
      <point x="352" y="112"/>
      <point x="256" y="192"/>
      <point x="208" y="288" type="curve"/>
      <point x="304" y="128"/>
      <point x="456" y="24"/>
      <point x="664" y="24" type="curve" smooth="yes"/>
      <point x="1336" y="24"/>
      <point x="1832" y="1096"/>
      <point x="2384" y="2016" type="curve"/>
    </contour>
    <contour>
      <point x="4544" y="872" type="line"/>
      <point x="4288" y="192"/>
      <point x="3888" y="-80"/>
      <point x="3312" y="-80" type="curve" smooth="yes"/>
      <point x="2696" y="-80"/>
      <point x="2440" y="200"/>
      <point x="2280" y="664" type="curve" smooth="yes"/>
      <point x="2056" y="1336"/>
      <point x="1696" y="2760"/>
      <point x="1488" y="3336" type="curve" smooth="yes"/>
      <point x="1456" y="3424"/>
      <point x="1408" y="3528"/>
      <point x="1264" y="3528" type="curve" smooth="yes"/>
      <point x="1016" y="3528"/>
      <point x="752" y="3192"/>
      <point x="592" y="2744" type="curve"/>
      <point x="480" y="2792" type="line"/>
      <point x="736" y="3472"/>
      <point x="1088" y="3776"/>
      <point x="1744" y="3776" type="curve" smooth="yes"/>
      <point x="2360" y="3776"/>
      <point x="2584" y="3496"/>
      <point x="2744" y="3032" type="curve" smooth="yes"/>
      <point x="2984" y="2328"/>
      <point x="3280" y="1144"/>
      <point x="3560" y="368" type="curve" smooth="yes"/>
      <point x="3592" y="280"/>
      <point x="3680" y="176"/>
      <point x="3792" y="176" type="curve" smooth="yes"/>
      <point x="3992" y="176"/>
      <point x="4288" y="480"/>
      <point x="4448" y="912" type="curve"/>
    </contour>
  </outline>
</glyph>
<glyph name="y" format="2">
  <advance width="2596"/>
  <unicode hex="0079"/>
  <outline>
    <contour>
      <point x="1401" y="-394" type="curve"/>
      <point x="1059" y="188"/>
      <point x="765" y="1388"/>
      <point x="654" y="1683" type="curve" smooth="yes"/>
      <point x="638" y="1728"/>
      <point x="606" y="1786"/>
      <point x="532" y="1786" type="curve" smooth="yes"/>
      <point x="416" y="1786"/>
      <point x="268" y="1633"/>
      <point x="188" y="1397" type="curve"/>
      <point x="135" y="1421" type="line"/>
      <point x="270" y="1790"/>
      <point x="508" y="1925"/>
      <point x="803" y="1925" type="curve" smooth="yes"/>
      <point x="1083" y="1925"/>
      <point x="1224" y="1778"/>
      <point x="1296" y="1540" type="curve" smooth="yes"/>
      <point x="1409" y="1171"/>
      <point x="1550" y="503"/>
      <point x="1820" y="104" type="curve"/>
      <point x="1747" y="2"/>
      <point x="1483" y="-295"/>
    </contour>
    <contour>
      <point x="464" y="-1065" type="curve" smooth="yes"/>
      <point x="96" y="-1065"/>
      <point x="-82" y="-803"/>
      <point x="-82" y="-557" type="curve" smooth="yes"/>
      <point x="-82" y="-361"/>
      <point x="57" y="-184"/>
      <point x="254" y="-184" type="curve" smooth="yes"/>
      <point x="418" y="-184"/>
      <point x="565" y="-291"/>
      <point x="565" y="-488" type="curve" smooth="yes"/>
      <point x="565" y="-664"/>
      <point x="440" y="-791"/>
      <point x="272" y="-791" type="curve" smooth="yes"/>
      <point x="125" y="-791"/>
      <point x="27" y="-710"/>
      <point x="-12" y="-604" type="curve"/>
      <point x="-10" y="-764"/>
      <point x="132" y="-1008"/>
      <point x="460" y="-1008" type="curve" smooth="yes"/>
      <point x="1175" y="-1008"/>
      <point x="2470" y="988"/>
      <point x="2470" y="1474" type="curve" smooth="yes"/>
      <point x="2470" y="1521"/>
      <point x="2458" y="1574"/>
      <point x="2444" y="1604" type="curve"/>
      <point x="2440" y="1438"/>
      <point x="2306" y="1294"/>
      <point x="2126" y="1294" type="curve" smooth="yes"/>
      <point x="1913" y="1294"/>
      <point x="1802" y="1467"/>
      <point x="1802" y="1610" type="curve" smooth="yes"/>
      <point x="1802" y="1774"/>
      <point x="1927" y="1925"/>
      <point x="2140" y="1925" type="curve" smooth="yes"/>
      <point x="2410" y="1925"/>
      <point x="2534" y="1687"/>
      <point x="2534" y="1478" type="curve" smooth="yes"/>
      <point x="2534" y="946"/>
      <point x="1216" y="-1065"/>
    </contour>
  </outline>
</glyph>
<glyph name="z" format="2">
  <advance width="3672"/>
  <unicode hex="007A"/>
  <outline>
    <contour>
      <point x="224" y="1880" type="line"/>
      <point x="656" y="3720" type="line"/>
      <point x="1088" y="3480"/>
      <point x="1568" y="3408"/>
      <point x="2056" y="3408" type="curve" smooth="yes"/>
      <point x="2520" y="3408"/>
      <point x="3200" y="3472"/>
      <point x="3496" y="3712" type="curve"/>
      <point x="3600" y="3608" type="line"/>
      <point x="2800" y="3072"/>
      <point x="2040" y="2400"/>
      <point x="1424" y="2400" type="curve" smooth="yes"/>
      <point x="1072" y="2400"/>
      <point x="744" y="2512"/>
      <point x="536" y="2680" type="curve"/>
      <point x="336" y="1880" type="line"/>
    </contour>
    <contour>
      <point x="-16" y="96" type="line"/>
      <point x="-256" y="24" type="line"/>
      <point x="3384" y="3552" type="line"/>
      <point x="3600" y="3608" type="line"/>
    </contour>
    <contour>
      <point x="3456" y="1328" type="curve"/>
      <point x="3368" y="1128"/>
      <point x="3216" y="968"/>
      <point x="2944" y="968" type="curve" smooth="yes"/>
      <point x="2672" y="968"/>
      <point x="2400" y="1208"/>
      <point x="2400" y="1528" type="curve" smooth="yes"/>
      <point x="2400" y="1888"/>
      <point x="2696" y="2096"/>
      <point x="2976" y="2096" type="curve" smooth="yes"/>
      <point x="3296" y="2096"/>
      <point x="3576" y="1864"/>
      <point x="3576" y="1456" type="curve" smooth="yes"/>
      <point x="3576" y="976"/>
      <point x="3056" y="-80"/>
      <point x="2160" y="-80" type="curve" smooth="yes"/>
      <point x="1592" y="-80"/>
      <point x="1328" y="312"/>
      <point x="800" y="312" type="curve" smooth="yes"/>
      <point x="416" y="312"/>
      <point x="96" y="176"/>
      <point x="-160" y="-80" type="curve"/>
      <point x="-256" y="24" type="line"/>
      <point x="472" y="504"/>
      <point x="1120" y="1080"/>
      <point x="1680" y="1080" type="curve" smooth="yes"/>
      <point x="2208" y="1080"/>
      <point x="2264" y="616"/>
      <point x="2832" y="616" type="curve" smooth="yes"/>
      <point x="3232" y="616"/>
      <point x="3424" y="1024"/>
    </contour>
  </outline>
</glyph>
<glyph name="braceleft" format="1">
  <advance width="322"/>
  <unicode hex="007B"/>
  <outline>
    <contour>
      <point x="432" y="780" type="curve"/>
      <point x="432" y="763" type="line"/>
      <point x="355" y="763"/>
      <point x="298" y="696"/>
      <point x="298" y="614" type="curve" smooth="yes"/>
      <point x="298" y="558"/>
      <point x="309" y="531"/>
      <point x="309" y="461" type="curve" smooth="yes"/>
      <point x="309" y="363"/>
      <point x="174" y="321"/>
      <point x="85" y="311" type="curve"/>
      <point x="85" y="324" type="line"/>
      <point x="115" y="334"/>
      <point x="175" y="356"/>
      <point x="175" y="407" type="curve" smooth="yes"/>
      <point x="175" y="465"/>
      <point x="152" y="484"/>
      <point x="152" y="571" type="curve" smooth="yes"/>
      <point x="152" y="700"/>
      <point x="267" y="780"/>
    </contour>
    <contour>
      <point x="222" y="-150" type="line"/>
      <point x="77" y="-150"/>
      <point x="5" y="-119"/>
      <point x="5" y="-25" type="curve" smooth="yes"/>
      <point x="5" y="97"/>
      <point x="135" y="182"/>
      <point x="135" y="245" type="curve" smooth="yes"/>
      <point x="135" y="286"/>
      <point x="115" y="296"/>
      <point x="85" y="306" type="curve"/>
      <point x="85" y="320" type="line"/>
      <point x="174" y="310"/>
      <point x="242" y="288"/>
      <point x="242" y="210" type="curve" smooth="yes"/>
      <point x="242" y="110"/>
      <point x="148" y="30"/>
      <point x="148" y="-46" type="curve" smooth="yes"/>
      <point x="148" y="-91"/>
      <point x="160" y="-133"/>
      <point x="222" y="-133" type="curve"/>
    </contour>
  </outline>
</glyph>
<glyph name="bar" format="2">
  <advance width="230"/>
  <unicode hex="007C"/>
  <outline>
    <contour>
      <point x="249" y="780" type="line"/>
      <point x="262" y="780" type="line"/>
      <point x="22" y="-250" type="line"/>
      <point x="9" y="-250" type="line"/>
    </contour>
  </outline>
</glyph>
<glyph name="cent" format="2">
  <advance width="4000"/>
  <unicode hex="00A2"/>
  <outline>
    <contour>
      <point x="2872" y="4440" type="line"/>
      <point x="1512" y="-680" type="line"/>
      <point x="1400" y="-680" type="line"/>
      <point x="2760" y="4440" type="line"/>
    </contour>
    <component base="c"/>
  </outline>
</glyph>
<glyph name="sterling" format="2">
  <advance width="2680"/>
  <unicode hex="00A3"/>
  <outline>
    <contour>
      <point x="2630" y="889" type="line"/>
      <point x="2548" y="287"/>
      <point x="2176" y="-123"/>
      <point x="1700" y="-123" type="curve" smooth="yes"/>
      <point x="1139" y="-123"/>
      <point x="848" y="123"/>
      <point x="590" y="123" type="curve" smooth="yes"/>
      <point x="414" y="123"/>
      <point x="262" y="41"/>
      <point x="188" y="-82" type="curve"/>
      <point x="156" y="-82" type="line"/>
      <point x="300" y="303"/>
      <point x="731" y="643"/>
      <point x="1120" y="643" type="curve" smooth="yes"/>
      <point x="1518" y="643"/>
      <point x="1585" y="504"/>
      <point x="1919" y="504" type="curve" smooth="yes"/>
      <point x="2199" y="504"/>
      <point x="2490" y="553"/>
      <point x="2572" y="889" type="curve"/>
    </contour>
    <contour>
      <point x="2314" y="1659" type="line"/>
      <point x="2314" y="1602" type="line"/>
      <point x="266" y="1602" type="line"/>
      <point x="266" y="1659" type="line"/>
    </contour>
    <contour>
      <point x="729" y="2110" type="curve" smooth="yes"/>
      <point x="729" y="2724"/>
      <point x="1366" y="3113"/>
      <point x="2107" y="3113" type="curve" smooth="yes"/>
      <point x="2709" y="3113"/>
      <point x="2968" y="2777"/>
      <point x="2968" y="2400" type="curve" smooth="yes"/>
      <point x="2968" y="2170"/>
      <point x="2798" y="2024"/>
      <point x="2614" y="2024" type="curve" smooth="yes"/>
      <point x="2430" y="2024"/>
      <point x="2257" y="2150"/>
      <point x="2257" y="2376" type="curve" smooth="yes"/>
      <point x="2257" y="2580"/>
      <point x="2434" y="2704"/>
      <point x="2614" y="2704" type="curve" smooth="yes"/>
      <point x="2764" y="2704"/>
      <point x="2864" y="2603"/>
      <point x="2896" y="2529" type="curve"/>
      <point x="2855" y="2805"/>
      <point x="2604" y="3046"/>
      <point x="2210" y="3046" type="curve" smooth="yes"/>
      <point x="1722" y="3046"/>
      <point x="1470" y="2617"/>
      <point x="1470" y="2314" type="curve" smooth="yes"/>
      <point x="1470" y="2052"/>
      <point x="1556" y="1926"/>
      <point x="1556" y="1598" type="curve" smooth="yes"/>
      <point x="1556" y="779"/>
      <point x="156" y="676"/>
      <point x="188" y="-82" type="curve"/>
      <point x="131" y="-82" type="line"/>
      <point x="73" y="487"/>
      <point x="856" y="786"/>
      <point x="856" y="1274" type="curve" smooth="yes"/>
      <point x="856" y="1516"/>
      <point x="729" y="1762"/>
    </contour>
  </outline>
</glyph>
<glyph name="brokenbar" format="2">
  <advance width="901"/>
  <unicode hex="00A6"/>
  <outline>
    <contour>
      <point x="420" y="680" type="line"/>
      <point x="471" y="680" type="line"/>
      <point x="78" y="-1024" type="line"/>
      <point x="27" y="-1024" type="line"/>
    </contour>
    <contour>
      <point x="1002" y="3195" type="line"/>
      <point x="1053" y="3195" type="line"/>
      <point x="700" y="1675" type="line"/>
      <point x="649" y="1675" type="line"/>
    </contour>
  </outline>
</glyph>
<glyph name="section" format="2">
  <advance width="1941"/>
  <unicode hex="00A7"/>
  <outline>
    <contour>
      <point x="926" y="2626" type="curve" smooth="yes"/>
      <point x="926" y="2184"/>
      <point x="1938" y="2285"/>
      <point x="1938" y="1667" type="curve" smooth="yes"/>
      <point x="1938" y="1339"/>
      <point x="1587" y="1203"/>
      <point x="1368" y="1060" type="curve"/>
      <point x="1329" y="1078" type="line"/>
      <point x="1444" y="1168"/>
      <point x="1546" y="1254"/>
      <point x="1546" y="1418" type="curve" smooth="yes"/>
      <point x="1546" y="1826"/>
      <point x="576" y="1673"/>
      <point x="576" y="2378" type="curve" smooth="yes"/>
      <point x="576" y="2804"/>
      <point x="1036" y="3113"/>
      <point x="1466" y="3113" type="curve" smooth="yes"/>
      <point x="1867" y="3113"/>
      <point x="2124" y="2854"/>
      <point x="2124" y="2584" type="curve" smooth="yes"/>
      <point x="2124" y="2334"/>
      <point x="1994" y="2212"/>
      <point x="1810" y="2212" type="curve" smooth="yes"/>
      <point x="1646" y="2212"/>
      <point x="1528" y="2314"/>
      <point x="1528" y="2502" type="curve" smooth="yes"/>
      <point x="1528" y="2654"/>
      <point x="1662" y="2768"/>
      <point x="1810" y="2768" type="curve" smooth="yes"/>
      <point x="1939" y="2768"/>
      <point x="2010" y="2708"/>
      <point x="2044" y="2672" type="curve"/>
      <point x="2024" y="2820"/>
      <point x="1870" y="3056"/>
      <point x="1466" y="3056" type="curve" smooth="yes"/>
      <point x="1167" y="3056"/>
      <point x="926" y="2880"/>
    </contour>
    <contour>
      <point x="1720" y="725" type="curve" smooth="yes"/>
      <point x="1720" y="299"/>
      <point x="1250" y="-41"/>
      <point x="738" y="-41" type="curve" smooth="yes"/>
      <point x="378" y="-41"/>
      <point x="-16" y="129"/>
      <point x="-16" y="522" type="curve" smooth="yes"/>
      <point x="-16" y="710"/>
      <point x="123" y="878"/>
      <point x="328" y="878" type="curve" smooth="yes"/>
      <point x="492" y="878"/>
      <point x="614" y="782"/>
      <point x="614" y="614" type="curve" smooth="yes"/>
      <point x="614" y="442"/>
      <point x="479" y="322"/>
      <point x="311" y="322" type="curve" smooth="yes"/>
      <point x="163" y="322"/>
      <point x="86" y="399"/>
      <point x="50" y="461" type="curve"/>
      <point x="95" y="145"/>
      <point x="433" y="12"/>
      <point x="738" y="12" type="curve" smooth="yes"/>
      <point x="1160" y="12"/>
      <point x="1356" y="280"/>
      <point x="1356" y="446" type="curve" smooth="yes"/>
      <point x="1356" y="874"/>
      <point x="283" y="786"/>
      <point x="283" y="1372" type="curve" smooth="yes"/>
      <point x="283" y="1667"/>
      <point x="627" y="1942"/>
      <point x="827" y="2028" type="curve"/>
      <point x="881" y="2028" type="line"/>
      <point x="827" y="1991"/>
      <point x="708" y="1870"/>
      <point x="708" y="1716" type="curve" smooth="yes"/>
      <point x="708" y="1268"/>
      <point x="1720" y="1389"/>
    </contour>
  </outline>
</glyph>
<glyph name="registered" format="2">
  <advance width="6960"/>
  <unicode hex="00AE"/>
  <outline>
    <contour>
      <point x="680" y="2440" type="curve" smooth="yes"/>
      <point x="680" y="4304"/>
      <point x="2456" y="6080"/>
      <point x="4320" y="6080" type="curve" smooth="yes"/>
      <point x="5864" y="6080"/>
      <point x="7000" y="5104"/>
      <point x="7000" y="3560" type="curve" smooth="yes"/>
      <point x="7000" y="1696"/>
      <point x="5224" y="-80"/>
      <point x="3360" y="-80" type="curve" smooth="yes"/>
      <point x="1816" y="-80"/>
      <point x="680" y="896"/>
    </contour>
    <contour>
      <point x="792" y="2440" type="curve" smooth="yes"/>
      <point x="792" y="960"/>
      <point x="1880" y="32"/>
      <point x="3360" y="32" type="curve" smooth="yes"/>
      <point x="5160" y="32"/>
      <point x="6888" y="1760"/>
      <point x="6888" y="3560" type="curve" smooth="yes"/>
      <point x="6888" y="5040"/>
      <point x="5800" y="5968"/>
      <point x="4320" y="5968" type="curve" smooth="yes"/>
      <point x="2520" y="5968"/>
      <point x="792" y="4240"/>
    </contour>
    <component base="R" xScale="0.6" yScale="0.6" xOffset="1944" yOffset="1184"/>
  </outline>
</glyph>
<glyph name="acute" format="2">
  <advance width="3240"/>
  <unicode hex="00B4"/>
  <outline>
    <contour>
      <point x="3680" y="5560" type="curve" smooth="yes"/>
      <point x="1840" y="5704" type="line"/>
      <point x="1808" y="5816" type="line"/>
      <point x="3600" y="6424" type="line" smooth="yes"/>
      <point x="3912" y="6536"/>
      <point x="4200" y="6272"/>
      <point x="4200" y="6000" type="curve" smooth="yes"/>
      <point x="4200" y="5728"/>
      <point x="3952" y="5528"/>
    </contour>
  </outline>
</glyph>
<glyph name="mu" format="2">
  <advance width="5288"/>
  <unicode hex="00B5"/>
  <outline>
    <contour>
      <point x="192" y="-728" type="line" smooth="yes"/>
      <point x="24" y="-1448"/>
      <point x="112" y="-1960"/>
      <point x="792" y="-2000" type="curve"/>
      <point x="880" y="-1984" type="line"/>
      <point x="664" y="-1856"/>
      <point x="560" y="-1672"/>
      <point x="560" y="-1448" type="curve" smooth="yes"/>
      <point x="560" y="-1176"/>
      <point x="784" y="-992"/>
      <point x="1048" y="-992" type="curve" smooth="yes"/>
      <point x="1312" y="-992"/>
      <point x="1536" y="-1216"/>
      <point x="1536" y="-1520" type="curve" smooth="yes"/>
      <point x="1536" y="-1832"/>
      <point x="1360" y="-2080"/>
      <point x="776" y="-2080" type="curve" smooth="yes"/>
      <point x="56" y="-2080"/>
      <point x="-96" y="-1488"/>
      <point x="80" y="-728" type="curve" smooth="yes"/>
      <point x="840" y="2568" type="line"/>
      <point x="952" y="2568" type="line"/>
    </contour>
    <component base="u"/>
  </outline>
</glyph>
<glyph name="cedilla" format="2">
  <advance width="2252"/>
  <unicode hex="00B8"/>
  <outline>
    <contour>
      <point x="971" y="-324" type="line"/>
      <point x="1462" y="168" type="line"/>
      <point x="1540" y="168" type="line"/>
      <point x="1049" y="-324" type="line"/>
    </contour>
    <contour>
      <point x="971" y="-324" type="curve"/>
      <point x="1163" y="-160" type="line"/>
      <point x="1503" y="-160"/>
      <point x="1778" y="-225"/>
      <point x="1778" y="-451" type="curve" smooth="yes"/>
      <point x="1778" y="-738"/>
      <point x="1360" y="-901"/>
      <point x="884" y="-901" type="curve"/>
      <point x="884" y="-844" type="line"/>
      <point x="1126" y="-844"/>
      <point x="1307" y="-729"/>
      <point x="1307" y="-532" type="curve" smooth="yes"/>
      <point x="1307" y="-376"/>
      <point x="1196" y="-324"/>
    </contour>
  </outline>
</glyph>
<glyph name="onequarter" format="2">
  <advance width="5128"/>
  <unicode hex="00BC"/>
  <outline>
    <contour>
      <point x="4992" y="5200" type="line"/>
      <point x="5088" y="5200" type="line"/>
      <point x="-40" y="-800" type="line"/>
      <point x="-136" y="-800" type="line"/>
    </contour>
    <component base="four" xScale="0.6" yScale="0.6" xOffset="1920" yOffset="-824"/>
    <component base="one" xScale="0.6" yScale="0.6" xOffset="816" yOffset="2848"/>
  </outline>
</glyph>
<glyph name="AE" format="2">
  <advance width="8240"/>
  <unicode hex="00C6"/>
  <outline>
    <contour>
      <point x="5712" y="6000" type="line"/>
      <point x="8992" y="6000" type="line"/>
      <point x="8608" y="4360" type="line"/>
      <point x="8496" y="4360" type="line"/>
      <point x="8576" y="5216"/>
      <point x="8248" y="5888"/>
      <point x="7312" y="5888" type="curve" smooth="yes"/>
      <point x="5712" y="5888" type="line"/>
    </contour>
    <contour>
      <point x="6024" y="3048" type="curve" smooth="yes"/>
      <point x="5496" y="3048" type="line"/>
      <point x="5496" y="3160" type="line"/>
      <point x="6024" y="3160" type="line" smooth="yes"/>
      <point x="6480" y="3160"/>
      <point x="6944" y="3528"/>
      <point x="7184" y="4064" type="curve"/>
      <point x="7296" y="4064" type="line"/>
      <point x="6848" y="2104" type="line"/>
      <point x="6736" y="2104" type="line"/>
      <point x="6736" y="2640"/>
      <point x="6480" y="3048"/>
    </contour>
    <contour>
      <point x="7680" y="0" type="line"/>
      <point x="3200" y="0" type="line"/>
      <point x="3200" y="112" type="line"/>
      <point x="5920" y="112" type="line" smooth="yes"/>
      <point x="7016" y="112"/>
      <point x="7632" y="784"/>
      <point x="7984" y="1800" type="curve"/>
      <point x="8096" y="1800" type="line"/>
    </contour>
    <contour>
      <point x="5272" y="6000" type="line"/>
      <point x="6512" y="6000" type="line"/>
      <point x="5120" y="0" type="line"/>
      <point x="3880" y="0" type="line"/>
    </contour>
    <contour>
      <point x="2072" y="2016" type="line"/>
      <point x="4440" y="2016" type="line"/>
      <point x="4440" y="1904" type="line"/>
      <point x="2072" y="1904" type="line"/>
    </contour>
    <contour>
      <point x="5192" y="6000" type="line"/>
      <point x="5328" y="6000" type="line"/>
      <point x="600" y="0" type="line"/>
      <point x="440" y="0" type="line"/>
    </contour>
    <contour>
      <point x="-200" y="112" type="line"/>
      <point x="1560" y="112" type="line"/>
      <point x="1560" y="0" type="line"/>
      <point x="-200" y="0" type="line"/>
    </contour>
  </outline>
</glyph>
<glyph name="germandbls" format="1">
  <advance width="766"/>
  <unicode hex="00DF"/>
  <outline>
    <contour>
      <point x="736" y="215" type="curve" smooth="yes"/>
      <point x="736" y="50"/>
      <point x="587" y="-10"/>
      <point x="471" y="-10" type="curve" smooth="yes"/>
      <point x="372" y="-10"/>
      <point x="328" y="59"/>
      <point x="328" y="136" type="curve" smooth="yes"/>
      <point x="328" y="197"/>
      <point x="365" y="241"/>
      <point x="415" y="241" type="curve" smooth="yes"/>
      <point x="460" y="241"/>
      <point x="494" y="211"/>
      <point x="494" y="165" type="curve" smooth="yes"/>
      <point x="494" y="123"/>
      <point x="450" y="90"/>
      <point x="411" y="90" type="curve" smooth="yes"/>
      <point x="377" y="90"/>
      <point x="358" y="103"/>
      <point x="344" y="120" type="curve"/>
      <point x="347" y="59"/>
      <point x="387" y="6"/>
      <point x="461" y="6" type="curve" smooth="yes"/>
      <point x="550" y="6"/>
      <point x="580" y="126"/>
      <point x="580" y="220" type="curve" smooth="yes"/>
      <point x="580" y="314"/>
      <point x="542" y="399"/>
      <point x="453" y="399" type="curve"/>
      <point x="453" y="409" type="line"/>
      <point x="634" y="409"/>
      <point x="736" y="345"/>
    </contour>
    <contour>
      <point x="-25" y="14" type="line"/>
      <point x="305" y="14" type="line"/>
      <point x="305" y="0" type="line"/>
      <point x="-25" y="0" type="line"/>
    </contour>
    <contour>
      <point x="453" y="402" type="curve"/>
      <point x="453" y="412" type="line"/>
      <point x="582" y="412"/>
      <point x="640" y="532"/>
      <point x="640" y="616" type="curve" smooth="yes"/>
      <point x="640" y="688"/>
      <point x="612" y="748"/>
      <point x="538" y="748" type="curve" smooth="yes"/>
      <point x="394" y="748"/>
      <point x="356" y="616"/>
      <point x="325" y="481" type="curve" smooth="yes"/>
      <point x="215" y="0" type="line"/>
      <point x="65" y="0" type="line"/>
      <point x="178" y="491" type="line" smooth="yes"/>
      <point x="218" y="669"/>
      <point x="345" y="760"/>
      <point x="543" y="760" type="curve" smooth="yes"/>
      <point x="676" y="760"/>
      <point x="798" y="714"/>
      <point x="798" y="601" type="curve" smooth="yes"/>
      <point x="798" y="481"/>
      <point x="654" y="402"/>
    </contour>
  </outline>
</glyph>
<glyph name="ae" format="2">
  <advance width="6704"/>
  <unicode hex="00E6"/>
  <outline>
    <contour>
      <point x="2192" y="2064" type="curve" smooth="yes"/>
      <point x="2864" y="2064" type="line"/>
      <point x="2864" y="1952" type="line"/>
      <point x="2432" y="1952" type="line" smooth="yes"/>
      <point x="1864" y="1952"/>
      <point x="1328" y="1360"/>
      <point x="1328" y="624" type="curve" smooth="yes"/>
      <point x="1328" y="208"/>
      <point x="1480" y="32"/>
      <point x="1680" y="32" type="curve" smooth="yes"/>
      <point x="2096" y="32"/>
      <point x="2448" y="664"/>
      <point x="2624" y="1448" type="curve" smooth="yes"/>
      <point x="2848" y="2440" type="line" smooth="yes"/>
      <point x="2960" y="2952"/>
      <point x="2944" y="3632"/>
      <point x="2344" y="3632" type="curve" smooth="yes"/>
      <point x="2016" y="3632"/>
      <point x="1632" y="3520"/>
      <point x="1472" y="3376" type="curve"/>
      <point x="1808" y="3472"/>
      <point x="2192" y="3320"/>
      <point x="2192" y="2944" type="curve" smooth="yes"/>
      <point x="2192" y="2584"/>
      <point x="1880" y="2328"/>
      <point x="1520" y="2328" type="curve" smooth="yes"/>
      <point x="1120" y="2328"/>
      <point x="904" y="2520"/>
      <point x="904" y="2848" type="curve" smooth="yes"/>
      <point x="904" y="3344"/>
      <point x="1616" y="3744"/>
      <point x="2424" y="3744" type="curve" smooth="yes"/>
      <point x="3464" y="3744"/>
      <point x="3896" y="3288"/>
      <point x="3768" y="2440" type="curve"/>
      <point x="3464" y="1448" type="line"/>
      <point x="3280" y="456"/>
      <point x="2408" y="-80"/>
      <point x="1440" y="-80" type="curve" smooth="yes"/>
      <point x="728" y="-80"/>
      <point x="144" y="152"/>
      <point x="144" y="744" type="curve" smooth="yes"/>
      <point x="144" y="1496"/>
      <point x="896" y="2064"/>
    </contour>
    <contour>
      <point x="5584" y="3032" type="curve" smooth="yes"/>
      <point x="5584" y="3368"/>
      <point x="5512" y="3664"/>
      <point x="5288" y="3664" type="curve" smooth="yes"/>
      <point x="4776" y="3664"/>
      <point x="4032" y="2352"/>
      <point x="4032" y="1040" type="curve" smooth="yes"/>
      <point x="4032" y="488"/>
      <point x="4200" y="112"/>
      <point x="4632" y="112" type="curve" smooth="yes"/>
      <point x="5192" y="112"/>
      <point x="5792" y="552"/>
      <point x="6168" y="1144" type="curve"/>
      <point x="6272" y="1144" type="line"/>
      <point x="5920" y="528"/>
      <point x="5240" y="-80"/>
      <point x="4232" y="-80" type="curve" smooth="yes"/>
      <point x="3584" y="-80"/>
      <point x="3000" y="320"/>
      <point x="3000" y="1280" type="curve"/>
      <point x="3160" y="1240" type="line"/>
      <point x="3176" y="2760"/>
      <point x="4208" y="3760"/>
      <point x="5368" y="3760" type="curve" smooth="yes"/>
      <point x="6024" y="3760"/>
      <point x="6672" y="3552"/>
      <point x="6672" y="2936" type="curve" smooth="yes"/>
      <point x="6672" y="1688"/>
      <point x="4528" y="1656"/>
      <point x="3960" y="1656" type="curve"/>
      <point x="3960" y="1760" type="line"/>
      <point x="4512" y="1760"/>
      <point x="5584" y="1984"/>
    </contour>
  </outline>
</glyph>
<glyph name="eth" format="2">
  <advance width="4880"/>
  <unicode hex="00F0"/>
  <outline>
    <contour>
      <point x="1880" y="5040" type="line"/>
      <point x="5400" y="5040" type="line"/>
      <point x="5400" y="4928" type="line"/>
      <point x="1880" y="4928" type="line"/>
    </contour>
    <contour>
      <point x="4856" y="3120" type="curve" smooth="yes"/>
      <point x="4856" y="1440"/>
      <point x="3496" y="-80"/>
      <point x="2088" y="-80" type="curve" smooth="yes"/>
      <point x="1000" y="-80"/>
      <point x="320" y="400"/>
      <point x="320" y="1440" type="curve" smooth="yes"/>
      <point x="320" y="3040"/>
      <point x="1744" y="3920"/>
      <point x="2712" y="3920" type="curve" smooth="yes"/>
      <point x="3528" y="3920"/>
      <point x="3608" y="3464"/>
      <point x="3568" y="2528" type="curve"/>
      <point x="3472" y="2960" type="line"/>
      <point x="3472" y="3400"/>
      <point x="3304" y="3744"/>
      <point x="2968" y="3744" type="curve" smooth="yes"/>
      <point x="2216" y="3744"/>
      <point x="1552" y="2072"/>
      <point x="1552" y="960" type="curve" smooth="yes"/>
      <point x="1552" y="408"/>
      <point x="1632" y="32"/>
      <point x="2064" y="32" type="curve" smooth="yes"/>
      <point x="2736" y="32"/>
      <point x="3472" y="1848"/>
      <point x="3472" y="2960" type="curve"/>
      <point x="3536" y="2928" type="line"/>
      <point x="3632" y="4528"/>
      <point x="3424" y="5984"/>
      <point x="1920" y="5984" type="curve"/>
      <point x="1920" y="6080" type="line"/>
      <point x="3904" y="6080"/>
      <point x="4856" y="4784"/>
    </contour>
  </outline>
</glyph>
<glyph name="thorn" format="2">
  <advance width="4888"/>
  <unicode hex="00FE"/>
  <outline>
    <contour>
      <point x="1792" y="1200" type="curve" smooth="yes"/>
      <point x="1792" y="696"/>
      <point x="1960" y="328"/>
      <point x="2240" y="328" type="curve" smooth="yes"/>
      <point x="2792" y="328"/>
      <point x="3440" y="1616"/>
      <point x="3440" y="2688" type="curve" smooth="yes"/>
      <point x="3440" y="3152"/>
      <point x="3288" y="3456"/>
      <point x="3000" y="3456" type="curve" smooth="yes"/>
      <point x="2328" y="3456"/>
      <point x="1792" y="2048"/>
    </contour>
    <contour>
      <point x="1696" y="1200" type="curve" smooth="yes"/>
      <point x="1696" y="2064"/>
      <point x="2272" y="3792"/>
      <point x="3400" y="3792" type="curve" smooth="yes"/>
      <point x="3952" y="3792"/>
      <point x="4672" y="3472"/>
      <point x="4672" y="2432" type="curve" smooth="yes"/>
      <point x="4672" y="832"/>
      <point x="3416" y="-32"/>
      <point x="2608" y="-32" type="curve" smooth="yes"/>
      <point x="2000" y="-32"/>
      <point x="1696" y="464"/>
    </contour>
    <contour>
      <point x="-680" y="-1888" type="line"/>
      <point x="1520" y="-1888" type="line"/>
      <point x="1520" y="-2000" type="line"/>
      <point x="-680" y="-2000" type="line"/>
    </contour>
    <contour>
      <point x="1648" y="5888" type="line"/>
      <point x="1104" y="5888" type="line"/>
      <point x="1104" y="6000" type="line"/>
      <point x="2800" y="6000" type="line"/>
      <point x="1952" y="2336" type="line"/>
      <point x="1776" y="1736" type="line"/>
      <point x="1728" y="1280" type="line"/>
      <point x="960" y="-2000" type="line"/>
      <point x="-160" y="-2000" type="line"/>
    </contour>
  </outline>
</glyph>
<glyph name="dotlessi" format="2">
  <advance width="2928"/>
  <unicode hex="0131"/>
  <outline>
    <contour>
      <point x="2768" y="1304" type="line"/>
      <point x="2464" y="504"/>
      <point x="1920" y="-80"/>
      <point x="1152" y="-80" type="curve" smooth="yes"/>
      <point x="656" y="-80"/>
      <point x="400" y="104"/>
      <point x="400" y="584" type="curve" smooth="yes"/>
      <point x="400" y="624"/>
      <point x="400" y="712"/>
      <point x="416" y="760" type="curve" smooth="yes"/>
      <point x="1088" y="3568" type="line"/>
      <point x="496" y="3568" type="line"/>
      <point x="496" y="3680" type="line"/>
      <point x="2240" y="3680" type="line"/>
      <point x="1456" y="472" type="line" smooth="yes"/>
      <point x="1448" y="424"/>
      <point x="1440" y="368"/>
      <point x="1440" y="328" type="curve" smooth="yes"/>
      <point x="1440" y="240"/>
      <point x="1480" y="168"/>
      <point x="1584" y="168" type="curve" smooth="yes"/>
      <point x="1984" y="168"/>
      <point x="2448" y="728"/>
      <point x="2672" y="1336" type="curve"/>
    </contour>
  </outline>
</glyph>
<glyph name="dotlessi" format="1">
  <advance width="366"/>
  <unicode hex="0131"/>
  <outline>
    <contour>
      <point x="346" y="163" type="line"/>
      <point x="308" y="63"/>
      <point x="240" y="-10"/>
      <point x="144" y="-10" type="curve" smooth="yes"/>
      <point x="82" y="-10"/>
      <point x="50" y="13"/>
      <point x="50" y="73" type="curve" smooth="yes"/>
      <point x="50" y="78"/>
      <point x="50" y="89"/>
      <point x="52" y="95" type="curve" smooth="yes"/>
      <point x="136" y="446" type="line"/>
      <point x="62" y="446" type="line"/>
      <point x="62" y="460" type="line"/>
      <point x="280" y="460" type="line"/>
      <point x="182" y="59" type="line" smooth="yes"/>
      <point x="181" y="53"/>
      <point x="180" y="46"/>
      <point x="180" y="41" type="curve" smooth="yes"/>
      <point x="180" y="30"/>
      <point x="185" y="21"/>
      <point x="198" y="21" type="curve" smooth="yes"/>
      <point x="248" y="21"/>
      <point x="306" y="91"/>
      <point x="334" y="167" type="curve"/>
    </contour>
  </outline>
</glyph>
<glyph name="kgreenlandic" format="2">
  <advance width="4912"/>
  <unicode hex="0138"/>
  <outline>
    <contour>
      <point x="4736" y="1304" type="line"/>
      <point x="4432" y="504"/>
      <point x="3920" y="-80"/>
      <point x="3192" y="-80" type="curve" smooth="yes"/>
      <point x="2696" y="-80"/>
      <point x="2384" y="104"/>
      <point x="2384" y="584" type="curve" smooth="yes"/>
      <point x="2384" y="624"/>
      <point x="2392" y="712"/>
      <point x="2400" y="760" type="curve" smooth="yes"/>
      <point x="2480" y="1120" type="line" smooth="yes"/>
      <point x="2576" y="1584"/>
      <point x="2840" y="2168"/>
      <point x="2432" y="2168" type="curve" smooth="yes"/>
      <point x="2048" y="2168"/>
      <point x="1904" y="1808"/>
      <point x="1832" y="1520" type="curve"/>
      <point x="1752" y="1520" type="line"/>
      <point x="1928" y="2208"/>
      <point x="2240" y="2336"/>
      <point x="2688" y="2336" type="curve" smooth="yes"/>
      <point x="3240" y="2336"/>
      <point x="3776" y="2008"/>
      <point x="3536" y="968" type="curve" smooth="yes"/>
      <point x="3408" y="344" type="line" smooth="yes"/>
      <point x="3408" y="328"/>
      <point x="3392" y="288"/>
      <point x="3392" y="272" type="curve" smooth="yes"/>
      <point x="3392" y="184"/>
      <point x="3448" y="144"/>
      <point x="3552" y="144" type="curve" smooth="yes"/>
      <point x="3960" y="144"/>
      <point x="4424" y="744"/>
      <point x="4632" y="1336" type="curve"/>
    </contour>
    <contour>
      <point x="1760" y="2576" type="curve"/>
      <point x="1888" y="2512" type="line"/>
      <point x="1904" y="2208"/>
      <point x="1984" y="2040"/>
      <point x="2232" y="2040" type="curve" smooth="yes"/>
      <point x="2552" y="2040"/>
      <point x="2672" y="2384"/>
      <point x="2880" y="2896" type="curve" smooth="yes"/>
      <point x="3104" y="3440"/>
      <point x="3432" y="3760"/>
      <point x="3872" y="3760" type="curve" smooth="yes"/>
      <point x="4312" y="3760"/>
      <point x="4720" y="3448"/>
      <point x="4720" y="2952" type="curve" smooth="yes"/>
      <point x="4720" y="2552"/>
      <point x="4448" y="2312"/>
      <point x="4128" y="2312" type="curve" smooth="yes"/>
      <point x="3808" y="2312"/>
      <point x="3568" y="2568"/>
      <point x="3568" y="2872" type="curve" smooth="yes"/>
      <point x="3568" y="3176"/>
      <point x="3816" y="3408"/>
      <point x="4120" y="3408" type="curve" smooth="yes"/>
      <point x="4304" y="3408"/>
      <point x="4448" y="3312"/>
      <point x="4496" y="3232" type="curve"/>
      <point x="4432" y="3488"/>
      <point x="4168" y="3648"/>
      <point x="3872" y="3648" type="curve" smooth="yes"/>
      <point x="3504" y="3648"/>
      <point x="3208" y="3392"/>
      <point x="2992" y="2856" type="curve" smooth="yes"/>
      <point x="2776" y="2312"/>
      <point x="2632" y="1936"/>
      <point x="2232" y="1936" type="curve" smooth="yes"/>
      <point x="1928" y="1936"/>
      <point x="1760" y="2160"/>
    </contour>
    <contour>
      <point x="1184" y="3568" type="line"/>
      <point x="496" y="3568" type="line"/>
      <point x="496" y="3680" type="line"/>
      <point x="2336" y="3680" type="line"/>
      <point x="1480" y="0" type="line"/>
      <point x="360" y="0" type="line"/>
    </contour>
  </outline>
</glyph>
<glyph name="lslash" format="2">
  <advance width="1484"/>
  <unicode hex="0142"/>
  <outline>
    <contour>
      <point x="136" y="1556" type="line"/>
      <point x="1548" y="2376" type="line"/>
      <point x="1548" y="2304" type="line"/>
      <point x="136" y="1485" type="line"/>
    </contour>
    <component base="l"/>
  </outline>
</glyph>
<glyph name="lslash" format="1">
  <advance width="362"/>
  <unicode hex="0142"/>
  <outline>
    <contour>
      <point x="33" y="380" type="line"/>
      <point x="378" y="580" type="line"/>
      <point x="378" y="562" type="line"/>
      <point x="33" y="362" type="line"/>
    </contour>
    <component base="l"/>
  </outline>
</glyph>
<glyph name="uni0212" format="2">
  <advance width="3143"/>
  <unicode hex="0212"/>
  <outline>
    <contour>
      <point x="2410" y="3359" type="line"/>
      <point x="2440" y="3535"/>
      <point x="2279" y="3621"/>
      <point x="2058" y="3621" type="curve" smooth="yes"/>
      <point x="1837" y="3621"/>
      <point x="1596" y="3560"/>
      <point x="1542" y="3359" type="curve"/>
      <point x="1484" y="3359" type="line"/>
      <point x="1525" y="3609"/>
      <point x="1669" y="4010"/>
      <point x="2099" y="4010" type="curve" smooth="yes"/>
      <point x="2509" y="4010"/>
      <point x="2509" y="3609"/>
      <point x="2468" y="3359" type="curve"/>
    </contour>
    <component base="R"/>
  </outline>
</glyph>
<glyph name="uni0213" format="2">
  <advance width="482"/>
  <unicode hex="0213"/>
  <outline>
    <contour>
      <point x="422" y="535" type="line"/>
      <point x="430" y="578"/>
      <point x="388" y="599"/>
      <point x="334" y="599" type="curve" smooth="yes"/>
      <point x="280" y="599"/>
      <point x="221" y="584"/>
      <point x="208" y="535" type="curve"/>
      <point x="194" y="535" type="line"/>
      <point x="204" y="596"/>
      <point x="239" y="694"/>
      <point x="344" y="694" type="curve" smooth="yes"/>
      <point x="444" y="694"/>
      <point x="444" y="596"/>
      <point x="434" y="535" type="curve"/>
    </contour>
    <component base="r"/>
  </outline>
</glyph>
<glyph name="uni0237" format="2">
  <advance width="2392"/>
  <unicode hex="0237"/>
  <outline>
    <contour>
      <point x="-1296" y="-1552" type="curve"/>
      <point x="-1200" y="-1760"/>
      <point x="-912" y="-1952"/>
      <point x="-576" y="-1952" type="curve" smooth="yes"/>
      <point x="184" y="-1952"/>
      <point x="136" y="-800"/>
      <point x="360" y="160" type="curve" smooth="yes"/>
      <point x="1152" y="3568" type="line"/>
      <point x="424" y="3568" type="line"/>
      <point x="424" y="3680" type="line"/>
      <point x="2288" y="3680" type="line"/>
      <point x="1504" y="-96" type="line" smooth="yes"/>
      <point x="1296" y="-1096"/>
      <point x="504" y="-2080"/>
      <point x="-536" y="-2080" type="curve" smooth="yes"/>
      <point x="-1184" y="-2080"/>
      <point x="-1640" y="-1584"/>
      <point x="-1640" y="-1168" type="curve" smooth="yes"/>
      <point x="-1640" y="-760"/>
      <point x="-1304" y="-472"/>
      <point x="-944" y="-472" type="curve" smooth="yes"/>
      <point x="-624" y="-472"/>
      <point x="-336" y="-704"/>
      <point x="-336" y="-1040" type="curve" smooth="yes"/>
      <point x="-336" y="-1416"/>
      <point x="-648" y="-1680"/>
      <point x="-1008" y="-1680" type="curve" smooth="yes"/>
      <point x="-1120" y="-1680"/>
      <point x="-1232" y="-1624"/>
    </contour>
  </outline>
</glyph>
<glyph name="circumflex" format="2">
  <advance width="435"/>
  <unicode hex="02C6"/>
  <outline>
    <contour>
      <point x="347" y="700" type="line"/>
      <point x="167" y="628" type="line"/>
      <point x="160" y="635" type="line"/>
      <point x="307" y="770" type="line"/>
      <point x="392" y="770" type="line"/>
      <point x="495" y="635" type="line"/>
      <point x="488" y="628" type="line"/>
    </contour>
  </outline>
</glyph>
<glyph name="caron" format="1">
  <advance width="435"/>
  <unicode hex="02C7"/>
  <outline>
    <contour>
      <point x="314" y="725" type="line"/>
      <point x="494" y="797" type="line"/>
      <point x="501" y="790" type="line"/>
      <point x="355" y="655" type="line"/>
      <point x="270" y="655" type="line"/>
      <point x="166" y="790" type="line"/>
      <point x="173" y="797" type="line"/>
    </contour>
  </outline>
</glyph>
<glyph name="breve" format="2">
  <advance width="2400"/>
  <unicode hex="02D8"/>
  <outline>
    <contour>
      <point x="1392" y="6072" type="line"/>
      <point x="1328" y="5728"/>
      <point x="1648" y="5560"/>
      <point x="2080" y="5560" type="curve" smooth="yes"/>
      <point x="2512" y="5560"/>
      <point x="2984" y="5680"/>
      <point x="3088" y="6072" type="curve"/>
      <point x="3200" y="6072" type="line"/>
      <point x="3120" y="5584"/>
      <point x="2840" y="4800"/>
      <point x="2000" y="4800" type="curve" smooth="yes"/>
      <point x="1240" y="4800"/>
      <point x="1200" y="5584"/>
      <point x="1280" y="6072" type="curve"/>
    </contour>
  </outline>
</glyph>
<glyph name="ring" format="2">
  <advance width="1310"/>
  <unicode hex="02DA"/>
  <outline>
    <contour>
      <point x="727" y="2785" type="curve" smooth="yes"/>
      <point x="727" y="2994"/>
      <point x="897" y="3154"/>
      <point x="1147" y="3154" type="curve" smooth="yes"/>
      <point x="1397" y="3154"/>
      <point x="1567" y="2994"/>
      <point x="1567" y="2785" type="curve" smooth="yes"/>
      <point x="1567" y="2576"/>
      <point x="1397" y="2417"/>
      <point x="1147" y="2417" type="curve" smooth="yes"/>
      <point x="897" y="2417"/>
      <point x="727" y="2576"/>
    </contour>
    <contour>
      <point x="969" y="2644" type="curve" smooth="yes"/>
      <point x="969" y="2560"/>
      <point x="995" y="2474"/>
      <point x="1106" y="2474" type="curve" smooth="yes"/>
      <point x="1238" y="2474"/>
      <point x="1325" y="2774"/>
      <point x="1325" y="2926" type="curve" smooth="yes"/>
      <point x="1325" y="3010"/>
      <point x="1299" y="3097"/>
      <point x="1188" y="3097" type="curve" smooth="yes"/>
      <point x="1056" y="3097"/>
      <point x="969" y="2796"/>
    </contour>
  </outline>
</glyph>
<glyph name="ogonek" format="2">
  <advance width="550"/>
  <unicode hex="02DB"/>
  <outline>
    <contour>
      <point x="353" y="-113" type="line"/>
      <point x="338" y="-141"/>
      <point x="299" y="-196"/>
      <point x="213" y="-196" type="curve" smooth="yes"/>
      <point x="152" y="-196"/>
      <point x="99" y="-175"/>
      <point x="99" y="-120" type="curve" smooth="yes"/>
      <point x="99" y="-40"/>
      <point x="228" y="18"/>
      <point x="309" y="43" type="curve"/>
      <point x="312" y="36" type="line"/>
      <point x="281" y="17"/>
      <point x="236" y="-37"/>
      <point x="236" y="-107" type="curve" smooth="yes"/>
      <point x="236" y="-146"/>
      <point x="248" y="-166"/>
      <point x="270" y="-166" type="curve" smooth="yes"/>
      <point x="303" y="-166"/>
      <point x="330" y="-130"/>
      <point x="342" y="-108" type="curve"/>
    </contour>
  </outline>
</glyph>
<glyph name="tilde" format="2">
  <advance width="448"/>
  <unicode hex="02DC"/>
  <outline>
    <contour>
      <point x="232" y="654" type="curve" smooth="yes"/>
      <point x="202" y="654"/>
      <point x="179" y="642"/>
      <point x="159" y="600" type="curve"/>
      <point x="145" y="600" type="line"/>
      <point x="165" y="685"/>
      <point x="210" y="742"/>
      <point x="274" y="742" type="curve" smooth="yes"/>
      <point x="344" y="742"/>
      <point x="386" y="663"/>
      <point x="436" y="663" type="curve" smooth="yes"/>
      <point x="466" y="663"/>
      <point x="489" y="675"/>
      <point x="509" y="717" type="curve"/>
      <point x="523" y="717" type="line"/>
      <point x="503" y="622"/>
      <point x="468" y="575"/>
      <point x="404" y="575" type="curve" smooth="yes"/>
      <point x="327" y="575"/>
      <point x="289" y="654"/>
    </contour>
  </outline>
</glyph>
<glyph name="pi" format="2">
  <advance width="2625"/>
  <unicode hex="03C0"/>
  <outline>
    <contour>
      <point x="406" y="-41" type="curve" smooth="yes"/>
      <point x="218" y="-41"/>
      <point x="102" y="75"/>
      <point x="102" y="218" type="curve" smooth="yes"/>
      <point x="102" y="640"/>
      <point x="667" y="387"/>
      <point x="901" y="1184" type="curve" smooth="yes"/>
      <point x="1094" y="1843" type="line"/>
      <point x="1323" y="1843" type="line"/>
      <point x="1098" y="995" type="line" smooth="yes"/>
      <point x="938" y="389"/>
      <point x="828" y="-41"/>
    </contour>
    <contour>
      <point x="2400" y="422" type="line"/>
      <point x="2286" y="135"/>
      <point x="2094" y="-41"/>
      <point x="1774" y="-41" type="curve" smooth="yes"/>
      <point x="1500" y="-41"/>
      <point x="1310" y="168"/>
      <point x="1376" y="434" type="curve" smooth="yes"/>
      <point x="1704" y="1720" type="line"/>
      <point x="2318" y="1720" type="line"/>
      <point x="1972" y="432" type="line" smooth="yes"/>
      <point x="1931" y="280"/>
      <point x="1997" y="238"/>
      <point x="2095" y="238" type="curve" smooth="yes"/>
      <point x="2199" y="238"/>
      <point x="2282" y="305"/>
      <point x="2360" y="446" type="curve"/>
    </contour>
    <contour>
      <point x="2687" y="1884" type="line"/>
      <point x="2512" y="1311" type="line"/>
      <point x="358" y="1311" type="line"/>
      <point x="284" y="1004" type="line"/>
      <point x="228" y="1004" type="line"/>
      <point x="438" y="1884" type="line"/>
    </contour>
  </outline>
</glyph>
<glyph name="uni1E9E" format="2">
  <advance width="3505"/>
  <unicode hex="1E9E"/>
  <outline>
    <contour>
      <point x="1378" y="598" type="curve" smooth="yes"/>
      <point x="1378" y="817"/>
      <point x="1516" y="987"/>
      <point x="1720" y="987" type="curve" smooth="yes"/>
      <point x="1904" y="987"/>
      <point x="2044" y="864"/>
      <point x="2044" y="676" type="curve" smooth="yes"/>
      <point x="2044" y="504"/>
      <point x="1868" y="369"/>
      <point x="1708" y="369" type="curve" smooth="yes"/>
      <point x="1585" y="369"/>
      <point x="1503" y="428"/>
      <point x="1460" y="477" type="curve"/>
      <point x="1501" y="227"/>
      <point x="1702" y="30"/>
      <point x="2062" y="30" type="curve" smooth="yes"/>
      <point x="2529" y="30"/>
      <point x="2734" y="557"/>
      <point x="2734" y="983" type="curve" smooth="yes"/>
      <point x="2734" y="1327"/>
      <point x="2609" y="1634"/>
      <point x="2224" y="1634" type="curve"/>
      <point x="2224" y="1675" type="line"/>
      <point x="3006" y="1675"/>
      <point x="3384" y="1454"/>
      <point x="3384" y="962" type="curve" smooth="yes"/>
      <point x="3384" y="266"/>
      <point x="2742" y="-41"/>
      <point x="2124" y="-41" type="curve" smooth="yes"/>
      <point x="1579" y="-41"/>
      <point x="1378" y="266"/>
    </contour>
    <contour>
      <point x="-102" y="57" type="line"/>
      <point x="1270" y="57" type="line"/>
      <point x="1270" y="0" type="line"/>
      <point x="-102" y="0" type="line"/>
    </contour>
    <contour>
      <point x="2224" y="1647" type="curve"/>
      <point x="2224" y="1688" type="line"/>
      <point x="2854" y="1688"/>
      <point x="2980" y="2261"/>
      <point x="2980" y="2564" type="curve" smooth="yes"/>
      <point x="2980" y="2818"/>
      <point x="2855" y="3064"/>
      <point x="2429" y="3064" type="curve" smooth="yes"/>
      <point x="1737" y="3064"/>
      <point x="1473" y="2478"/>
      <point x="1331" y="1868" type="curve" smooth="yes"/>
      <point x="901" y="0" type="line"/>
      <point x="266" y="0" type="line"/>
      <point x="706" y="1908" type="line" smooth="yes"/>
      <point x="884" y="2696"/>
      <point x="1516" y="3113"/>
      <point x="2450" y="3113" type="curve" smooth="yes"/>
      <point x="3180" y="3113"/>
      <point x="3640" y="2904"/>
      <point x="3640" y="2482" type="curve" smooth="yes"/>
      <point x="3640" y="2052"/>
      <point x="3150" y="1647"/>
    </contour>
  </outline>
</glyph>
<glyph name="perthousand" format="1">
  <advance width="1495"/>
  <unicode hex="2030"/>
  <outline>
    <contour>
      <point x="1225" y="-10" type="curve" smooth="yes"/>
      <point x="1122" y="-10"/>
      <point x="1050" y="37"/>
      <point x="1050" y="140" type="curve" smooth="yes"/>
      <point x="1050" y="303"/>
      <point x="1172" y="430"/>
      <point x="1315" y="430" type="curve" smooth="yes"/>
      <point x="1418" y="430"/>
      <point x="1490" y="383"/>
      <point x="1490" y="280" type="curve" smooth="yes"/>
      <point x="1490" y="117"/>
      <point x="1368" y="-10"/>
    </contour>
    <contour>
      <point x="1320" y="416" type="curve" smooth="yes"/>
      <point x="1261" y="416"/>
      <point x="1185" y="191"/>
      <point x="1185" y="84" type="curve" smooth="yes"/>
      <point x="1185" y="40"/>
      <point x="1196" y="4"/>
      <point x="1220" y="4" type="curve" smooth="yes"/>
      <point x="1279" y="4"/>
      <point x="1352" y="229"/>
      <point x="1352" y="336" type="curve" smooth="yes"/>
      <point x="1352" y="380"/>
      <point x="1344" y="416"/>
    </contour>
    <contour>
      <point x="730" y="-10" type="curve" smooth="yes"/>
      <point x="627" y="-10"/>
      <point x="555" y="37"/>
      <point x="555" y="140" type="curve" smooth="yes"/>
      <point x="555" y="303"/>
      <point x="677" y="430"/>
      <point x="820" y="430" type="curve" smooth="yes"/>
      <point x="923" y="430"/>
      <point x="995" y="383"/>
      <point x="995" y="280" type="curve" smooth="yes"/>
      <point x="995" y="117"/>
      <point x="873" y="-10"/>
    </contour>
    <contour>
      <point x="825" y="416" type="curve" smooth="yes"/>
      <point x="766" y="416"/>
      <point x="690" y="191"/>
      <point x="690" y="84" type="curve" smooth="yes"/>
      <point x="690" y="40"/>
      <point x="701" y="4"/>
      <point x="725" y="4" type="curve" smooth="yes"/>
      <point x="784" y="4"/>
      <point x="858" y="229"/>
      <point x="858" y="336" type="curve" smooth="yes"/>
      <point x="858" y="380"/>
      <point x="849" y="416"/>
    </contour>
    <contour>
      <point x="877" y="750" type="line"/>
      <point x="895" y="750" type="line"/>
      <point x="211" y="0" type="line"/>
      <point x="193" y="0" type="line"/>
    </contour>
    <contour>
      <point x="275" y="320" type="curve" smooth="yes"/>
      <point x="172" y="320"/>
      <point x="100" y="367"/>
      <point x="100" y="470" type="curve" smooth="yes"/>
      <point x="100" y="633"/>
      <point x="222" y="760"/>
      <point x="365" y="760" type="curve" smooth="yes"/>
      <point x="468" y="760"/>
      <point x="540" y="713"/>
      <point x="540" y="610" type="curve" smooth="yes"/>
      <point x="540" y="447"/>
      <point x="418" y="320"/>
    </contour>
    <contour>
      <point x="370" y="746" type="curve" smooth="yes"/>
      <point x="311" y="746"/>
      <point x="235" y="521"/>
      <point x="235" y="414" type="curve" smooth="yes"/>
      <point x="235" y="370"/>
      <point x="246" y="334"/>
      <point x="270" y="334" type="curve" smooth="yes"/>
      <point x="329" y="334"/>
      <point x="402" y="561"/>
      <point x="402" y="668" type="curve" smooth="yes"/>
      <point x="402" y="712"/>
      <point x="394" y="746"/>
    </contour>
  </outline>
</glyph>
<glyph name="uni2031" format="2">
  <advance width="15960"/>
  <unicode hex="2031"/>
  <outline>
    <contour>
      <point x="13824" y="-80" type="curve" smooth="yes"/>
      <point x="13000" y="-80"/>
      <point x="12424" y="296"/>
      <point x="12424" y="1120" type="curve" smooth="yes"/>
      <point x="12424" y="2424"/>
      <point x="13400" y="3440"/>
      <point x="14544" y="3440" type="curve" smooth="yes"/>
      <point x="15368" y="3440"/>
      <point x="15944" y="3064"/>
      <point x="15944" y="2240" type="curve" smooth="yes"/>
      <point x="15944" y="936"/>
      <point x="14968" y="-80"/>
    </contour>
    <contour>
      <point x="14584" y="3328" type="curve" smooth="yes"/>
      <point x="14112" y="3328"/>
      <point x="13504" y="1528"/>
      <point x="13504" y="672" type="curve" smooth="yes"/>
      <point x="13504" y="320"/>
      <point x="13592" y="32"/>
      <point x="13784" y="32" type="curve" smooth="yes"/>
      <point x="14256" y="32"/>
      <point x="14848" y="1832"/>
      <point x="14848" y="2688" type="curve" smooth="yes"/>
      <point x="14848" y="3040"/>
      <point x="14776" y="3328"/>
    </contour>
    <contour>
      <point x="9800" y="-80" type="curve" smooth="yes"/>
      <point x="8976" y="-80"/>
      <point x="8400" y="296"/>
      <point x="8400" y="1120" type="curve" smooth="yes"/>
      <point x="8400" y="2424"/>
      <point x="9376" y="3440"/>
      <point x="10520" y="3440" type="curve" smooth="yes"/>
      <point x="11344" y="3440"/>
      <point x="11920" y="3064"/>
      <point x="11920" y="2240" type="curve" smooth="yes"/>
      <point x="11920" y="936"/>
      <point x="10944" y="-80"/>
    </contour>
    <contour>
      <point x="10560" y="3328" type="curve" smooth="yes"/>
      <point x="10088" y="3328"/>
      <point x="9480" y="1528"/>
      <point x="9480" y="672" type="curve" smooth="yes"/>
      <point x="9480" y="320"/>
      <point x="9568" y="32"/>
      <point x="9760" y="32" type="curve" smooth="yes"/>
      <point x="10232" y="32"/>
      <point x="10816" y="1832"/>
      <point x="10816" y="2688" type="curve" smooth="yes"/>
      <point x="10816" y="3040"/>
      <point x="10752" y="3328"/>
    </contour>
    <contour>
      <point x="5840" y="-80" type="curve" smooth="yes"/>
      <point x="5016" y="-80"/>
      <point x="4440" y="296"/>
      <point x="4440" y="1120" type="curve" smooth="yes"/>
      <point x="4440" y="2424"/>
      <point x="5416" y="3440"/>
      <point x="6560" y="3440" type="curve" smooth="yes"/>
      <point x="7384" y="3440"/>
      <point x="7960" y="3064"/>
      <point x="7960" y="2240" type="curve" smooth="yes"/>
      <point x="7960" y="936"/>
      <point x="6984" y="-80"/>
    </contour>
    <contour>
      <point x="6600" y="3328" type="curve" smooth="yes"/>
      <point x="6128" y="3328"/>
      <point x="5520" y="1528"/>
      <point x="5520" y="672" type="curve" smooth="yes"/>
      <point x="5520" y="320"/>
      <point x="5608" y="32"/>
      <point x="5800" y="32" type="curve" smooth="yes"/>
      <point x="6272" y="32"/>
      <point x="6864" y="1832"/>
      <point x="6864" y="2688" type="curve" smooth="yes"/>
      <point x="6864" y="3040"/>
      <point x="6792" y="3328"/>
    </contour>
    <contour>
      <point x="7016" y="6000" type="line"/>
      <point x="7160" y="6000" type="line"/>
      <point x="1688" y="0" type="line"/>
      <point x="1544" y="0" type="line"/>
    </contour>
    <contour>
      <point x="2200" y="2560" type="curve" smooth="yes"/>
      <point x="1376" y="2560"/>
      <point x="800" y="2936"/>
      <point x="800" y="3760" type="curve" smooth="yes"/>
      <point x="800" y="5064"/>
      <point x="1776" y="6080"/>
      <point x="2920" y="6080" type="curve" smooth="yes"/>
      <point x="3744" y="6080"/>
      <point x="4320" y="5704"/>
      <point x="4320" y="4880" type="curve" smooth="yes"/>
      <point x="4320" y="3576"/>
      <point x="3344" y="2560"/>
    </contour>
    <contour>
      <point x="2960" y="5968" type="curve" smooth="yes"/>
      <point x="2488" y="5968"/>
      <point x="1880" y="4168"/>
      <point x="1880" y="3312" type="curve" smooth="yes"/>
      <point x="1880" y="2960"/>
      <point x="1968" y="2672"/>
      <point x="2160" y="2672" type="curve" smooth="yes"/>
      <point x="2632" y="2672"/>
      <point x="3216" y="4488"/>
      <point x="3216" y="5344" type="curve" smooth="yes"/>
      <point x="3216" y="5696"/>
      <point x="3152" y="5968"/>
    </contour>
  </outline>
</glyph>
<glyph name="uni2031" format="1">
  <advance width="1995"/>
  <unicode hex="2031"/>
  <outline>
    <contour>
      <point x="1728" y="-10" type="curve" smooth="yes"/>
      <point x="1625" y="-10"/>
      <point x="1553" y="37"/>
      <point x="1553" y="140" type="curve" smooth="yes"/>
      <point x="1553" y="303"/>
      <point x="1675" y="430"/>
      <point x="1818" y="430" type="curve" smooth="yes"/>
      <point x="1921" y="430"/>
      <point x="1993" y="383"/>
      <point x="1993" y="280" type="curve" smooth="yes"/>
      <point x="1993" y="117"/>
      <point x="1871" y="-10"/>
    </contour>
    <contour>
      <point x="1823" y="416" type="curve" smooth="yes"/>
      <point x="1764" y="416"/>
      <point x="1688" y="191"/>
      <point x="1688" y="84" type="curve" smooth="yes"/>
      <point x="1688" y="40"/>
      <point x="1699" y="4"/>
      <point x="1723" y="4" type="curve" smooth="yes"/>
      <point x="1782" y="4"/>
      <point x="1856" y="229"/>
      <point x="1856" y="336" type="curve" smooth="yes"/>
      <point x="1856" y="380"/>
      <point x="1847" y="416"/>
    </contour>
    <contour>
      <point x="1225" y="-10" type="curve" smooth="yes"/>
      <point x="1122" y="-10"/>
      <point x="1050" y="37"/>
      <point x="1050" y="140" type="curve" smooth="yes"/>
      <point x="1050" y="303"/>
      <point x="1172" y="430"/>
      <point x="1315" y="430" type="curve" smooth="yes"/>
      <point x="1418" y="430"/>
      <point x="1490" y="383"/>
      <point x="1490" y="280" type="curve" smooth="yes"/>
      <point x="1490" y="117"/>
      <point x="1368" y="-10"/>
    </contour>
    <contour>
      <point x="1320" y="416" type="curve" smooth="yes"/>
      <point x="1261" y="416"/>
      <point x="1185" y="191"/>
      <point x="1185" y="84" type="curve" smooth="yes"/>
      <point x="1185" y="40"/>
      <point x="1196" y="4"/>
      <point x="1220" y="4" type="curve" smooth="yes"/>
      <point x="1279" y="4"/>
      <point x="1352" y="229"/>
      <point x="1352" y="336" type="curve" smooth="yes"/>
      <point x="1352" y="380"/>
      <point x="1344" y="416"/>
    </contour>
    <contour>
      <point x="730" y="-10" type="curve" smooth="yes"/>
      <point x="627" y="-10"/>
      <point x="555" y="37"/>
      <point x="555" y="140" type="curve" smooth="yes"/>
      <point x="555" y="303"/>
      <point x="677" y="430"/>
      <point x="820" y="430" type="curve" smooth="yes"/>
      <point x="923" y="430"/>
      <point x="995" y="383"/>
      <point x="995" y="280" type="curve" smooth="yes"/>
      <point x="995" y="117"/>
      <point x="873" y="-10"/>
    </contour>
    <contour>
      <point x="825" y="416" type="curve" smooth="yes"/>
      <point x="766" y="416"/>
      <point x="690" y="191"/>
      <point x="690" y="84" type="curve" smooth="yes"/>
      <point x="690" y="40"/>
      <point x="701" y="4"/>
      <point x="725" y="4" type="curve" smooth="yes"/>
      <point x="784" y="4"/>
      <point x="858" y="229"/>
      <point x="858" y="336" type="curve" smooth="yes"/>
      <point x="858" y="380"/>
      <point x="849" y="416"/>
    </contour>
    <contour>
      <point x="877" y="750" type="line"/>
      <point x="895" y="750" type="line"/>
      <point x="211" y="0" type="line"/>
      <point x="193" y="0" type="line"/>
    </contour>
    <contour>
      <point x="275" y="320" type="curve" smooth="yes"/>
      <point x="172" y="320"/>
      <point x="100" y="367"/>
      <point x="100" y="470" type="curve" smooth="yes"/>
      <point x="100" y="633"/>
      <point x="222" y="760"/>
      <point x="365" y="760" type="curve" smooth="yes"/>
      <point x="468" y="760"/>
      <point x="540" y="713"/>
      <point x="540" y="610" type="curve" smooth="yes"/>
      <point x="540" y="447"/>
      <point x="418" y="320"/>
    </contour>
    <contour>
      <point x="370" y="746" type="curve" smooth="yes"/>
      <point x="311" y="746"/>
      <point x="235" y="521"/>
      <point x="235" y="414" type="curve" smooth="yes"/>
      <point x="235" y="370"/>
      <point x="246" y="334"/>
      <point x="270" y="334" type="curve" smooth="yes"/>
      <point x="329" y="334"/>
      <point x="402" y="561"/>
      <point x="402" y="668" type="curve" smooth="yes"/>
      <point x="402" y="712"/>
      <point x="394" y="746"/>
    </contour>
  </outline>
</glyph>
<glyph name="uni203D" format="2">
  <advance width="4800"/>
  <unicode hex="203D"/>
  <outline>
    <contour>
      <point x="3504" y="4352" type="curve" smooth="yes"/>
      <point x="3360" y="3504"/>
      <point x="2608" y="3144"/>
      <point x="2288" y="1944" type="curve"/>
      <point x="2176" y="1944" type="line"/>
      <point x="2416" y="3144"/>
      <point x="2320" y="3464"/>
      <point x="2320" y="4072" type="curve" smooth="yes"/>
      <point x="2320" y="4600"/>
      <point x="2480" y="4984"/>
      <point x="2952" y="4984" type="curve" smooth="yes"/>
      <point x="3312" y="4984"/>
      <point x="3568" y="4720"/>
    </contour>
    <contour>
      <point x="4032" y="4880" type="curve" smooth="yes"/>
      <point x="4032" y="5472"/>
      <point x="3800" y="5960"/>
      <point x="3048" y="5960" type="curve" smooth="yes"/>
      <point x="2152" y="5960"/>
      <point x="1368" y="5384"/>
      <point x="1200" y="4992" type="curve"/>
      <point x="1280" y="5056"/>
      <point x="1456" y="5128"/>
      <point x="1600" y="5128" type="curve" smooth="yes"/>
      <point x="1872" y="5128"/>
      <point x="2152" y="4928"/>
      <point x="2152" y="4544" type="curve" smooth="yes"/>
      <point x="2152" y="4104"/>
      <point x="1776" y="3912"/>
      <point x="1496" y="3912" type="curve" smooth="yes"/>
      <point x="1176" y="3912"/>
      <point x="920" y="4160"/>
      <point x="920" y="4568" type="curve" smooth="yes"/>
      <point x="920" y="5304"/>
      <point x="1992" y="6080"/>
      <point x="3128" y="6080" type="curve" smooth="yes"/>
      <point x="4176" y="6080"/>
      <point x="5160" y="5720"/>
      <point x="5160" y="4720" type="curve" smooth="yes"/>
      <point x="5160" y="3520"/>
      <point x="3744" y="2680"/>
      <point x="2416" y="2680" type="curve"/>
      <point x="2416" y="2752" type="line"/>
      <point x="3312" y="3000"/>
      <point x="4032" y="3896"/>
    </contour>
    <component base="period" xOffset="1072"/>
  </outline>
</glyph>
<glyph name="Euro" format="2">
  <advance width="3133"/>
  <unicode hex="20AC"/>
  <outline>
    <contour>
      <point x="3121" y="2684" type="curve"/>
      <point x="3078" y="2800"/>
      <point x="2850" y="3052"/>
      <point x="2476" y="3052" type="curve" smooth="yes"/>
      <point x="1702" y="3052"/>
      <point x="1266" y="1778"/>
      <point x="1266" y="840" type="curve" smooth="yes"/>
      <point x="1266" y="373"/>
      <point x="1459" y="35"/>
      <point x="1823" y="35" type="curve" smooth="yes"/>
      <point x="2202" y="35"/>
      <point x="2632" y="367"/>
      <point x="2777" y="729" type="curve"/>
      <point x="2838" y="729" type="line"/>
      <point x="2691" y="332"/>
      <point x="2228" y="-41"/>
      <point x="1732" y="-41" type="curve" smooth="yes"/>
      <point x="1195" y="-41"/>
      <point x="590" y="286"/>
      <point x="590" y="1126" type="curve" smooth="yes"/>
      <point x="590" y="2252"/>
      <point x="1446" y="3113"/>
      <point x="2433" y="3113" type="curve" smooth="yes"/>
      <point x="2933" y="3113"/>
      <point x="3276" y="2736"/>
      <point x="3276" y="2462" type="curve" smooth="yes"/>
      <point x="3276" y="2232"/>
      <point x="3105" y="2106"/>
      <point x="2941" y="2106" type="curve" smooth="yes"/>
      <point x="2798" y="2106"/>
      <point x="2606" y="2212"/>
      <point x="2606" y="2438" type="curve" smooth="yes"/>
      <point x="2606" y="2642"/>
      <point x="2787" y="2765"/>
      <point x="2947" y="2765" type="curve" smooth="yes"/>
      <point x="3027" y="2765"/>
      <point x="3095" y="2718"/>
    </contour>
    <component base="equal" xOffset="-123" yOffset="-287"/>
  </outline>
</glyph>
<glyph name="uni2116" format="2">
  <advance width="4693"/>
  <unicode hex="2116"/>
  <outline>
    <contour>
      <point x="3416" y="1319" type="line"/>
      <point x="4460" y="1319" type="line"/>
      <point x="4456" y="1262" type="line"/>
      <point x="3412" y="1262" type="line"/>
    </contour>
    <contour>
      <point x="4356" y="3113" type="curve" smooth="yes"/>
      <point x="4718" y="3113"/>
      <point x="4960" y="2928"/>
      <point x="4960" y="2568" type="curve" smooth="yes"/>
      <point x="4960" y="1927"/>
      <point x="4478" y="1556"/>
      <point x="3998" y="1556" type="curve" smooth="yes"/>
      <point x="3636" y="1556"/>
      <point x="3394" y="1742"/>
      <point x="3394" y="2102" type="curve" smooth="yes"/>
      <point x="3394" y="2743"/>
      <point x="3876" y="3113"/>
    </contour>
    <contour>
      <point x="3830" y="1896" type="curve" smooth="yes"/>
      <point x="3830" y="1695"/>
      <point x="3891" y="1614"/>
      <point x="4016" y="1614" type="curve" smooth="yes"/>
      <point x="4270" y="1614"/>
      <point x="4524" y="2302"/>
      <point x="4524" y="2773" type="curve" smooth="yes"/>
      <point x="4524" y="2974"/>
      <point x="4463" y="3056"/>
      <point x="4338" y="3056" type="curve" smooth="yes"/>
      <point x="4084" y="3056"/>
      <point x="3830" y="2367"/>
    </contour>
    <component base="N" xOffset="106"/>
  </outline>
</glyph>
<glyph name="uni2116" format="1">
  <advance width="1146"/>
  <unicode hex="2116"/>
  <outline>
    <contour>
      <point x="834" y="322" type="line"/>
      <point x="1089" y="322" type="line"/>
      <point x="1088" y="308" type="line"/>
      <point x="833" y="308" type="line"/>
    </contour>
    <contour>
      <point x="1064" y="760" type="curve" smooth="yes"/>
      <point x="1152" y="760"/>
      <point x="1211" y="715"/>
      <point x="1211" y="627" type="curve" smooth="yes"/>
      <point x="1211" y="471"/>
      <point x="1093" y="380"/>
      <point x="976" y="380" type="curve" smooth="yes"/>
      <point x="888" y="380"/>
      <point x="828" y="425"/>
      <point x="828" y="513" type="curve" smooth="yes"/>
      <point x="828" y="669"/>
      <point x="947" y="760"/>
    </contour>
    <contour>
      <point x="935" y="463" type="curve" smooth="yes"/>
      <point x="935" y="414"/>
      <point x="950" y="394"/>
      <point x="980" y="394" type="curve" smooth="yes"/>
      <point x="1042" y="394"/>
      <point x="1104" y="562"/>
      <point x="1104" y="677" type="curve" smooth="yes"/>
      <point x="1104" y="726"/>
      <point x="1089" y="746"/>
      <point x="1059" y="746" type="curve" smooth="yes"/>
      <point x="997" y="746"/>
      <point x="935" y="578"/>
    </contour>
    <component base="N" xOffset="26"/>
  </outline>
</glyph>
<glyph name="uniFB00" format="2">
  <advance width="5800"/>
  <unicode hex="FB00"/>
  <outline>
    <contour>
      <point x="552" y="3680" type="line"/>
      <point x="5952" y="3680" type="line"/>
      <point x="5952" y="3568" type="line"/>
      <point x="552" y="3568" type="line"/>
    </contour>
    <contour>
      <point x="6752" y="5584" type="curve"/>
      <point x="6672" y="5744"/>
      <point x="6416" y="5960"/>
      <point x="6016" y="5960" type="curve" smooth="yes"/>
      <point x="5456" y="5960"/>
      <point x="5088" y="5296"/>
      <point x="4912" y="4320" type="curve" smooth="yes"/>
      <point x="4208" y="304" type="line" smooth="yes"/>
      <point x="3984" y="-976"/>
      <point x="3112" y="-1680"/>
      <point x="2032" y="-1680" type="curve" smooth="yes"/>
      <point x="1224" y="-1680"/>
      <point x="832" y="-1184"/>
      <point x="832" y="-768" type="curve" smooth="yes"/>
      <point x="832" y="-360"/>
      <point x="1080" y="-112"/>
      <point x="1440" y="-112" type="curve" smooth="yes"/>
      <point x="1760" y="-112"/>
      <point x="2096" y="-304"/>
      <point x="2096" y="-704" type="curve" smooth="yes"/>
      <point x="2096" y="-1104"/>
      <point x="1792" y="-1328"/>
      <point x="1464" y="-1328" type="curve" smooth="yes"/>
      <point x="1320" y="-1328"/>
      <point x="1184" y="-1256"/>
      <point x="1152" y="-1184" type="curve"/>
      <point x="1232" y="-1344"/>
      <point x="1488" y="-1560"/>
      <point x="1936" y="-1560" type="curve" smooth="yes"/>
      <point x="2536" y="-1560"/>
      <point x="2912" y="-896"/>
      <point x="3080" y="80" type="curve" smooth="yes"/>
      <point x="3776" y="4096" type="line" smooth="yes"/>
      <point x="4000" y="5376"/>
      <point x="4880" y="6080"/>
      <point x="5920" y="6080" type="curve" smooth="yes"/>
      <point x="6688" y="6080"/>
      <point x="7080" y="5584"/>
      <point x="7080" y="5168" type="curve" smooth="yes"/>
      <point x="7080" y="4760"/>
      <point x="6824" y="4512"/>
      <point x="6464" y="4512" type="curve" smooth="yes"/>
      <point x="6144" y="4512"/>
      <point x="5816" y="4704"/>
      <point x="5816" y="5104" type="curve" smooth="yes"/>
      <point x="5816" y="5504"/>
      <point x="6120" y="5728"/>
      <point x="6448" y="5728" type="curve" smooth="yes"/>
      <point x="6592" y="5728"/>
      <point x="6704" y="5656"/>
    </contour>
    <contour>
      <point x="4272" y="5184" type="curve"/>
      <point x="4192" y="5344"/>
      <point x="3936" y="5560"/>
      <point x="3488" y="5560" type="curve" smooth="yes"/>
      <point x="2888" y="5560"/>
      <point x="2552" y="5024"/>
      <point x="2376" y="4048" type="curve" smooth="yes"/>
      <point x="1648" y="-96" type="line" smooth="yes"/>
      <point x="1424" y="-1376"/>
      <point x="552" y="-2080"/>
      <point x="-488" y="-2080" type="curve" smooth="yes"/>
      <point x="-1256" y="-2080"/>
      <point x="-1648" y="-1584"/>
      <point x="-1648" y="-1168" type="curve" smooth="yes"/>
      <point x="-1648" y="-760"/>
      <point x="-1400" y="-512"/>
      <point x="-1040" y="-512" type="curve" smooth="yes"/>
      <point x="-720" y="-512"/>
      <point x="-384" y="-704"/>
      <point x="-384" y="-1104" type="curve" smooth="yes"/>
      <point x="-384" y="-1504"/>
      <point x="-688" y="-1728"/>
      <point x="-1016" y="-1728" type="curve" smooth="yes"/>
      <point x="-1160" y="-1728"/>
      <point x="-1296" y="-1656"/>
      <point x="-1328" y="-1584" type="curve"/>
      <point x="-1248" y="-1744"/>
      <point x="-976" y="-1960"/>
      <point x="-576" y="-1960" type="curve" smooth="yes"/>
      <point x="-16" y="-1960"/>
      <point x="352" y="-1296"/>
      <point x="520" y="-320" type="curve" smooth="yes"/>
      <point x="1216" y="3696" type="line" smooth="yes"/>
      <point x="1440" y="4976"/>
      <point x="2320" y="5680"/>
      <point x="3400" y="5680" type="curve" smooth="yes"/>
      <point x="4208" y="5680"/>
      <point x="4600" y="5184"/>
      <point x="4600" y="4768" type="curve" smooth="yes"/>
      <point x="4600" y="4360"/>
      <point x="4344" y="4112"/>
      <point x="3984" y="4112" type="curve" smooth="yes"/>
      <point x="3664" y="4112"/>
      <point x="3336" y="4304"/>
      <point x="3336" y="4704" type="curve" smooth="yes"/>
      <point x="3336" y="5104"/>
      <point x="3640" y="5328"/>
      <point x="3968" y="5328" type="curve" smooth="yes"/>
      <point x="4112" y="5328"/>
      <point x="4224" y="5256"/>
    </contour>
  </outline>
</glyph>
<glyph name="uniFB01" format="2">
  <advance width="688"/>
  <unicode hex="FB01"/>
  <outline>
    <contour>
      <point x="668" y="163" type="line"/>
      <point x="630" y="63"/>
      <point x="562" y="-10"/>
      <point x="466" y="-10" type="curve" smooth="yes"/>
      <point x="404" y="-10"/>
      <point x="372" y="13"/>
      <point x="372" y="73" type="curve" smooth="yes"/>
      <point x="372" y="78"/>
      <point x="372" y="89"/>
      <point x="374" y="95" type="curve" smooth="yes"/>
      <point x="458" y="446" type="line"/>
      <point x="69" y="446" type="line"/>
      <point x="69" y="460" type="line"/>
      <point x="602" y="460" type="line"/>
      <point x="504" y="59" type="line" smooth="yes"/>
      <point x="503" y="53"/>
      <point x="502" y="46"/>
      <point x="502" y="41" type="curve" smooth="yes"/>
      <point x="502" y="30"/>
      <point x="507" y="21"/>
      <point x="520" y="21" type="curve" smooth="yes"/>
      <point x="570" y="21"/>
      <point x="628" y="91"/>
      <point x="656" y="167" type="curve"/>
    </contour>
    <contour>
      <point x="580" y="698" type="curve"/>
      <point x="569" y="720"/>
      <point x="536" y="745"/>
      <point x="472" y="745" type="curve" smooth="yes"/>
      <point x="385" y="745"/>
      <point x="326" y="664"/>
      <point x="304" y="540" type="curve" smooth="yes"/>
      <point x="206" y="-12" type="line" smooth="yes"/>
      <point x="178" y="-172"/>
      <point x="69" y="-260"/>
      <point x="-61" y="-260" type="curve" smooth="yes"/>
      <point x="-157" y="-260"/>
      <point x="-206" y="-198"/>
      <point x="-206" y="-146" type="curve" smooth="yes"/>
      <point x="-206" y="-95"/>
      <point x="-175" y="-64"/>
      <point x="-130" y="-64" type="curve" smooth="yes"/>
      <point x="-90" y="-64"/>
      <point x="-48" y="-88"/>
      <point x="-48" y="-138" type="curve" smooth="yes"/>
      <point x="-48" y="-188"/>
      <point x="-86" y="-216"/>
      <point x="-127" y="-216" type="curve" smooth="yes"/>
      <point x="-145" y="-216"/>
      <point x="-162" y="-207"/>
      <point x="-166" y="-198" type="curve"/>
      <point x="-156" y="-218"/>
      <point x="-122" y="-245"/>
      <point x="-72" y="-245" type="curve" smooth="yes"/>
      <point x="-2" y="-245"/>
      <point x="44" y="-162"/>
      <point x="65" y="-40" type="curve" smooth="yes"/>
      <point x="162" y="512" type="line" smooth="yes"/>
      <point x="190" y="672"/>
      <point x="310" y="760"/>
      <point x="460" y="760" type="curve" smooth="yes"/>
      <point x="574" y="760"/>
      <point x="620" y="700"/>
      <point x="620" y="646" type="curve" smooth="yes"/>
      <point x="620" y="595"/>
      <point x="589" y="564"/>
      <point x="544" y="564" type="curve" smooth="yes"/>
      <point x="504" y="564"/>
      <point x="462" y="588"/>
      <point x="462" y="638" type="curve" smooth="yes"/>
      <point x="462" y="688"/>
      <point x="500" y="716"/>
      <point x="541" y="716" type="curve" smooth="yes"/>
      <point x="558" y="716"/>
      <point x="574" y="707"/>
    </contour>
  </outline>
</glyph>
